<?xml version="1.0" encoding="utf-8"?>
<!-- Generator: Adobe Illustrator 26.0.1, SVG Export Plug-In . SVG Version: 6.00 Build 0)  -->
<svg version="1.1" id="Layer_1" xmlns="http://www.w3.org/2000/svg" xmlns:xlink="http://www.w3.org/1999/xlink" x="0px" y="0px"
	 viewBox="0 0 1082 111.1" style="enable-background:new 0 0 1082 111.1;" xml:space="preserve">
<style type="text/css">
	.st0{fill:#B8B19F;}
	.st1{fill:#B7B19E;}
	.st2{fill-rule:evenodd;clip-rule:evenodd;fill:#B7B19E;}
</style>
<g>
	<g>
		<path class="st0" d="M457.2,57.8c0,0-0.6,0.1-0.8,0.5c0,0,0.6,1.6,2,2c0,0-0.6,0.3-0.8,0.5c0,0,0,1.2,3,1.8c0,0-0.7,0.3-1,0.6
			c0,0,1.6,1.5,5.4,1c2.3-0.2,3.6-1.2,3.6-1.2c0.1-0.1-0.1-0.9-0.1-1c-0.1-0.6-0.2-1.2-0.2-1.8c-0.1-1.2-0.5-2.6-1.3-3.5
			c-0.5-0.6-2.2-1.6-2.2-2.1c0,0-0.4,0.5-0.2,1.5c0,0-1.6-2.2-3.4-2.4c0,0,0.2,0.8,0,1.1c0,0-1.4-1.1-2.7-0.9c0,0-0.1,0.6,0.1,0.8
			c0,0-3-0.1-3.7-1C454.8,53.7,454.3,55.8,457.2,57.8z M459.2,56.8c0.3,0.4,1.7,0.4,1.7,0.4c-0.1-0.1-0.1-0.4-0.1-0.4
			c0.6-0.1,1.3,0.4,1.3,0.4c0.1-0.2,0-0.5,0-0.5c0.8,0.1,1.6,1.1,1.6,1.1c-0.1-0.5,0.1-0.7,0.1-0.7c0,0.2,0.8,0.7,1,1
			c0.3,0.2,0.4,0.9,0.5,1.4s0.6,1.9,0.6,1.9c-0.5-0.1-1.9,0.2-1.9,0.2c-1.8,0.3-2.6-0.5-2.6-0.5c0.1-0.2,0.5-0.3,0.5-0.3
			c-1.4-0.3-1.4-0.8-1.4-0.8c0.1-0.1,0.4-0.2,0.4-0.2c-0.7-0.2-1-0.9-1-0.9c0.1-0.2,0.4-0.2,0.4-0.2C459,57.8,459.2,56.8,459.2,56.8
			z"/>
		<path class="st0" d="M467.5,45.6L467.5,45.6c0.2,0,0.3-0.1,0.4-0.2c0.8-2.2,2.2-5.3,4.6-8.1c2.5-3,5.5-4.9,8.9-5.7
			c2.7-0.6,5.8-0.7,8.8-0.7c5.7-0.1,11.1-0.2,12.5-4.3c0.6-1.6,0.4-3.2-0.6-4.5c-0.9-1.3-2.5-2.1-3.9-2.1c-1.5,0-2.6,0.8-3.1,2.2
			c-0.6,1.7-0.3,2.6,0.1,3.1s0.9,0.8,1.5,0.8c0.7,0,1.3-0.4,1.3-1c0-0.1,0-0.2-0.1-0.3c-0.1,0-0.1-0.1-0.2-0.1h-0.1
			c-0.1,0-0.2,0-0.2,0c-0.5,0-0.7-0.4-0.8-0.8c-0.1-0.5,0.1-1.3,0.9-1.7c0.2-0.1,0.5-0.2,0.9-0.2c1.2,0,2.5,0.8,3.1,1.7
			c0.5,0.8,0.4,1.8-0.1,2.7c-1.2,2.1-3.6,2.5-5.4,2.5s-3.9-0.4-6.1-1.2c-1.5-0.6-2.9-0.9-4.3-0.9c-2.7,0-5.1,1-7.3,3.2
			c0.3-1,0.3-2.4-0.6-4.1c-0.1-0.1-0.2-0.2-0.3-0.2c0,0,0,0-0.1,0c-0.2,0-0.3,0.2-0.3,0.3c-0.4,4.2-2.1,6-3.7,7.8
			c-0.5,0.6-1.1,1.2-1.5,1.8c-0.9,1.3-2,3.1-2.8,4.9c-0.5,1.1-1.4,3.2-1.5,4.6C467.2,45.4,467.3,45.6,467.5,45.6z"/>
		<path class="st0" d="M462.7,74.4c-0.5,0.8-1.9,2.5-3.3,2c3.2-4-5.5-7.8,2.1-9.5c-1.7,2.5-0.8,6.2,2.9,6.7
			c-2.4-2.4-0.3-7.1,2.6-6.7c-1.6,1.6-1.8,4.7,0.5,5.6c0.1-4.7,4.9-3.6,8.6-1.4c3,3,6.8,5.5,11,7.2c4.6,2,9.6,3,14.3,3
			c14.6,0,24.3-9,24.3-11.1c0-0.2-0.1-0.3-0.1-0.4c-0.1-0.1-0.2-0.1-0.4-0.1c-0.8,0-2.6,1.1-4.9,3c-2.6,2.2-5.7,3.8-9.2,4.8
			c1.7-1.1,2.3-2.8,1.7-4.6c-0.5-1.2-1.5-1.8-2.9-1.8c-2.1,0-4.7,1.4-6.5,3.5c-0.9,1-2.1,1.6-3.6,1.6c-2.2,0-4.4-1.3-5.7-3.3
			c-0.7-1.1-0.9-2-0.5-2.5c0.2-0.4,0.7-0.6,1-0.6c0.2,0,0.5,0.1,0.6,0.2s0.1,0.2,0.1,0.3c0,0.2,0,0.4,0.2,0.5
			c0.2,0.2,0.5,0.3,0.8,0.3c0.4,0,0.7-0.2,0.9-0.4c0.2-0.2,0.3-0.6,0.1-1.3c-0.2-0.8-1-1.3-1.9-1.3c-0.7,0-1.5,0.3-1.9,0.8
			c-0.5,0.5-0.7,1.2-0.7,2.1c0.1,1.6,1.3,3.6,3.1,5c0.3,0.3,0.7,0.6,1.1,0.8c-0.4-0.1-0.8-0.2-1.2-0.3c-3.3-1.4-6.2-3.5-8.6-6.2
			c-1.4-1.6-2.5-3.4-3.4-5.3c-0.9-1.8-1.1-3.9-2-5.7s-3.1-2.2-4.5-0.8c-1.7,1.7-0.7,4.3,0.4,6c2.2,3.7,5.4,6.9,8.9,9.4
			c2.6,1.8,5.6,3.2,8.6,4.2c0.1,0.1,0.3,0.1,0.4,0.2c-6.7-1-13.1-3.6-17.3-7.4c-4.1-3.6-6.2-6.9-6.3-10.3c-0.1-2.9,1.3-5.8,4.4-9
			c0.1-0.1,0.1-0.2,0-0.2c-0.1-0.1-0.1-0.1-0.2,0c-0.1,0-5.3,2.8-5.8,7.9c-1.5-5.7,0-10.6,2-13.2c1.4-1.9,3.2-3,4.8-3
			c0.3,0,0.6,0,0.9,0.1c0.1,0,0.2,0,0.2-0.1s0-0.2,0-0.2c-0.8-0.7-1.6-1-2.5-1c-1.5,0-2.9,1.1-3.6,2.1c-0.2,0.2-0.3,0.4-0.4,0.4
			c0-0.2,0.1-0.4,0.4-0.8c1.4-1.6,2.9-2.4,4.3-2.4c1.3,0,2.5,0.7,3.3,2.1c0.5,0.8,1.3,0.9,2,0.9c0.3,0,0.5,0,0.8,0s0.5,0,0.7,0
			c0.6,0,1,0.1,1.2,0.4c0.4,0.4,0.4,1.3,0.1,2.7c0,0.1,0,0.2,0.1,0.2s0.2,0,0.2-0.1c1.1-2.4,1-5-0.2-6.9c-1.1-1.8-3.1-2.8-5.5-2.8
			c-0.6,0-1.3,0.1-1.9,0.2c1.7-1.6,3.7-2.5,5.5-2.5c2.5,0,4.4,1.6,4.8,4.1c0,0.1,0.1,0.1,0.1,0.1c0.1,0,0.1,0,0.2,0
			c0,0,0.6-0.5,0.8-1.3c0.2-0.7,0.3-1.7-0.5-3c1.9,0.8,2.5,2.1,2.9,3.2c0.4,1,0.8,1.9,2.2,1.8h0.1c1.3,0,3.3,0.8,4.4,2.5
			c0.8,1.2,1.5,3.2,0.3,6.2c-1.2,2.9-3.5,4.5-6.6,4.5c-3.2,0-6.7-1.8-8.5-4.3c0-0.1-0.1-0.1-0.2-0.1s-0.1,0.1-0.1,0.2
			c0.3,1.4,1.5,2.9,3.1,4.1c1.8,1.3,3.9,1.9,6,1.9c2.3,0,4.4-0.9,6.3-2.5c0.1,0.3,0.4,1,0.8,1.6c0.8,1.3,1.8,2.1,2.9,2.3
			c0.1,0,0.1,0,0.2-0.1c0-0.1,0-0.1,0-0.2c-2.3-2.8-1.6-5.1-0.9-7.6c0.8-2.9,1.7-6.2-2.1-10.9c-3.1-3.7-7.4-5.7-12.1-5.7
			c-4.4,0-8.7,1.7-12.1,4.9c-3.7,3.5-5.9,8.2-6.3,13.8c-0.5,5.9,1.2,11.5,4.8,16.4c-7.2-3.7-18-3.2-18.6,5.4
			C454.1,79.2,462.7,79.3,462.7,74.4z"/>
	</g>
	<path class="st0" d="M465.9,47.5c-23,0-385.8,0-403.1,0c-1.1,0-2.3,0-3.3,0c-1.1,0-2.2-0.1-3.2,0c-2.1,0.1-4,0.3-5.9,0.4
		c-1.9,0.1-3.6,0.3-5.2,0.4c-1.6,0.1-3.1,0.2-4.4,0.4c-2.7,0.2-4.7,0.4-6.2,0.5c-1.4,0.1-2.2,0.2-2.2,0.2s0.8,0.1,2.2,0.2
		c1.4,0.1,3.5,0.3,6.2,0.5c1.3,0.1,2.8,0.2,4.4,0.4c1.6,0.1,3.3,0.2,5.2,0.4c1.8,0.1,3.8,0.3,5.9,0.4c0.1,0,0.2,0,0.3,0
		c-1,0.2-2.7,0.8-3.6,2c0,0,0.5,0.3,1.1,0.3c-0.7,0.1-2.2,0.7-3.4,2.6c0,0,0.9,0.1,1.6,0.1c-0.9,0.3-2.8,1.1-3.8,3.1
		c0,0,0.9,0.2,1.4-0.1c0,0-3.8,4-5.2,2.5c0,0,2.6,3,7.2,0.8c0,0-0.5,0.6-0.2,1.4c0,0,2.2,0,4.3-3.7c0,0-0.4,0.9,0.1,1.8
		c0,0,1.3-1,1.8-2.1c0.6-1.2,0.9-2.8,1.5-3.3c0,0-0.4,0.9,0.1,1.7c0,0,1-0.4,1.4-1.1c0.4-0.7,1.3-3.7,4.1-4.2c0.9-0.2,1.5-0.3,2-0.3
		c2.3,2.6,2.7,6.9,0.8,10c-3.2,5.2-9.7,6.6-15.3,4.9c-3.1-1-5.8-2.6-8.3-4.8c-2.3-2-4.1-4.3-6.2-6.6c-1.7-1.9-3.9-4-6.5-4.4
		c-2.3-0.3-4.5,0.3-6.1,2c0.7-2.4,2.4-4.6,4.6-5.9c4.4-2.9,9.7-3,14.7-2.8c5.4,0.2,11.1,0.8,16.2-1.3c3.9-1.6,7.4-4.4,8.7-8.6
		c0.4-1.4-1.7-2-2.1-0.6c-1.2,3.8-4.7,6.4-8.4,7.5c1.4-0.8,2-1.5,2-1.5l0,0c1-0.9,1.9-1.9,2.3-3.2c0.9-2.4,0.5-4.5-0.7-6.7
		c-1.3-2.3-4.5-3.4-6.7-1.8c-0.4,0.3-1.2,1.1-0.6,1.6c0.5,0.5,0.7-0.1,0.7-0.5c0-0.6-0.1-0.9,0.5-1.2c0.5-0.2,1.1-0.2,1.6,0
		c1,0.5,2,2,1.7,3.2c-0.2,0.7-0.7,0.9-1.3,1.2c-0.8,0.4-1.5,1-2.1,1.7c-1.3,1.7-1.7,3.7-3.2,5.3c-1.3,1.4-3.2,2.5-5.1,2.7
		c0,0,0,0-0.1,0c1.5-0.5,2.8-1.3,3.4-2.8c0.2-0.6,0.5-2.1-0.2-2.6c-0.9-0.5-0.2,0.5-0.2,0.7c0.1,0.7-1,1.2-1.6,1.3
		c-0.8,0.4-1.8,0.1-2.8,0.3c-1.8,0.4-3.4,1.7-5.1,2.4c-0.3,0.1-0.6,0.2-0.8,0.4c0.8-0.4-0.8-0.4-1.1-0.4c-0.6,0.1-1.2,0.4-1.8,0.6
		c-0.6,0.2-1.1,0.3-1.7,0.4c-3.6,0.6-7.2,1.8-9.7,4.5c-2.9,3.1-4.6,7.5-3,11.6c0,0.1,0.1,0.1,0.1,0.2c0.1,0.7,0.4,1.3,0.7,1.9
		c1.2,2.1,3.7,3.9,6.3,3.6c2.3-0.3,5-1.9,4.5-4.6c-0.4-2.1-3-3.9-5-2.5c-1.1,0.8,0,2.8,1.1,1.9c0.6-0.5,1.3,0,1.6,0.7
		s-0.3,1.4-0.9,1.8c-1.6,0.9-3.5,0.5-4.8-0.8s-1.9-3.1-1.2-4.8c0.6-1.6,2.3-3,4.1-3c2.8,0,5,2.1,6.7,4.1c2,2.3,3.9,4.6,6.2,6.6
		c4.7,4,10.8,6.8,17.1,5.7c5.1-0.9,10.3-4.8,11.1-10.3c0.5-3.1-0.4-6.3-2.4-8.6c16.3,0,376.7,0,397.1,0l-0.4-0.7
		c-0.4-0.7-0.4-1.7,0-2.4L465.9,47.5z M58.3,54.7c-2.2,2.2-6.8,8.1-10.7,7.4c0,0,3.2-0.6,7.6-6.9c0,0,2.9-4.7,9.7-3.6
		C64.9,51.6,60.5,52.5,58.3,54.7z"/>
	<g>
		<path class="st0" d="M616.6,48.2c0.4,0.7,0.4,1.7,0,2.4l-0.4,0.7c20.4,0,380.8,0,397.1,0c-1.9,2.3-2.8,5.5-2.4,8.6
			c0.8,5.4,5.9,9.4,11.1,10.3c6.3,1.1,12.4-1.7,17.1-5.7c2.3-2,4.2-4.3,6.2-6.6c1.8-2,3.9-4.1,6.7-4.1c1.8,0,3.4,1.4,4.1,3
			c0.7,1.7,0.1,3.5-1.2,4.8c-1.3,1.3-3.2,1.7-4.8,0.8c-0.6-0.3-1.2-1.1-0.9-1.8c0.3-0.7,1-1.1,1.6-0.7c1.1,0.9,2.3-1.1,1.1-1.9
			c-1.9-1.5-4.6,0.3-5,2.5c-0.5,2.7,2.3,4.3,4.5,4.6c2.6,0.3,5-1.5,6.3-3.6c0.4-0.6,0.6-1.2,0.7-1.9c0-0.1,0.1-0.1,0.1-0.2
			c1.6-4.1-0.1-8.6-3-11.6c-2.6-2.7-6.1-3.9-9.7-4.5c-0.6-0.1-1.1-0.3-1.7-0.4c-0.6-0.2-1.2-0.5-1.8-0.6c-0.3-0.1-1.9,0-1.1,0.4
			c-0.3-0.1-0.5-0.2-0.8-0.4c-1.7-0.7-3.3-2-5.1-2.4c-1-0.2-2,0.2-2.9-0.1c-0.6-0.1-1.6-0.6-1.6-1.3c0-0.3,0.8-1.2-0.2-0.7
			c-0.7,0.4-0.5,2-0.2,2.6c0.6,1.5,1.9,2.4,3.4,2.8c0,0,0,0-0.1,0c-1.9-0.3-3.8-1.4-5.1-2.7c-1.5-1.5-1.9-3.6-3.2-5.3
			c-0.5-0.7-1.3-1.3-2.1-1.7c-0.5-0.3-1.1-0.5-1.3-1.2c-0.3-1.2,0.7-2.7,1.7-3.2c0.5-0.2,1.1-0.2,1.6,0c0.6,0.3,0.5,0.6,0.5,1.2
			c0,0.3,0.2,1,0.7,0.5s-0.2-1.3-0.6-1.6c-2.2-1.6-5.5-0.5-6.7,1.8c-1.2,2.2-1.7,4.3-0.7,6.7c0.5,1.2,1.3,2.3,2.3,3.2l0,0
			c0,0,0.6,0.7,2,1.5c-3.7-1.2-7.2-3.7-8.4-7.5c-0.4-1.4-2.6-0.8-2.1,0.6c1.3,4.2,4.7,7,8.7,8.6c5.1,2.1,10.9,1.5,16.2,1.3
			c5-0.2,10.3-0.1,14.7,2.5c2.1,1.3,3.9,3.5,4.6,5.9c-1.6-1.6-3.8-2.3-6.1-2c-2.6,0.4-4.8,2.5-6.5,4.4c-2,2.2-3.9,4.6-6.2,6.6
			c-2.4,2.1-5.2,3.8-8.3,4.8c-5.6,1.8-12.1,0.4-15.3-4.9c-1.9-3.1-1.5-7.4,0.8-10c0.5,0.1,1.1,0.2,2,0.3c2.8,0.6,3.7,3.5,4.1,4.2
			c0.4,0.7,1.4,1.1,1.4,1.1c0.5-0.7,0.1-1.7,0.1-1.7c0.6,0.5,1,2.1,1.5,3.3c0.6,1.2,1.8,2.1,1.8,2.1c0.6-1,0.1-1.8,0.1-1.8
			c2.1,3.8,4.3,3.7,4.3,3.7c0.3-0.8-0.2-1.4-0.2-1.4c4.6,2.1,7.2-0.8,7.2-0.8c-1.4,1.5-5.2-2.5-5.2-2.5c0.5,0.3,1.4,0.1,1.4,0.1
			c-1-2-2.9-2.8-3.8-3.1c0.7,0.1,1.6-0.1,1.6-0.1c-1.2-1.9-2.8-2.4-3.4-2.6c0.7,0,1.1-0.3,1.1-0.3c-0.8-1.2-2.5-1.8-3.6-2
			c0.1,0,0.2,0,0.3,0c2.1-0.1,4-0.3,5.9-0.4c1.9-0.1,3.6-0.3,5.2-0.4c1.6-0.1,3.1-0.2,4.4-0.4c2.7-0.2,4.7-0.4,6.2-0.5
			c1.4-0.1,2.2-0.2,2.2-0.2s-0.8-0.1-2.2-0.2c-1.4-0.1-3.5-0.3-6.2-0.5c-1.3-0.1-2.8-0.2-4.4-0.4c-1.6-0.1-3.3-0.2-5.2-0.4
			c-1.8-0.1-3.8-0.3-5.9-0.4c-1-0.1-2.1-0.1-3.2,0c-1.1,0-2.2,0-3.3,0c-17.2,0-380.1,0-403.1,0L616.6,48.2z M1017.2,51.6
			c6.8-1.1,9.7,3.6,9.7,3.6c4.4,6.4,7.6,6.9,7.6,6.9c-4,0.7-8.6-5.2-10.7-7.4C1021.6,52.5,1017.2,51.6,1017.2,51.6z"/>
	</g>
	<path class="st1" d="M541.6,71.6c-0.3-0.3-0.9-0.3-1.2,0l-3.6,3.6c-0.3,0.3-0.3,0.9,0,1.2l3.6,3.6c0.3,0.3,0.9,0.3,1.2,0l3.6-3.6
		c0.3-0.3,0.3-0.9,0-1.2L541.6,71.6z"/>
	<path class="st2" d="M562.2,36.9c-1.4-1.8-2.5-3.9-3.8-5.7c-1.2-1.8-2.5-4.2-4.2-5.1c-12.2,6-23.8,13.2-34.6,20.3
		c0,0.1-0.1,0.1-0.1,0.1s0.1,0,0.1-0.1l0,0c0-0.1,0-0.1,0.1-0.1c3.9-8.8,8-17.2,12.1-25.7c1.3-2.9,3.2-5.6,3.7-9
		c-1.3-1-3.4-1.7-5.1-1.9c-3.8,5.5-5.8,12.9-9,19c-3,6.4-6.2,12.6-8.7,19.4c0.7,1.1,2.1,1.5,3.4,2c2.1,4.1,4.5,7.9,6.9,11.7
		c1.8,2.8,3.7,5.6,5.5,8.4c0.6,0.9,1.3,2,2.4,2.3c1.8-0.3,3.2-2,4.9-2.7c5-2.8,9.9-5.8,14.8-8.8c3.2-2,6.7-3.7,9.7-5.9
		c1.6-0.9,3.2-2,4.8-3c1.6-1,3.5-1.8,4.6-3.3C567.4,44.3,564.4,41,562.2,36.9z M554,27.6c0.7,1,1.3,2,1.9,3.1
		c-1,0.3-1.6,0.9-2.5,1.2C553.6,30.5,553.8,29,554,27.6z M550.2,29.7c1-0.5,2-1,2.9-1.7c0.1,1.3-0.6,2.8-0.7,4.3
		c-0.9,0.4-1.7,1-2.7,1.4C550,32.5,550,31.1,550.2,29.7z M546.6,31.9c0.9-0.6,1.9-1.1,2.8-1.7c0,1.1-0.3,2.7-0.5,4
		c-0.8,0.5-1.7,0.9-2.4,1.4C546.1,34.5,546.6,33.2,546.6,31.9z M542.9,34c0.9-0.5,1.8-1,2.7-1.6c0.3,0.8-0.2,2.5-0.2,3.7
		c-0.8,0.6-1.8,0.9-2.5,1.6C542.7,36.7,542.9,35.1,542.9,34z M539.3,36.1c1-0.5,1.9-1.1,2.9-1.7c0,1-0.3,2.7-0.5,3.9
		c-1.1,0.4-1.8,1.2-2.9,1.6C539.2,38.8,539.2,37.4,539.3,36.1z M535.5,38.4c1-0.5,2-1.2,3-1.8c0.4,0.9-0.3,2.6-0.5,3.7
		c-0.7,0.7-1.8,1.1-2.8,1.7C535.2,40.7,535.4,39.5,535.5,38.4z M531.7,40.7c1-0.6,2-1.1,2.9-1.8c0.3,0.7-0.1,2.4-0.1,3.5
		c-0.8,0.8-1.9,1.3-3,1.9C531.5,43.1,531.6,41.8,531.7,40.7z M527.6,43.4c0.9-0.9,2.2-1.4,3.2-2.2c0.3,0.7-0.1,2.5-0.2,3.5
		c-0.9,0.8-2.1,1.4-3.2,2.1C527.5,45.7,527.7,44.6,527.6,43.4z M530.3,12.2c0.8-0.1,1.4-0.4,1.9-0.7c0.7,0.3,1.4,0.5,2.1,0.8
		c-0.1,0.3-0.3,0.7-0.4,0.9c-1.6,0.3-2.9,1-4.5,1.4C529.7,13.8,530.1,13.1,530.3,12.2z M528.9,15.9c1.4-0.7,3-1.2,4.5-1.9
		c0,1-1,1.9-1.3,2.8c-1.5,0.5-2.9,1-4.3,1.5C528.2,17.7,528.5,16.7,528.9,15.9z M527.3,19.3c1.3-0.5,2.7-0.9,4-1.3
		c0.1,0.9-1.2,2.4-1.6,3.5c-1.4,0.4-2.6,1-3.9,1.4C526.3,21.7,526.9,20.5,527.3,19.3z M525.4,23.7c1.3-0.3,2.5-0.7,3.6-1.2
		c0.2,0.8-0.9,2-1.2,3c-1.3,0.3-2.4,0.9-3.7,1.2C524.5,25.7,525,24.8,525.4,23.7z M523.8,27.4c1.2-0.4,2.4-0.6,3.4-1.1
		c0.2,0,0.2,0.1,0.2,0.2c-0.8,1.1-1.2,2.5-1.9,3.6c-1.2,0.3-2.2,0.7-3.4,1C522.6,29.8,523.2,28.7,523.8,27.4z M521.6,31.9
		c1.1-0.4,2.3-0.8,3.5-1c-0.5,0.9-0.9,1.8-1.3,2.7c-1.1,0.4-2.3,0.7-3.4,1.1C520.4,33.9,521.3,32.9,521.6,31.9z M519.9,35.5
		c1.1-0.3,2.2-0.5,3.2-0.9c0.2,0,0.2,0.1,0.2,0.2c-0.7,1-1.1,2.3-1.7,3.4c-1.2,0.3-2.2,0.7-3.4,1C518.7,37.9,519.4,36.8,519.9,35.5z
		 M517.7,39.9c1.2-0.2,2.2-0.6,3.4-0.8c-0.6,1.2-1.2,2.4-1.7,3.7c-1.1,0.3-2.2,0.7-3.3,0.9C516.7,42.5,517.3,41.3,517.7,39.9z
		 M514.8,47.1c0.2-1,0.7-1.7,1-2.6c1.1-0.2,2.1-0.5,3.1-0.8c-0.3,1.4-1.4,3-1.9,4.5C516,48,515.7,47.3,514.8,47.1z M519,52.1
		c-0.7-0.3-0.8-1.2-1.3-1.7c0.4-0.8,1.4-1.1,2-1.8C520,49.4,519.6,51.4,519,52.1z M523,49.6c-1,0.5-1.8,1.2-2.9,1.7
		c0.2-1.1,0.4-2.3,0.8-3.3c0.7-0.8,1.7-1.2,2.6-1.9C523.6,47.1,523.3,48.6,523,49.6z M524.2,45.6c1-0.6,1.9-1.3,2.9-2
		c0.1,0.9-0.3,2.4-0.3,3.6c-0.8,0.6-1.9,1.1-2.7,1.8C523.9,48,524.4,46.8,524.2,45.6z M526.5,55.3c0-0.4-0.2-0.5-0.3-0.8
		c9-5.8,18.5-11.2,27.8-16.8c-0.7,1.2-2.2,1.6-3.3,2.4c-1.1,0.8-2.4,1.4-3.5,2.2C540,46.3,533.3,51.4,526.5,55.3z M529.3,59.7
		c-0.5-1.8,1.8-1.7,2.6-2.7c1.3-0.6,2.4-1.3,3.5-2c6.6-4.3,13.8-8,20.5-12.2c0-0.1,0.2-0.1,0.2-0.2c0.1,0,0.2,0.1,0.2,0.2
		C547.5,48.6,537.9,54,529.3,59.7z M558.3,49.2c-0.6,0.3-1,0.8-1.7,1c-1.1,0.8-2.3,1.4-3.5,2.1c-2.2,1.6-4.6,2.8-6.9,4.3
		c-4.9,2.5-9.2,5.6-14.1,8.1c-0.4-1,0.1-1.3,0.9-1.6c1.7-1.1,3.5-2,5.1-3.1c2.3-1.3,4.5-2.8,6.9-4.1c4.7-2.6,9.6-5.1,14-8
		c0.1,0,0.2-0.2,0.3-0.2c0.1,0,0.1,0,0.1,0.1C559.9,48.5,558.6,48.7,558.3,49.2z"/>
	<g>
		<path class="st1" d="M627.3,53.7c-0.7,0.9-3.7,1-3.7,1c0.2-0.2,0.1-0.8,0.1-0.8c-1.2-0.2-2.7,0.9-2.7,0.9c-0.2-0.3,0-1.1,0-1.1
			c-1.8,0.2-3.4,2.4-3.4,2.4c0.3-1.1-0.2-1.5-0.2-1.5c0,0.5-1.7,1.5-2.2,2.1c-0.9,0.9-1.2,2.3-1.3,3.5c-0.1,0.6-0.1,1.2-0.2,1.8
			c0,0.1-0.2,0.9-0.1,1c0,0,1.3,1,3.6,1.2c3.8,0.5,5.4-1,5.4-1c-0.2-0.3-1-0.6-1-0.6c3-0.5,3-1.8,3-1.8c-0.2-0.2-0.8-0.5-0.8-0.5
			c1.4-0.3,2-2,2-2c-0.3-0.4-0.8-0.5-0.8-0.5C627.7,55.8,627.3,53.7,627.3,53.7z M621.7,58.7c0,0,0.3,0.1,0.4,0.2c0,0-0.3,0.8-1,0.9
			c0,0,0.3,0.1,0.4,0.2c0,0,0,0.6-1.4,0.8c0,0,0.3,0.1,0.5,0.3c0,0-0.8,0.7-2.6,0.5c0,0-1.4-0.3-1.9-0.2c0,0,0.5-1.4,0.6-1.9
			c0.1-0.5,0.3-1.1,0.5-1.4c0.3-0.2,1-0.7,1-1c0,0,0.2,0.2,0.1,0.7c0,0,0.8-1,1.6-1.1c0,0-0.1,0.4,0,0.5c0,0,0.7-0.5,1.3-0.4
			c0,0,0,0.3-0.1,0.4c0,0,1.4,0,1.7-0.4C622.8,56.8,623.1,57.8,621.7,58.7z"/>
		<path class="st1" d="M614.6,45.6L614.6,45.6c-0.2,0-0.3-0.1-0.4-0.2c-0.8-2.2-2.2-5.3-4.6-8.1c-2.5-3-5.5-4.9-8.9-5.7
			c-2.7-0.6-5.8-0.7-8.8-0.7c-5.7-0.1-11.1-0.2-12.5-4.3c-0.6-1.6-0.4-3.2,0.6-4.5c0.9-1.3,2.5-2.1,3.9-2.1c1.5,0,2.6,0.8,3.1,2.2
			c0.6,1.7,0.3,2.6-0.1,3.1c-0.4,0.5-0.9,0.8-1.5,0.8c-0.7,0-1.3-0.4-1.3-1c0-0.1,0-0.2,0.1-0.3c0.1,0,0.1-0.1,0.2-0.1h0.1
			c0.1,0,0.2,0,0.2,0c0.5,0,0.7-0.4,0.8-0.8c0.1-0.5-0.1-1.3-0.9-1.7c-0.2-0.1-0.5-0.2-0.9-0.2c-1.2,0-2.5,0.8-3.1,1.7
			c-0.5,0.8-0.4,1.8,0.1,2.7c1.2,2.1,3.6,2.5,5.4,2.5s3.9-0.4,6.1-1.2c1.5-0.6,2.9-0.9,4.3-0.9c2.7,0,5.1,1,7.3,3.2
			c-0.3-1-0.3-2.4,0.6-4.1c0.1-0.1,0.2-0.2,0.3-0.2c0,0,0,0,0.1,0c0.2,0,0.3,0.2,0.3,0.3c0.4,4.2,2.1,6,3.7,7.8
			c0.5,0.6,1.1,1.2,1.5,1.8c0.9,1.3,2,3.1,2.8,4.9c0.5,1.1,1.4,3.2,1.5,4.6C614.9,45.4,614.8,45.6,614.6,45.6z"/>
		<path class="st1" d="M619.4,74.4c0.5,0.8,1.9,2.5,3.3,2c-3.2-4,5.5-7.8-2.1-9.5c1.7,2.5,0.8,6.2-2.9,6.7c2.4-2.4,0.3-7.1-2.6-6.7
			c1.6,1.6,1.8,4.7-0.5,5.6c-0.1-4.7-4.9-3.6-8.6-1.4c-3,3-6.8,5.5-11,7.2c-4.6,2-9.6,3-14.3,3c-14.6,0-30.1-14.5-30.1-16.6
			c0-0.2,0.1-0.3,0.1-0.4c0.1-0.1,1.6-1.6,5.2,3c0.5,0.6,3.5,3.5,5.9,5.4c2.6,2.2,5.7,3.8,9.2,4.8c-1.7-1.1-2.3-2.8-1.7-4.6
			c0.5-1.2,1.5-1.8,2.9-1.8c2.1,0,4.7,1.4,6.5,3.5c0.9,1,2.1,1.6,3.6,1.6c2.2,0,4.4-1.3,5.7-3.3c0.7-1.1,0.9-2,0.5-2.5
			c-0.2-0.4-0.7-0.6-1-0.6c-0.2,0-0.5,0.1-0.6,0.2c-0.1,0.1-0.1,0.2-0.1,0.3c0,0.2,0,0.4-0.2,0.5c-0.2,0.2-0.5,0.3-0.8,0.3
			c-0.4,0-0.7-0.2-0.9-0.4c-0.2-0.2-0.3-0.6-0.1-1.3c0.2-0.8,1-1.3,1.9-1.3c0.7,0,1.5,0.3,1.9,0.8c0.5,0.5,0.7,1.2,0.7,2.1
			c-0.1,1.6-1.3,3.6-3.1,5c-0.3,0.3-0.7,0.6-1.1,0.8c0.4-0.1,0.8-0.2,1.2-0.3c3.3-1.4,6.2-3.5,8.6-6.2c1.4-1.6,2.5-3.4,3.4-5.3
			c0.9-1.8,1.1-3.9,2-5.7c0.9-1.8,3.1-2.2,4.5-0.8c1.7,1.7,0.7,4.3-0.4,6c-2.2,3.7-5.4,6.9-8.9,9.4c-2.6,1.8-5.6,3.2-8.6,4.2
			c-0.1,0.1-0.3,0.1-0.4,0.2c6.7-1,13.1-3.6,17.3-7.4c4.1-3.6,6.2-6.9,6.3-10.3c0.1-2.9-1.3-5.8-4.4-9c-0.1-0.1-0.1-0.2,0-0.2
			c0.1-0.1,0.1-0.1,0.2,0c0.1,0,5.3,2.8,5.8,7.9c1.5-5.7,0-10.6-2-13.2c-1.4-1.9-3.2-3-4.8-3c-0.3,0-0.6,0-0.9,0.1
			c-0.1,0-0.2,0-0.2-0.1s0-0.2,0-0.2c0.8-0.7,1.6-1,2.5-1c1.5,0,2.9,1.1,3.6,2.1c0.2,0.2,0.3,0.4,0.4,0.4c0-0.2-0.1-0.4-0.4-0.8
			c-1.4-1.6-2.9-2.4-4.3-2.4c-1.3,0-2.5,0.7-3.3,2.1c-0.5,0.8-1.3,0.9-2,0.9c-0.3,0-0.5,0-0.8,0s-0.5,0-0.7,0c-0.6,0-1,0.1-1.2,0.4
			c-0.4,0.4-0.4,1.3-0.1,2.7c0,0.1,0,0.2-0.1,0.2c-0.1,0-0.2,0-0.2-0.1c-1.1-2.4-1-5,0.2-6.9c1.1-1.8,3.1-2.8,5.5-2.8
			c0.6,0,1.3,0.1,1.9,0.2c-1.7-1.6-3.7-2.5-5.5-2.5c-2.5,0-4.4,1.6-4.8,4.1c0,0.1-0.1,0.1-0.1,0.1c-0.1,0-0.1,0-0.2,0
			c0,0-0.6-0.5-0.8-1.3c-0.2-0.7-0.3-1.7,0.5-3c-1.9,0.8-2.5,2.1-2.9,3.2c-0.4,1-0.8,1.9-2.2,1.8h-0.1c-1.3,0-3.3,0.8-4.4,2.5
			c-0.8,1.2-1.5,3.2-0.3,6.2c1.2,2.9,3.5,4.5,6.6,4.5c3.2,0,6.7-1.8,8.5-4.3c0-0.1,0.1-0.1,0.2-0.1c0.1,0,0.1,0.1,0.1,0.2
			c-0.3,1.4-1.5,2.9-3.1,4.1c-1.8,1.3-3.9,1.9-6,1.9c-2.3,0-4.4-0.9-6.3-2.5c-0.1,0.3-0.4,1-0.8,1.6c-0.8,1.3-1.8,2.1-2.9,2.3
			c-0.1,0-0.1,0-0.2-0.1c0-0.1,0-0.1,0-0.2c2.3-2.8,1.6-5.1,0.9-7.6c-0.8-2.9-1.7-6.2,2.1-10.9c3.1-3.7,7.4-5.7,12.1-5.7
			c4.4,0,8.7,1.7,12.1,4.9c3.7,3.5,5.9,8.2,6.3,13.8c0.5,5.9-1.2,11.5-4.8,16.4c7.2-3.7,18-3.2,18.6,5.4
			C628,79.2,619.3,79.3,619.4,74.4z"/>
	</g>
</g>
</svg>
