<?xml version="1.0" encoding="utf-8"?>
<!-- Generator: Adobe Illustrator 26.0.1, SVG Export Plug-In . SVG Version: 6.00 Build 0)  -->
<svg version="1.1" id="Layer_1" xmlns="http://www.w3.org/2000/svg" xmlns:xlink="http://www.w3.org/1999/xlink" x="0px" y="0px"
	 viewBox="0 0 468.1 45.6" style="enable-background:new 0 0 468.1 45.6;" xml:space="preserve">
<style type="text/css">
	.st0{fill:#B7B19E;}
	.st1{fill:#B8B19F;}
</style>
<g>
	<path class="st0" d="M234.7,28.9c-0.3-0.3-0.9-0.3-1.2,0l-3.6,3.6c-0.3,0.3-0.3,0.9,0,1.2l3.6,3.6c0.3,0.3,0.9,0.3,1.2,0l3.6-3.6
		c0.3-0.3,0.3-0.9,0-1.2L234.7,28.9z"/>
	<g>
		<g>
			<path class="st1" d="M227.8,20.8c0-0.4,0.1-0.8,0.3-1.1l0.5-0.7c-23,0-165.8,0-183.1,0c-1.1,0-2.3,0-3.3,0c-1.1,0-2.2-0.1-3.2,0
				c-2.1,0.1-4,0.3-5.9,0.4c-1.9,0.1-3.6,0.3-5.2,0.4c-1.6,0.1-3.1,0.2-4.4,0.4c-2.7,0.2-4.7,0.4-6.2,0.5c-1.4,0.1-2.2,0.2-2.2,0.2
				s0.8,0.1,2.2,0.2c1.4,0.1,3.5,0.3,6.2,0.5c1.3,0.1,2.8,0.2,4.4,0.4c1.6,0.1,3.3,0.2,5.2,0.4c1.8,0.1,3.8,0.3,5.9,0.4
				c0.1,0,0.2,0,0.3,0h12.1c14.6,0,129.2,0,167.3,0c-0.7,0.7-1.4,1.3-1.8,1.3c0,0,0.6,0.6,1.9,0.6c0,0-3.1,1.6-3.8,3.9
				c0,0,1.1-0.1,1.4,0.2c0,0-1.7,1.6-1.7,3.3c0,0,0.7,0.2,1,0c0,0-0.7,3.8-2,4.5c0,0.1,2.6,1.2,5.7-2.1c0,0,0,0.8,0.5,1.1
				c0,0,2.2-0.4,3-2.2c0,0,0.3,0.8,0.5,1.1c0,0,1.5,0.2,2.9-3.5c0,0,0.2,1,0.6,1.4c0,0,2.2-1.7,2.4-6.7c0.2-3-0.8-4.8-0.8-4.8
				C228.4,20.8,228.1,20.8,227.8,20.8z M225.7,26.5c0,2.4-1.2,3.2-1.2,3.2c-0.2-0.2-0.3-0.7-0.3-0.7c-0.7,1.7-1.3,1.6-1.3,1.6
				c-0.1-0.1-0.2-0.6-0.2-0.6c-0.4,0.9-1.4,1.1-1.4,1.1c-0.2-0.2-0.2-0.6-0.2-0.6c-1.4,1.5-2.7,1-2.7,1c0.6-0.3,0.9-2.1,0.9-2.1
				c-0.1,0.1-0.5,0-0.5,0c0-0.8,0.8-1.6,0.8-1.6c-0.2-0.2-0.6-0.1-0.6-0.1c0.3-1,1.7-1.8,1.7-1.8c-0.7,0-0.9-0.3-0.9-0.3
				c0.3,0,1.1-0.9,1.5-1.1c0.3-0.3,1.2-0.3,1.9-0.4c0.7,0,2.6-0.4,2.6-0.4C225.6,24.6,225.7,26.5,225.7,26.5z"/>
			<path class="st1" d="M242.3,16.6c-0.1-0.1-0.2-0.1-0.3-0.1c-1.4,0.6-3.4,1.3-5.8,1.4c-2.5,0.1-4.7-0.4-6.5-1.7
				c-1.4-1-2.8-2.4-4.1-3.8c-2.5-2.6-4.9-5.1-7.4-4c-1,0.4-1.7,1.2-1.8,2.2c-0.2,1,0.1,2.1,0.7,2.7c0.6,0.7,1.5,0.9,2.4,0.5
				c1.1-0.5,1.3-1,1.4-1.4c0.1-0.4,0-0.8-0.3-1c-0.3-0.3-0.7-0.4-1-0.2c0,0-0.1,0.1-0.1,0.2c0,0,0,0.1,0,0.1l0,0
				c0,0,0.1,0.1,0.1,0.1c0.2,0.2,0.1,0.5,0,0.7c-0.2,0.3-0.6,0.5-1.2,0.3c-0.1-0.1-0.3-0.1-0.5-0.3c-0.5-0.6-0.7-1.5-0.5-2.2
				c0.2-0.6,0.7-1,1.3-1.1c1.5-0.3,2.7,0.6,3.5,1.4c0.8,0.8,1.5,2,2.1,3.4c0.4,1,0.8,1.7,1.4,2.4c1.2,1.3,2.7,1.9,4.6,2
				c-0.6,0.3-1.2,0.9-1.7,2.1c0,0.1,0,0.2,0,0.2c0,0,0,0,0,0c0.1,0.1,0.2,0.1,0.3,0c2.1-1.6,3.7-1.6,5.2-1.6c0.5,0,1,0,1.5-0.1
				c1-0.1,2.3-0.4,3.5-0.8c0.7-0.2,2.1-0.7,2.8-1.3C242.3,16.8,242.3,16.7,242.3,16.6z"/>
		</g>
		<g>
			<path class="st1" d="M239.7,20.8c0,0-1,1.9-0.8,4.8c0.1,5,2.4,6.7,2.4,6.7c0.3-0.4,0.6-1.4,0.6-1.4c1.4,3.7,2.9,3.5,2.9,3.5
				c0.2-0.3,0.5-1.1,0.5-1.1c0.8,1.7,3,2.2,3,2.2c0.5-0.3,0.5-1.1,0.5-1.1c3.1,3.3,5.7,2.2,5.7,2.1c-1.3-0.7-2-4.5-2-4.5
				c0.3,0.2,1,0,1,0c0-1.7-1.7-3.3-1.7-3.3c0.3-0.3,1.4-0.2,1.4-0.2c-0.6-2.3-3.8-3.9-3.8-3.9c1.3,0.1,1.9-0.6,1.9-0.6
				c-0.4,0.1-1.1-0.6-1.8-1.3c38.1,0,152.7,0,167.3,0h12.1c0.1,0,0.2,0,0.3,0c2.1-0.1,4.1-0.3,5.9-0.4c1.9-0.2,3.6-0.3,5.2-0.4
				c1.6-0.2,3.1-0.3,4.4-0.4c2.7-0.2,4.8-0.4,6.2-0.5c1.4-0.1,2.2-0.2,2.2-0.2s-0.8-0.1-2.2-0.2c-1.5-0.1-3.5-0.3-6.2-0.5
				c-1.3-0.2-2.8-0.3-4.4-0.4c-1.6-0.1-3.3-0.3-5.2-0.4c-1.9-0.1-3.8-0.3-5.9-0.4c-1-0.1-2.1,0-3.2,0c-1,0-2.2,0-3.3,0
				c-17.3,0-160.1,0-183.1,0l0.5,0.7c0.2,0.3,0.3,0.7,0.3,1.1C240,20.8,239.8,20.8,239.7,20.8z M242.3,24c0,0,1.9,0.4,2.6,0.4
				c0.7,0,1.6,0,1.9,0.4c0.4,0.2,1.2,1.1,1.5,1.1c0,0-0.2,0.3-0.9,0.3c0,0,1.4,0.8,1.7,1.8c0,0-0.4-0.1-0.6,0.1c0,0,0.8,0.8,0.8,1.6
				c0,0-0.4,0.1-0.5,0c0,0,0.3,1.8,0.9,2.1c0,0-1.2,0.5-2.7-1c0,0,0.1,0.4-0.2,0.6c0,0-1-0.2-1.4-1.1c0,0-0.1,0.4-0.2,0.6
				c0,0-0.6,0.1-1.3-1.6c0,0,0,0.5-0.3,0.7c0,0-1.2-0.9-1.2-3.2C242.4,26.5,242.5,24.6,242.3,24z"/>
			<path class="st1" d="M225.9,16.6c0.1-0.1,0.2-0.1,0.3-0.1c1.4,0.6,3.4,1.3,5.8,1.4c2.5,0.1,4.7-0.4,6.5-1.7
				c1.4-1,2.8-2.4,4.1-3.8c2.5-2.6,4.9-5.1,7.4-4c1,0.4,1.7,1.2,1.8,2.2c0.2,1-0.1,2.1-0.7,2.7c-0.6,0.7-1.5,0.9-2.4,0.5
				c-1.1-0.5-1.3-1-1.4-1.4c-0.1-0.4,0-0.8,0.3-1c0.3-0.3,0.7-0.4,1-0.2c0,0,0.1,0.1,0.1,0.2c0,0,0,0.1,0,0.1l0,0
				c0,0-0.1,0.1-0.1,0.1c-0.2,0.2-0.1,0.5,0,0.7c0.2,0.3,0.6,0.5,1.2,0.3c0.1-0.1,0.3-0.1,0.5-0.3c0.5-0.6,0.7-1.5,0.5-2.2
				c-0.2-0.6-0.7-1-1.3-1.1c-1.5-0.3-2.7,0.6-3.5,1.4c-0.8,0.8-1.5,2-2.1,3.4c-0.4,1-0.8,1.7-1.4,2.4c-1.2,1.3-2.7,1.9-4.6,2
				c0.6,0.3,1.2,0.9,1.7,2.1c0,0.1,0,0.2,0,0.2c0,0,0,0,0,0c-0.1,0.1-0.2,0.1-0.3,0c-2.1-1.6-3.7-1.6-5.2-1.6c-0.5,0-1,0-1.5-0.1
				c-1-0.1-2.3-0.4-3.5-0.8c-0.7-0.2-2.1-0.7-2.8-1.3C225.9,16.8,225.8,16.7,225.9,16.6z"/>
		</g>
	</g>
</g>
</svg>
