<?xml version="1.0" encoding="utf-8"?>
<!-- Generator: Adobe Illustrator 26.0.1, SVG Export Plug-In . SVG Version: 6.00 Build 0)  -->
<svg version="1.1" id="Layer_1" xmlns="http://www.w3.org/2000/svg" xmlns:xlink="http://www.w3.org/1999/xlink" x="0px" y="0px"
	 viewBox="0 0 1082 111.1" style="enable-background:new 0 0 1082 111.1;" xml:space="preserve">
<style type="text/css">
	.st0{fill:#B8B19F;}
	.st1{fill:#B7B19E;}
	.st2{fill-rule:evenodd;clip-rule:evenodd;fill:#B8B19F;}
</style>
<path class="st0" d="M465.9,47.5c-23,0-385.8,0-403.1,0c-1.1,0-2.3,0-3.3,0c-1.1,0-2.2-0.1-3.2,0c-2.1,0.1-4,0.3-5.9,0.4
	c-1.9,0.1-3.6,0.3-5.2,0.4c-1.6,0.1-3.1,0.2-4.4,0.4c-2.7,0.2-4.7,0.4-6.2,0.5c-1.4,0.1-2.2,0.2-2.2,0.2s0.8,0.1,2.2,0.2
	c1.4,0.1,3.5,0.3,6.2,0.5c1.3,0.1,2.8,0.2,4.4,0.4c1.6,0.1,3.3,0.2,5.2,0.4c1.8,0.1,3.8,0.3,5.9,0.4c0.1,0,0.2,0,0.3,0
	c-1,0.2-2.7,0.8-3.6,2c0,0,0.5,0.3,1.1,0.3c-0.7,0.1-2.2,0.7-3.4,2.6c0,0,0.9,0.1,1.6,0.1c-0.9,0.3-2.8,1.1-3.8,3.1
	c0,0,0.9,0.2,1.4-0.1c0,0-3.8,4-5.2,2.5c0,0,2.6,3,7.2,0.8c0,0-0.5,0.6-0.2,1.4c0,0,2.2,0,4.3-3.7c0,0-0.4,0.9,0.1,1.8
	c0,0,1.3-1,1.8-2.1c0.6-1.2,0.9-2.8,1.5-3.3c0,0-0.4,0.9,0.1,1.7c0,0,1-0.4,1.4-1.1c0.4-0.7,1.3-3.7,4.1-4.2c0.9-0.2,1.5-0.3,2-0.3
	c2.3,2.6,2.7,6.9,0.8,10c-3.2,5.2-9.7,6.6-15.3,4.9c-3.1-1-5.8-2.6-8.3-4.8c-2.3-2-4.1-4.3-6.2-6.6c-1.7-1.9-3.9-4-6.5-4.4
	c-2.3-0.3-4.5,0.3-6.1,2c0.7-2.4,2.4-4.6,4.6-5.9c4.4-2.9,9.7-3,14.7-2.8c5.4,0.2,11.1,0.8,16.2-1.3c3.9-1.6,7.4-4.4,8.7-8.6
	c0.4-1.4-1.7-2-2.1-0.6c-1.2,3.8-4.7,6.4-8.4,7.5c1.4-0.8,2-1.5,2-1.5l0,0c1-0.9,1.9-1.9,2.3-3.2c0.9-2.4,0.5-4.5-0.7-6.7
	c-1.3-2.3-4.5-3.4-6.7-1.8c-0.4,0.3-1.2,1.1-0.6,1.6c0.5,0.5,0.7-0.1,0.7-0.5c0-0.6-0.1-0.9,0.5-1.2c0.5-0.2,1.1-0.2,1.6,0
	c1,0.5,2,2,1.7,3.2c-0.2,0.7-0.7,0.9-1.3,1.2c-0.8,0.4-1.5,1-2.1,1.7c-1.3,1.7-1.7,3.7-3.2,5.3c-1.3,1.4-3.2,2.5-5.1,2.7
	c0,0,0,0-0.1,0c1.5-0.5,2.8-1.3,3.4-2.8c0.2-0.6,0.5-2.1-0.2-2.6c-0.9-0.5-0.2,0.5-0.2,0.7c0.1,0.7-1,1.2-1.6,1.3
	c-0.8,0.4-1.8,0.1-2.8,0.3c-1.8,0.4-3.4,1.7-5.1,2.4c-0.3,0.1-0.6,0.2-0.8,0.4c0.8-0.4-0.8-0.4-1.1-0.4c-0.6,0.1-1.2,0.4-1.8,0.6
	c-0.6,0.2-1.1,0.3-1.7,0.4c-3.6,0.6-7.2,1.8-9.7,4.5c-2.9,3.1-4.6,7.5-3,11.6c0,0.1,0.1,0.1,0.1,0.2c0.1,0.7,0.4,1.3,0.7,1.9
	c1.2,2.1,3.7,3.9,6.3,3.6c2.3-0.3,5-1.9,4.5-4.6c-0.4-2.1-3-3.9-5-2.5c-1.1,0.8,0,2.8,1.1,1.9c0.6-0.5,1.3,0,1.6,0.7
	s-0.3,1.4-0.9,1.8c-1.6,0.9-3.5,0.5-4.8-0.8s-1.9-3.1-1.2-4.8c0.6-1.6,2.3-3,4.1-3c2.8,0,5,2.1,6.7,4.1c2,2.3,3.9,4.6,6.2,6.6
	c4.7,4,10.8,6.8,17.1,5.7c5.1-0.9,10.3-4.8,11.1-10.3c0.5-3.1-0.4-6.3-2.4-8.6c16.3,0,376.7,0,397.1,0l-0.4-0.7
	c-0.4-0.7-0.4-1.7,0-2.4L465.9,47.5z M58.3,54.7c-2.2,2.2-6.8,8.1-10.7,7.4c0,0,3.2-0.6,7.6-6.9c0,0,2.9-4.7,9.7-3.6
	C64.9,51.6,60.5,52.5,58.3,54.7z"/>
<g>
	<path class="st0" d="M616.6,48.2c0.4,0.7,0.4,1.7,0,2.4l-0.4,0.7c20.4,0,380.8,0,397.1,0c-1.9,2.3-2.8,5.5-2.4,8.6
		c0.8,5.4,5.9,9.4,11.1,10.3c6.3,1.1,12.4-1.7,17.1-5.7c2.3-2,4.2-4.3,6.2-6.6c1.8-2,3.9-4.1,6.7-4.1c1.8,0,3.4,1.4,4.1,3
		c0.7,1.7,0.1,3.5-1.2,4.8c-1.3,1.3-3.2,1.7-4.8,0.8c-0.6-0.3-1.2-1.1-0.9-1.8c0.3-0.7,1-1.1,1.6-0.7c1.1,0.9,2.3-1.1,1.1-1.9
		c-1.9-1.5-4.6,0.3-5,2.5c-0.5,2.7,2.3,4.3,4.5,4.6c2.6,0.3,5-1.5,6.3-3.6c0.4-0.6,0.6-1.2,0.7-1.9c0-0.1,0.1-0.1,0.1-0.2
		c1.6-4.1-0.1-8.6-3-11.6c-2.6-2.7-6.1-3.9-9.7-4.5c-0.6-0.1-1.1-0.3-1.7-0.4c-0.6-0.2-1.2-0.5-1.8-0.6c-0.3-0.1-1.9,0-1.1,0.4
		c-0.3-0.1-0.5-0.2-0.8-0.4c-1.7-0.7-3.3-2-5.1-2.4c-1-0.2-2,0.2-2.9-0.1c-0.6-0.1-1.6-0.6-1.6-1.3c0-0.3,0.8-1.2-0.2-0.7
		c-0.7,0.4-0.5,2-0.2,2.6c0.6,1.5,1.9,2.4,3.4,2.8c0,0,0,0-0.1,0c-1.9-0.3-3.8-1.4-5.1-2.7c-1.5-1.5-1.9-3.6-3.2-5.3
		c-0.5-0.7-1.3-1.3-2.1-1.7c-0.5-0.3-1.1-0.5-1.3-1.2c-0.3-1.2,0.7-2.7,1.7-3.2c0.5-0.2,1.1-0.2,1.6,0c0.6,0.3,0.5,0.6,0.5,1.2
		c0,0.3,0.2,1,0.7,0.5s-0.2-1.3-0.6-1.6c-2.2-1.6-5.5-0.5-6.7,1.8c-1.2,2.2-1.7,4.3-0.7,6.7c0.5,1.2,1.3,2.3,2.3,3.2l0,0
		c0,0,0.6,0.7,2,1.5c-3.7-1.2-7.2-3.7-8.4-7.5c-0.4-1.4-2.6-0.8-2.1,0.6c1.3,4.2,4.7,7,8.7,8.6c5.1,2.1,10.9,1.5,16.2,1.3
		c5-0.2,10.3-0.1,14.7,2.5c2.1,1.3,3.9,3.5,4.6,5.9c-1.6-1.6-3.8-2.3-6.1-2c-2.6,0.4-4.8,2.5-6.5,4.4c-2,2.2-3.9,4.6-6.2,6.6
		c-2.4,2.1-5.2,3.8-8.3,4.8c-5.6,1.8-12.1,0.4-15.3-4.9c-1.9-3.1-1.5-7.4,0.8-10c0.5,0.1,1.1,0.2,2,0.3c2.8,0.6,3.7,3.5,4.1,4.2
		c0.4,0.7,1.4,1.1,1.4,1.1c0.5-0.7,0.1-1.7,0.1-1.7c0.6,0.5,1,2.1,1.5,3.3c0.6,1.2,1.8,2.1,1.8,2.1c0.6-1,0.1-1.8,0.1-1.8
		c2.1,3.8,4.3,3.7,4.3,3.7c0.3-0.8-0.2-1.4-0.2-1.4c4.6,2.1,7.2-0.8,7.2-0.8c-1.4,1.5-5.2-2.5-5.2-2.5c0.5,0.3,1.4,0.1,1.4,0.1
		c-1-2-2.9-2.8-3.8-3.1c0.7,0.1,1.6-0.1,1.6-0.1c-1.2-1.9-2.8-2.4-3.4-2.6c0.7,0,1.1-0.3,1.1-0.3c-0.8-1.2-2.5-1.8-3.6-2
		c0.1,0,0.2,0,0.3,0c2.1-0.1,4-0.3,5.9-0.4c1.9-0.1,3.6-0.3,5.2-0.4c1.6-0.1,3.1-0.2,4.4-0.4c2.7-0.2,4.7-0.4,6.2-0.5
		c1.4-0.1,2.2-0.2,2.2-0.2s-0.8-0.1-2.2-0.2c-1.4-0.1-3.5-0.3-6.2-0.5c-1.3-0.1-2.8-0.2-4.4-0.4c-1.6-0.1-3.3-0.2-5.2-0.4
		c-1.8-0.1-3.8-0.3-5.9-0.4c-1-0.1-2.1-0.1-3.2,0c-1.1,0-2.2,0-3.3,0c-17.2,0-380.1,0-403.1,0L616.6,48.2z M1017.2,51.6
		c6.8-1.1,9.7,3.6,9.7,3.6c4.4,6.4,7.6,6.9,7.6,6.9c-4,0.7-8.6-5.2-10.7-7.4C1021.6,52.5,1017.2,51.6,1017.2,51.6z"/>
</g>
<g>
	<g>
		<path class="st0" d="M457.2,57.8c0,0-0.6,0.1-0.8,0.5c0,0,0.6,1.6,2,2c0,0-0.6,0.3-0.8,0.5c0,0,0,1.2,3,1.8c0,0-0.7,0.3-1,0.6
			c0,0,1.6,1.5,5.4,1c2.3-0.2,3.6-1.2,3.6-1.2c0.1-0.1-0.1-0.9-0.1-1c-0.1-0.6-0.2-1.2-0.2-1.8c-0.1-1.2-0.5-2.6-1.3-3.5
			c-0.5-0.6-2.2-1.6-2.2-2.1c0,0-0.4,0.5-0.2,1.5c0,0-1.6-2.2-3.4-2.4c0,0,0.2,0.8,0,1.1c0,0-1.4-1.1-2.7-0.9c0,0-0.1,0.6,0.1,0.8
			c0,0-3-0.1-3.7-1C454.8,53.7,454.3,55.8,457.2,57.8z M459.2,56.8c0.3,0.4,1.7,0.4,1.7,0.4c-0.1-0.1-0.1-0.4-0.1-0.4
			c0.6-0.1,1.3,0.4,1.3,0.4c0.1-0.2,0-0.5,0-0.5c0.8,0.1,1.6,1.1,1.6,1.1c-0.1-0.5,0.1-0.7,0.1-0.7c0,0.2,0.8,0.7,1,1
			c0.3,0.2,0.4,0.9,0.5,1.4s0.6,1.9,0.6,1.9c-0.5-0.1-1.9,0.2-1.9,0.2c-1.8,0.3-2.6-0.5-2.6-0.5c0.1-0.2,0.5-0.3,0.5-0.3
			c-1.4-0.3-1.4-0.8-1.4-0.8c0.1-0.1,0.4-0.2,0.4-0.2c-0.7-0.2-1-0.9-1-0.9c0.1-0.2,0.4-0.2,0.4-0.2C459,57.8,459.2,56.8,459.2,56.8
			z"/>
		<path class="st0" d="M467.5,45.6L467.5,45.6c0.2,0,0.3-0.1,0.4-0.2c0.8-2.2,2.2-5.3,4.6-8.1c2.5-3,5.5-4.9,8.9-5.7
			c2.7-0.6,5.8-0.7,8.8-0.7c5.7-0.1,11.1-0.2,12.5-4.3c0.6-1.6,0.4-3.2-0.6-4.5c-0.9-1.3-2.5-2.1-3.9-2.1c-1.5,0-2.6,0.8-3.1,2.2
			c-0.6,1.7-0.3,2.6,0.1,3.1s0.9,0.8,1.5,0.8c0.7,0,1.3-0.4,1.3-1c0-0.1,0-0.2-0.1-0.3c-0.1,0-0.1-0.1-0.2-0.1h-0.1
			c-0.1,0-0.2,0-0.2,0c-0.5,0-0.7-0.4-0.8-0.8c-0.1-0.5,0.1-1.3,0.9-1.7c0.2-0.1,0.5-0.2,0.9-0.2c1.2,0,2.5,0.8,3.1,1.7
			c0.5,0.8,0.4,1.8-0.1,2.7c-1.2,2.1-3.6,2.5-5.4,2.5s-3.9-0.4-6.1-1.2c-1.5-0.6-2.9-0.9-4.3-0.9c-2.7,0-5.1,1-7.3,3.2
			c0.3-1,0.3-2.4-0.6-4.1c-0.1-0.1-0.2-0.2-0.3-0.2c0,0,0,0-0.1,0c-0.2,0-0.3,0.2-0.3,0.3c-0.4,4.2-2.1,6-3.7,7.8
			c-0.5,0.6-1.1,1.2-1.5,1.8c-0.9,1.3-2,3.1-2.8,4.9c-0.5,1.1-1.4,3.2-1.5,4.6C467.2,45.4,467.3,45.6,467.5,45.6z"/>
		<path class="st0" d="M462.7,74.4c-0.5,0.8-1.9,2.5-3.3,2c3.2-4-5.5-7.8,2.1-9.5c-1.7,2.5-0.8,6.2,2.9,6.7
			c-2.4-2.4-0.3-7.1,2.6-6.7c-1.6,1.6-1.8,4.7,0.5,5.6c0.1-4.7,4.9-3.6,8.6-1.4c3,3,6.8,5.5,11,7.2c4.6,2,9.6,3,14.3,3
			c14.6,0,24.3-9,24.3-11.1c0-0.2-0.1-0.3-0.1-0.4c-0.1-0.1-0.2-0.1-0.4-0.1c-0.8,0-2.6,1.1-4.9,3c-2.6,2.2-5.7,3.8-9.2,4.8
			c1.7-1.1,2.3-2.8,1.7-4.6c-0.5-1.2-1.5-1.8-2.9-1.8c-2.1,0-4.7,1.4-6.5,3.5c-0.9,1-2.1,1.6-3.6,1.6c-2.2,0-4.4-1.3-5.7-3.3
			c-0.7-1.1-0.9-2-0.5-2.5c0.2-0.4,0.7-0.6,1-0.6c0.2,0,0.5,0.1,0.6,0.2s0.1,0.2,0.1,0.3c0,0.2,0,0.4,0.2,0.5
			c0.2,0.2,0.5,0.3,0.8,0.3c0.4,0,0.7-0.2,0.9-0.4c0.2-0.2,0.3-0.6,0.1-1.3c-0.2-0.8-1-1.3-1.9-1.3c-0.7,0-1.5,0.3-1.9,0.8
			c-0.5,0.5-0.7,1.2-0.7,2.1c0.1,1.6,1.3,3.6,3.1,5c0.3,0.3,0.7,0.6,1.1,0.8c-0.4-0.1-0.8-0.2-1.2-0.3c-3.3-1.4-6.2-3.5-8.6-6.2
			c-1.4-1.6-2.5-3.4-3.4-5.3c-0.9-1.8-1.1-3.9-2-5.7s-3.1-2.2-4.5-0.8c-1.7,1.7-0.7,4.3,0.4,6c2.2,3.7,5.4,6.9,8.9,9.4
			c2.6,1.8,5.6,3.2,8.6,4.2c0.1,0.1,0.3,0.1,0.4,0.2c-6.7-1-13.1-3.6-17.3-7.4c-4.1-3.6-6.2-6.9-6.3-10.3c-0.1-2.9,1.3-5.8,4.4-9
			c0.1-0.1,0.1-0.2,0-0.2c-0.1-0.1-0.1-0.1-0.2,0c-0.1,0-5.3,2.8-5.8,7.9c-1.5-5.7,0-10.6,2-13.2c1.4-1.9,3.2-3,4.8-3
			c0.3,0,0.6,0,0.9,0.1c0.1,0,0.2,0,0.2-0.1s0-0.2,0-0.2c-0.8-0.7-1.6-1-2.5-1c-1.5,0-2.9,1.1-3.6,2.1c-0.2,0.2-0.3,0.4-0.4,0.4
			c0-0.2,0.1-0.4,0.4-0.8c1.4-1.6,2.9-2.4,4.3-2.4c1.3,0,2.5,0.7,3.3,2.1c0.5,0.8,1.3,0.9,2,0.9c0.3,0,0.5,0,0.8,0s0.5,0,0.7,0
			c0.6,0,1,0.1,1.2,0.4c0.4,0.4,0.4,1.3,0.1,2.7c0,0.1,0,0.2,0.1,0.2s0.2,0,0.2-0.1c1.1-2.4,1-5-0.2-6.9c-1.1-1.8-3.1-2.8-5.5-2.8
			c-0.6,0-1.3,0.1-1.9,0.2c1.7-1.6,3.7-2.5,5.5-2.5c2.5,0,4.4,1.6,4.8,4.1c0,0.1,0.1,0.1,0.1,0.1c0.1,0,0.1,0,0.2,0
			c0,0,0.6-0.5,0.8-1.3c0.2-0.7,0.3-1.7-0.5-3c1.9,0.8,2.5,2.1,2.9,3.2c0.4,1,0.8,1.9,2.2,1.8h0.1c1.3,0,3.3,0.8,4.4,2.5
			c0.8,1.2,1.5,3.2,0.3,6.2c-1.2,2.9-3.5,4.5-6.6,4.5c-3.2,0-6.7-1.8-8.5-4.3c0-0.1-0.1-0.1-0.2-0.1s-0.1,0.1-0.1,0.2
			c0.3,1.4,1.5,2.9,3.1,4.1c1.8,1.3,3.9,1.9,6,1.9c2.3,0,4.4-0.9,6.3-2.5c0.1,0.3,0.4,1,0.8,1.6c0.8,1.3,1.8,2.1,2.9,2.3
			c0.1,0,0.1,0,0.2-0.1c0-0.1,0-0.1,0-0.2c-2.3-2.8-1.6-5.1-0.9-7.6c0.8-2.9,1.7-6.2-2.1-10.9c-3.1-3.7-7.4-5.7-12.1-5.7
			c-4.4,0-8.7,1.7-12.1,4.9c-3.7,3.5-5.9,8.2-6.3,13.8c-0.5,5.9,1.2,11.5,4.8,16.4c-7.2-3.7-18-3.2-18.6,5.4
			C454.1,79.2,462.7,79.3,462.7,74.4z"/>
	</g>
	<path class="st1" d="M541.6,81.6c-0.3-0.3-0.9-0.3-1.2,0l-3.6,3.6c-0.3,0.3-0.3,0.9,0,1.2l3.6,3.6c0.3,0.3,0.9,0.3,1.2,0l3.6-3.6
		c0.3-0.3,0.3-0.9,0-1.2L541.6,81.6z"/>
	<g>
		<path class="st2" d="M539.6,69c0.1,0.1,0.2,0.2,0.3,0.3c0.6,0,1.1-0.2,1.1-0.8C540.9,67.5,539.3,67.8,539.6,69z"/>
		<path class="st2" d="M526.2,36.5c-0.7-0.4-1.3-0.8-1.9-1.2c-0.8-1-1.2-2.3-1-4.2c0.2-0.7,0.5-1.3,0.7-1.9c0.5-0.5,1-1.1,1.5-1.5
			c0.5-0.3,1.4-0.4,1.4-1.2c-0.1,0-0.3,0-0.4,0c-1.1,0.6-2.1,1.5-3,2.3c-2.6,4,0.5,9.6,4.7,8.9C528.2,36.7,526.8,37,526.2,36.5z"/>
		<path class="st2" d="M526.8,31.4c-0.1,0.5-0.1,1.2,0,1.6c0.6,0.9,1.6,1.3,3.2,1.2c0.6-0.3,1-0.8,1.2-1.4
			C531.8,29.4,527.7,29.1,526.8,31.4z"/>
		<path class="st2" d="M547.8,25.7c-1.5-0.2-3.9,0.4-4.4,1.9c0.8-0.2,1.3-0.8,2-1.1C546.2,26.2,547.2,26.3,547.8,25.7z"/>
		<path class="st2" d="M533.8,37.7c1.5-1.1,2.6-3.2,2.8-5.6c-0.1-0.9-0.2-1.7-0.5-2.3c-0.1,0-0.1-0.1-0.3-0.1c0,0.1,0,0.3,0.1,0.3
			c0.5,3.4-0.6,5.8-2.6,7.2c-0.5,0.3-1.2,0.5-1.4,1C532.6,38.4,533.3,38.1,533.8,37.7z"/>
		<path class="st2" d="M546.5,38c3.2,1.1,5.4-1.1,6.7-2.9c0.7-1.5,1-4.6-0.1-5.8c0,0.1,0,0.2,0,0.3c0.2,0.9,0.1,2.1,0.1,3.2
			c-0.2,1.1-0.6,1.9-1.1,2.7c-0.8,0.7-1.7,1.4-2.8,1.8C548.6,37.8,547,37.4,546.5,38z"/>
		<path class="st2" d="M569.7,49.1c-0.1-2,0.3-4.1-0.2-5.5c-2.5,0.8-5.7,0.8-7.8,1.9c-0.2,0.3,0,1.1-0.2,1.4c-1.3,0.2-3.1,0-4.4-0.2
			c0-0.9,0-1.8-0.3-2.4c-0.8,0-1.6,0-2.4,0c-0.1-1.4,0-3-0.3-4.2c-0.5-0.4-1.6-0.1-2-0.4c6-2.2,5.9-15.9-1.4-16.6
			c-6.3-0.1-10.6,1.8-11.8,6.9c-0.6-1.6-1.1-3.2-1.8-4.6c-1.2-1.3-3.1-1.9-5.2-2.4c-4.4-0.4-7,1-9,3c-1.6,1.5-2.6,4.1-2.3,7.3
			c0.2,2.1,1.2,3.8,2.1,5c0.8,0.8,1.7,1.5,2.8,1.9c-0.8,0-1.5,0.2-2,0.4c-0.3,0.3-0.2,1.1-0.4,1.5c-1.7,0.1-4.3,0-5.8,0.6
			c-0.1,0.8-0.2,2.1,0.1,2.7c1.4,0.6,4.1-0.2,5.6,0.3c0.2,4.4-0.3,10,1,13.6c2.8,0.7,6.5,0.4,9.9,0.5c-0.1,1.4-0.1,3.3,0.4,4.4
			c0.6,0.4,1.5,0.7,2.4,0.4c0.1,0.8,0.1,1.6,0.4,2.1c0.2,0.2,0.7,0.2,1.1,0.2c-1.7,1.2-0.9,4.7,0.5,5.2c-1.9,0.1-4-0.4-5.4,0.3
			c-0.3,1.7-0.3,4.1,0.2,5.6c4.7,0.3,10.6,0.1,15-0.6c0.7-1.1,0.6-3.5,0.6-4.9c-2-0.4-4.7-0.1-6.8-0.3c0.5-0.6,1.3-1,1.7-1.6
			c0.7-1.3,0.1-3.1-0.5-4c1-0.2,0.9-1.9,0.9-2.8c0.6,0.1,1-0.1,1.3-0.2c0.5-1.1,0.2-3.3,0.4-4.3c2.6-0.1,5.2-0.4,7.5-0.5
			c0.6-1.1,0.5-2.8,0.6-4.4c1.2,0,2.1-0.2,2.8-0.7c0.2-1.1,0.1-2.7,0.1-4c1.7,0,3,0.1,4.7,0c0,0.5,0,0.9,0.2,1.1
			c2.5,0.6,4.9,1.8,7.8,1.6C570,51.8,569.7,50.4,569.7,49.1z M548.4,24.8c0-0.1,0-0.1,0.1-0.1c6.8-0.7,7.4,9.1,4.1,12.7
			c-1.8,1.4-4.7,2.4-7.9,1.7c-1.8-1-3.3-2.4-4.4-4.1C538.4,28.6,542.2,24.9,548.4,24.8z M543.1,40.1c-2.9,0-5.4,0.4-8.5,0.3
			c2.2-1.2,3.2-3.4,4.1-5.9C539.2,37.2,541.7,38.5,543.1,40.1z M521.6,30.5c1.5-2.5,3.2-4.9,6.9-5.3c2.4-0.3,5.1-0.1,6.6,0.8
			c2.4,3.2,2.6,7.9,0.3,11.2c-0.9,1.3-2.4,1.8-3.8,2.6C525.4,39.7,521.3,37.3,521.6,30.5z M542.6,69.5c-0.1,0.8-0.7,1.1-1.2,1.4
			c-1.3-0.1-2.3-0.4-2.5-1.6C539,67.3,542.9,66.9,542.6,69.5z M544.4,62.4c-3,0.3-6.3,0.3-8.9,0.9c0-0.7,0-1.2-0.1-1.8
			c2.9-0.6,6.2-0.2,9.1-0.7C544.6,61.4,544.4,61.8,544.4,62.4z M552.5,57.9c-9,0.3-18.4,1.1-27.4,0.5c-0.3-5.2-1.3-10.8-0.2-15.7
			c0.5,3.2,0.3,7.3,0.6,10.8c0.1,1.1-0.1,2.4,0.6,3.2c0.7-0.8,0.2-2.2,0.1-3.3c-0.3-3.4-0.5-7.5-0.4-11.4c9.1-0.3,18.1-0.1,27.2-0.2
			C552.8,47.1,552.9,52.7,552.5,57.9z M566.7,47.4c0,1.1,0,2.2,0,3.4c-0.6-0.4-1.5-0.5-2.4-0.7c0.2-1.2-0.2-2.6-0.1-4
			c0.8-0.3,1.6-0.5,2.6-0.6C567.1,45.7,566.7,46.9,566.7,47.4z"/>
		<path class="st2" d="M546.9,29.6c-0.8,0.3-1.6,0.7-1.8,1.5c-1.3,3.9,6.1,4.8,5,0.2C549.5,30.3,548.5,29.2,546.9,29.6z"/>
		<path class="st2" d="M538.3,56.9c3.7,0.4,8.2,0,12-0.2c0.6-1.6,0.3-3.9,0.1-5.9c-0.2-2.1-0.2-4.3-0.7-6c-0.9-0.3-1.9-0.2-3-0.1
			c-3,0.1-6.3,0-8.8,0.7C538.2,48.7,538.2,53.4,538.3,56.9z M546.2,46.3c-2.4,0.1-5,0.4-7.1,0.4c0-0.9,1.2-0.5,1.8-0.7
			c2.3-0.3,4.8-0.3,7.2-0.5c0.2,0,0.2-0.1,0.3-0.1c0.1,0,0.1,0,0.2,0c0.2,2.8,0.8,7.2,0.2,10.4c-3-0.1-6-0.1-8.9,0.1
			c-0.3-2.7-0.6-5.4-0.8-8.1c2.5-0.7,6.3-0.1,8.5-1C547.5,46.3,546.7,46.5,546.2,46.3z"/>
	</g>
	<g>
		<path class="st0" d="M627.1,53.7c-0.7,0.9-3.7,1-3.7,1c0.2-0.2,0.1-0.8,0.1-0.8c-1.3-0.2-2.7,0.9-2.7,0.9c-0.2-0.3,0-1.1,0-1.1
			c-1.8,0.2-3.4,2.4-3.4,2.4c0.2-1-0.2-1.5-0.2-1.5c0,0.5-1.7,1.5-2.2,2.1c-0.8,0.9-1.2,2.3-1.3,3.5c0,0.6-0.1,1.2-0.2,1.8
			c0,0.1-0.2,0.9-0.1,1c0,0,1.3,1,3.6,1.2c3.8,0.5,5.4-1,5.4-1c-0.3-0.3-1-0.6-1-0.6c3-0.6,3-1.8,3-1.8c-0.2-0.2-0.8-0.5-0.8-0.5
			c1.4-0.4,2-2,2-2c-0.2-0.4-0.8-0.5-0.8-0.5C627.7,55.8,627.2,53.7,627.1,53.7z M621.7,58.7c0,0,0.3,0,0.4,0.2c0,0-0.3,0.7-1,0.9
			c0,0,0.3,0.1,0.4,0.2c0,0,0,0.5-1.4,0.8c0,0,0.4,0.1,0.5,0.3c0,0-0.8,0.8-2.6,0.5c0,0-1.4-0.3-1.9-0.2c0,0,0.5-1.4,0.6-1.9
			c0.1-0.5,0.2-1.2,0.5-1.4c0.2-0.3,1-0.8,1-1c0,0,0.2,0.2,0.1,0.7c0,0,0.8-1,1.6-1.1c0,0-0.1,0.3,0,0.5c0,0,0.7-0.5,1.3-0.4
			c0,0,0,0.3-0.1,0.4c0,0,1.4,0,1.7-0.4C622.8,56.8,623,57.8,621.7,58.7z"/>
		<path class="st0" d="M614.5,45.1c-0.1-1.4-1-3.5-1.5-4.6c-0.8-1.8-1.9-3.6-2.8-4.9c-0.4-0.6-1-1.2-1.5-1.8
			c-1.6-1.8-3.3-3.6-3.7-7.8c0-0.1-0.1-0.3-0.3-0.3c-0.1,0-0.1,0-0.1,0c-0.1,0-0.2,0.1-0.3,0.2c-0.9,1.7-0.9,3.1-0.6,4.1
			c-2.2-2.2-4.6-3.2-7.3-3.2c-1.4,0-2.8,0.3-4.3,0.9c-2.2,0.8-4.3,1.2-6.1,1.2s-4.2-0.4-5.4-2.5c-0.5-0.9-0.6-1.9-0.1-2.7
			c0.6-0.9,1.9-1.7,3.1-1.7c0.4,0,0.7,0.1,0.9,0.2c0.8,0.4,1,1.2,0.9,1.7c-0.1,0.4-0.3,0.8-0.8,0.8c0,0-0.1,0-0.2,0h-0.1
			c-0.1,0-0.1,0.1-0.2,0.1c-0.1,0.1-0.1,0.2-0.1,0.3c0,0.6,0.6,1,1.3,1c0.6,0,1.1-0.3,1.5-0.8c0.4-0.5,0.7-1.4,0.1-3.1
			c-0.5-1.4-1.6-2.2-3.1-2.2c-1.4,0-3,0.8-3.9,2.1c-1,1.3-1.2,2.9-0.6,4.5c1.4,4.1,6.8,4.2,12.5,4.3c3,0,6.1,0.1,8.8,0.7
			c3.4,0.8,6.4,2.7,8.9,5.7c2.4,2.8,3.8,5.9,4.6,8.1c0.1,0.1,0.2,0.2,0.4,0.2l0,0C614.7,45.6,614.8,45.4,614.5,45.1z"/>
		<path class="st0" d="M627.3,72.7c-0.6-8.6-11.4-9.1-18.6-5.4c3.6-4.9,5.3-10.5,4.8-16.4c-0.4-5.6-2.6-10.3-6.3-13.8
			c-3.4-3.2-7.7-4.9-12.1-4.9c-4.7,0-9,2-12.1,5.7c-3.8,4.7-2.9,8-2.1,10.9c0.7,2.5,1.4,4.8-0.9,7.6c0,0.1,0,0.1,0,0.2
			c0.1,0.1,0.1,0.1,0.2,0.1c1.1-0.2,2.1-1,2.9-2.3c0.4-0.6,0.7-1.3,0.8-1.6c1.9,1.6,4,2.5,6.3,2.5c2.1,0,4.2-0.6,6-1.9
			c1.6-1.2,2.8-2.7,3.1-4.1c0-0.1,0-0.2-0.1-0.2c-0.1,0-0.2,0-0.2,0.1c-1.8,2.5-5.3,4.3-8.5,4.3c-3.1,0-5.4-1.6-6.6-4.5
			c-1.2-3-0.5-5,0.3-6.2c1.1-1.7,3.1-2.5,4.4-2.5h0.1c1.4,0.1,1.8-0.8,2.2-1.8c0.4-1.1,1-2.4,2.9-3.2c-0.8,1.3-0.7,2.3-0.5,3
			c0.2,0.8,0.8,1.3,0.8,1.3c0.1,0,0.1,0,0.2,0c0,0,0.1,0,0.1-0.1c0.4-2.5,2.3-4.1,4.8-4.1c1.8,0,3.8,0.9,5.5,2.5
			c-0.6-0.1-1.3-0.2-1.9-0.2c-2.4,0-4.4,1-5.5,2.8c-1.2,1.9-1.3,4.5-0.2,6.9c0,0.1,0.1,0.1,0.2,0.1c0.1,0,0.1-0.1,0.1-0.2
			c-0.3-1.4-0.3-2.3,0.1-2.7c0.2-0.3,0.6-0.4,1.2-0.4c0.2,0,0.4,0,0.7,0s0.5,0,0.8,0c0.7,0,1.5-0.1,2-0.9c0.8-1.4,2-2.1,3.3-2.1
			c1.4,0,2.9,0.8,4.3,2.4c0.3,0.4,0.4,0.6,0.4,0.8c-0.1,0-0.2-0.2-0.4-0.4c-0.7-1-2.1-2.1-3.6-2.1c-0.9,0-1.7,0.3-2.5,1
			c0,0,0,0.1,0,0.2s0.1,0.1,0.2,0.1c0.3-0.1,0.6-0.1,0.9-0.1c1.6,0,3.4,1.1,4.8,3c2,2.6,3.5,7.5,2,13.2c-0.5-5.1-5.7-7.9-5.8-7.9
			c-0.1-0.1-0.1-0.1-0.2,0c-0.1,0-0.1,0.1,0,0.2c3.1,3.2,4.5,6.1,4.4,9c-0.1,3.4-2.2,6.7-6.3,10.3c-4.2,3.8-10.6,6.4-17.3,7.4
			c0.1-0.1,0.3-0.1,0.4-0.2c3-1,6-2.4,8.6-4.2c3.5-2.5,6.7-5.7,8.9-9.4c1.1-1.7,2.1-4.3,0.4-6c-1.4-1.4-3.6-1-4.5,0.8
			c-0.9,1.8-1.1,3.9-2,5.7c-0.9,1.9-2,3.7-3.4,5.3c-2.4,2.7-5.3,4.8-8.6,6.2c-0.4,0.1-0.8,0.2-1.2,0.3c0.4-0.2,0.8-0.5,1.1-0.8
			c1.8-1.4,3-3.4,3.1-5c0-0.9-0.2-1.6-0.7-2.1c-0.4-0.5-1.2-0.8-1.9-0.8c-0.9,0-1.7,0.5-1.9,1.3c-0.2,0.7-0.1,1.1,0.1,1.3
			c0.2,0.2,0.5,0.4,0.9,0.4c0.3,0,0.6-0.1,0.8-0.3c0.2-0.1,0.2-0.3,0.2-0.5c0-0.1,0-0.2,0.1-0.3c0.1-0.1,0.4-0.2,0.6-0.2
			c0.3,0,0.8,0.2,1,0.6c0.4,0.5,0.2,1.4-0.5,2.5c-1.3,2-3.5,3.3-5.7,3.3c-1.5,0-2.7-0.6-3.6-1.6c-1.8-2.1-4.4-3.5-6.5-3.5
			c-1.4,0-2.4,0.6-2.9,1.8c-0.6,1.8,0,3.5,1.7,4.6c-3.5-1-6.6-2.6-9.2-4.8c-2.3-1.9-4.1-3-4.9-3c-0.2,0-0.3,0-0.4,0.1
			c0,0.1-0.1,0.2-0.1,0.4c0,2.1,9.7,11.1,24.3,11.1c4.7,0,9.7-1,14.3-3c4.2-1.7,8-4.2,11-7.2c3.7-2.2,8.5-3.3,8.6,1.4
			c2.3-0.9,2.1-4,0.5-5.6c2.9-0.4,5,4.3,2.6,6.7c3.7-0.5,4.6-4.2,2.9-6.7c7.6,1.7-1.1,5.5,2.1,9.5c-1.4,0.5-2.8-1.2-3.3-2
			C619.3,79.3,627.9,79.2,627.3,72.7z"/>
	</g>
</g>
</svg>
