<?xml version="1.0" encoding="utf-8"?>
<!-- Generator: Adobe Illustrator 26.0.1, SVG Export Plug-In . SVG Version: 6.00 Build 0)  -->
<svg version="1.1" id="Layer_1" xmlns="http://www.w3.org/2000/svg" xmlns:xlink="http://www.w3.org/1999/xlink" x="0px" y="0px"
	 viewBox="0 0 642.7 111.1" style="enable-background:new 0 0 642.7 111.1;" xml:space="preserve">
<style type="text/css">
	.st0{fill:#B8B19F;}
	.st1{fill:#B7B19E;}
	.st2{fill-rule:evenodd;clip-rule:evenodd;fill:#FFFFFF;}
	.st3{fill-rule:evenodd;clip-rule:evenodd;fill:#B8B19F;}
</style>
<g>
	<path class="st0" d="M237.5,57.8c0,0-0.6,0.1-0.8,0.5c0,0,0.6,1.6,2,2c0,0-0.6,0.3-0.8,0.5c0,0,0,1.2,3,1.8c0,0-0.7,0.3-1,0.6
		c0,0,1.6,1.5,5.4,1c2.3-0.2,3.6-1.2,3.6-1.2c0.1-0.1-0.1-0.9-0.1-1c-0.1-0.6-0.2-1.2-0.2-1.8c-0.1-1.2-0.5-2.6-1.3-3.5
		c-0.5-0.6-2.2-1.6-2.2-2.1c0,0-0.4,0.5-0.2,1.5c0,0-1.6-2.2-3.4-2.4c0,0,0.2,0.8,0,1.1c0,0-1.4-1.1-2.7-0.9c0,0-0.1,0.6,0.1,0.8
		c0,0-3-0.1-3.7-1C235.1,53.7,234.6,55.8,237.5,57.8z M239.5,56.8c0.3,0.4,1.7,0.4,1.7,0.4c-0.1-0.1-0.1-0.4-0.1-0.4
		c0.6-0.1,1.3,0.4,1.3,0.4c0.1-0.2,0-0.5,0-0.5c0.8,0.1,1.6,1.1,1.6,1.1c-0.1-0.5,0.1-0.7,0.1-0.7c0,0.2,0.8,0.7,1,1
		c0.3,0.2,0.4,0.9,0.5,1.4s0.6,1.9,0.6,1.9c-0.5-0.1-1.9,0.2-1.9,0.2c-1.8,0.3-2.6-0.5-2.6-0.5c0.1-0.2,0.5-0.3,0.5-0.3
		c-1.4-0.3-1.4-0.8-1.4-0.8c0.1-0.1,0.4-0.2,0.4-0.2c-0.7-0.2-1-0.9-1-0.9c0.1-0.2,0.4-0.2,0.4-0.2
		C239.3,57.8,239.5,56.8,239.5,56.8z"/>
	<path class="st0" d="M247.8,45.6L247.8,45.6c0.2,0,0.3-0.1,0.4-0.2c0.8-2.2,2.2-5.3,4.6-8.1c2.5-3,5.5-4.9,8.9-5.7
		c2.7-0.6,5.8-0.7,8.8-0.7c5.7-0.1,11.1-0.2,12.5-4.3c0.6-1.6,0.4-3.2-0.6-4.5c-0.9-1.3-2.5-2.1-3.9-2.1c-1.5,0-2.6,0.8-3.1,2.2
		c-0.6,1.7-0.3,2.6,0.1,3.1s0.9,0.8,1.5,0.8c0.7,0,1.3-0.4,1.3-1c0-0.1,0-0.2-0.1-0.3c-0.1,0-0.1-0.1-0.2-0.1h-0.1
		c-0.1,0-0.2,0-0.2,0c-0.5,0-0.7-0.4-0.8-0.8c-0.1-0.5,0.1-1.3,0.9-1.7c0.2-0.1,0.5-0.2,0.9-0.2c1.2,0,2.5,0.8,3.1,1.7
		c0.5,0.8,0.4,1.8-0.1,2.7c-1.2,2.1-3.6,2.5-5.4,2.5s-3.9-0.4-6.1-1.2c-1.5-0.6-2.9-0.9-4.3-0.9c-2.7,0-5.1,1-7.3,3.2
		c0.3-1,0.3-2.4-0.6-4.1c-0.1-0.1-0.2-0.2-0.3-0.2c0,0,0,0-0.1,0c-0.2,0-0.3,0.2-0.3,0.3c-0.4,4.2-2.1,6-3.7,7.8
		c-0.5,0.6-1.1,1.2-1.5,1.8c-0.9,1.3-2,3.1-2.8,4.9c-0.5,1.1-1.4,3.2-1.5,4.6C247.5,45.4,247.6,45.6,247.8,45.6z"/>
	<path class="st0" d="M243,74.4c-0.5,0.8-1.9,2.5-3.3,2c3.2-4-5.5-7.8,2.1-9.5c-1.7,2.5-0.8,6.2,2.9,6.7c-2.4-2.4-0.3-7.1,2.6-6.7
		c-1.6,1.6-1.8,4.7,0.5,5.6c0.1-4.7,4.9-3.6,8.6-1.4c3,3,6.8,5.5,11,7.2c4.6,2,9.6,3,14.3,3c14.6,0,24.3-9,24.3-11.1
		c0-0.2-0.1-0.3-0.1-0.4c-0.1-0.1-0.2-0.1-0.4-0.1c-0.8,0-2.6,1.1-4.9,3c-2.6,2.2-5.7,3.8-9.2,4.8c1.7-1.1,2.3-2.8,1.7-4.6
		c-0.5-1.2-1.5-1.8-2.9-1.8c-2.1,0-4.7,1.4-6.5,3.5c-0.9,1-2.1,1.6-3.6,1.6c-2.2,0-4.4-1.3-5.7-3.3c-0.7-1.1-0.9-2-0.5-2.5
		c0.2-0.4,0.7-0.6,1-0.6c0.2,0,0.5,0.1,0.6,0.2s0.1,0.2,0.1,0.3c0,0.2,0,0.4,0.2,0.5c0.2,0.2,0.5,0.3,0.8,0.3c0.4,0,0.7-0.2,0.9-0.4
		c0.2-0.2,0.3-0.6,0.1-1.3c-0.2-0.8-1-1.3-1.9-1.3c-0.7,0-1.5,0.3-1.9,0.8c-0.5,0.5-0.7,1.2-0.7,2.1c0.1,1.6,1.3,3.6,3.1,5
		c0.3,0.3,0.7,0.6,1.1,0.8c-0.4-0.1-0.8-0.2-1.2-0.3c-3.3-1.4-6.2-3.5-8.6-6.2c-1.4-1.6-2.5-3.4-3.4-5.3c-0.9-1.8-1.1-3.9-2-5.7
		s-3.1-2.2-4.5-0.8c-1.7,1.7-0.7,4.3,0.4,6c2.2,3.7,5.4,6.9,8.9,9.4c2.6,1.8,5.6,3.2,8.6,4.2c0.1,0.1,0.3,0.1,0.4,0.2
		c-6.7-1-13.1-3.6-17.3-7.4c-4.1-3.6-6.2-6.9-6.3-10.3c-0.1-2.9,1.3-5.8,4.4-9c0.1-0.1,0.1-0.2,0-0.2c-0.1-0.1-0.1-0.1-0.2,0
		c-0.1,0-5.3,2.8-5.8,7.9c-1.5-5.7,0-10.6,2-13.2c1.4-1.9,3.2-3,4.8-3c0.3,0,0.6,0,0.9,0.1c0.1,0,0.2,0,0.2-0.1s0-0.2,0-0.2
		c-0.8-0.7-1.6-1-2.5-1c-1.5,0-2.9,1.1-3.6,2.1c-0.2,0.2-0.3,0.4-0.4,0.4c0-0.2,0.1-0.4,0.4-0.8c1.4-1.6,2.9-2.4,4.3-2.4
		c1.3,0,2.5,0.7,3.3,2.1c0.5,0.8,1.3,0.9,2,0.9c0.3,0,0.5,0,0.8,0s0.5,0,0.7,0c0.6,0,1,0.1,1.2,0.4c0.4,0.4,0.4,1.3,0.1,2.7
		c0,0.1,0,0.2,0.1,0.2s0.2,0,0.2-0.1c1.1-2.4,1-5-0.2-6.9c-1.1-1.8-3.1-2.8-5.5-2.8c-0.6,0-1.3,0.1-1.9,0.2c1.7-1.6,3.7-2.5,5.5-2.5
		c2.5,0,4.4,1.6,4.8,4.1c0,0.1,0.1,0.1,0.1,0.1c0.1,0,0.1,0,0.2,0c0,0,0.6-0.5,0.8-1.3c0.2-0.7,0.3-1.7-0.5-3
		c1.9,0.8,2.5,2.1,2.9,3.2c0.4,1,0.8,1.9,2.2,1.8h0.1c1.3,0,3.3,0.8,4.4,2.5c0.8,1.2,1.5,3.2,0.3,6.2c-1.2,2.9-3.5,4.5-6.6,4.5
		c-3.2,0-6.7-1.8-8.5-4.3c0-0.1-0.1-0.1-0.2-0.1s-0.1,0.1-0.1,0.2c0.3,1.4,1.5,2.9,3.1,4.1c1.8,1.3,3.9,1.9,6,1.9
		c2.3,0,4.4-0.9,6.3-2.5c0.1,0.3,0.4,1,0.8,1.6c0.8,1.3,1.8,2.1,2.9,2.3c0.1,0,0.1,0,0.2-0.1c0-0.1,0-0.1,0-0.2
		c-2.3-2.8-1.6-5.1-0.9-7.6c0.8-2.9,1.7-6.2-2.1-10.9c-3.1-3.7-7.4-5.7-12.1-5.7c-4.4,0-8.7,1.7-12.1,4.9c-3.7,3.5-5.9,8.2-6.3,13.8
		c-0.5,5.9,1.2,11.5,4.8,16.4c-7.2-3.7-18-3.2-18.6,5.4C234.4,79.2,243,79.3,243,74.4z"/>
</g>
<path class="st0" d="M246.2,47.5c-23,0-165.8,0-183.1,0c-1.1,0-2.3,0-3.3,0c-1.1,0-2.2-0.1-3.2,0c-2.1,0.1-4,0.3-5.9,0.4
	c-1.9,0.1-3.6,0.3-5.2,0.4c-1.6,0.1-3.1,0.2-4.4,0.4c-2.7,0.2-4.7,0.4-6.2,0.5c-1.4,0.1-2.2,0.2-2.2,0.2s0.8,0.1,2.2,0.2
	c1.4,0.1,3.5,0.3,6.2,0.5c1.3,0.1,2.8,0.2,4.4,0.4c1.6,0.1,3.3,0.2,5.2,0.4c1.8,0.1,3.8,0.3,5.9,0.4c0.1,0,0.2,0,0.3,0
	c-1,0.2-2.7,0.8-3.6,2c0,0,0.5,0.3,1.1,0.3c-0.7,0.1-2.2,0.7-3.4,2.6c0,0,0.9,0.1,1.6,0.1c-0.9,0.3-2.8,1.1-3.8,3.1
	c0,0,0.9,0.2,1.4-0.1c0,0-3.8,4-5.2,2.5c0,0,2.6,3,7.2,0.8c0,0-0.5,0.6-0.2,1.4c0,0,2.2,0,4.3-3.7c0,0-0.4,0.9,0.1,1.8
	c0,0,1.3-1,1.8-2.1c0.6-1.2,0.9-2.8,1.5-3.3c0,0-0.4,0.9,0.1,1.7c0,0,1-0.4,1.4-1.1c0.4-0.7,1.3-3.7,4.1-4.2c0.9-0.2,1.5-0.3,2-0.3
	c2.3,2.6,2.7,6.9,0.8,10c-3.2,5.2-9.7,6.6-15.3,4.9c-3.1-1-5.8-2.6-8.3-4.8c-2.3-2-4.1-4.3-6.2-6.6c-1.7-1.9-3.9-4-6.5-4.4
	c-2.3-0.3-4.5,0.3-6.1,2c0.7-2.4,2.4-4.6,4.6-5.9c4.4-2.9,9.7-3,14.7-2.8c5.4,0.2,11.1,0.8,16.2-1.3c3.9-1.6,7.4-4.4,8.7-8.6
	c0.4-1.4-1.7-2-2.1-0.6c-1.2,3.8-4.7,6.4-8.4,7.5c1.4-0.8,2-1.5,2-1.5l0,0c1-0.9,1.9-1.9,2.3-3.2c0.9-2.4,0.5-4.5-0.7-6.7
	c-1.3-2.3-4.5-3.4-6.7-1.8c-0.4,0.3-1.2,1.1-0.6,1.6c0.5,0.5,0.7-0.1,0.7-0.5c0-0.6-0.1-0.9,0.5-1.2c0.5-0.2,1.1-0.2,1.6,0
	c1,0.5,2,2,1.7,3.2c-0.2,0.7-0.7,0.9-1.3,1.2c-0.8,0.4-1.5,1-2.1,1.7c-1.3,1.7-1.7,3.7-3.2,5.3c-1.3,1.4-3.2,2.5-5.1,2.7
	c0,0,0,0-0.1,0c1.5-0.5,2.8-1.3,3.4-2.8c0.2-0.6,0.5-2.1-0.2-2.6c-0.9-0.5-0.2,0.5-0.2,0.7c0.1,0.7-1,1.2-1.6,1.3
	C49,40,48,39.7,47,39.9c-1.8,0.4-3.4,1.7-5.1,2.4c-0.3,0.1-0.6,0.2-0.8,0.4c0.8-0.4-0.8-0.4-1.1-0.4c-0.6,0.1-1.2,0.4-1.8,0.6
	c-0.6,0.2-1.1,0.3-1.7,0.4c-3.6,0.6-7.2,1.8-9.7,4.5c-2.9,3.1-4.6,7.5-3,11.6c0,0.1,0.1,0.1,0.1,0.2c0.1,0.7,0.4,1.3,0.7,1.9
	c1.2,2.1,3.7,3.9,6.3,3.6c2.3-0.3,5-1.9,4.5-4.6c-0.4-2.1-3-3.9-5-2.5c-1.1,0.8,0,2.8,1.1,1.9c0.6-0.5,1.3,0,1.6,0.7
	s-0.3,1.4-0.9,1.8c-1.6,0.9-3.5,0.5-4.8-0.8s-1.9-3.1-1.2-4.8c0.6-1.6,2.3-3,4.1-3c2.8,0,5,2.1,6.7,4.1c2,2.3,3.9,4.6,6.2,6.6
	c4.7,4,10.8,6.8,17.1,5.7c5.1-0.9,10.3-4.8,11.1-10.3c0.5-3.1-0.4-6.3-2.4-8.6c16.3,0,156.7,0,177.1,0l-0.4-0.7
	c-0.4-0.7-0.4-1.7,0-2.4L246.2,47.5z M58.6,54.7c-2.2,2.2-6.8,8.1-10.7,7.4c0,0,3.2-0.6,7.6-6.9c0,0,2.9-4.7,9.7-3.6
	C65.2,51.6,60.8,52.5,58.6,54.7z"/>
<g>
	<path class="st0" d="M396.9,48.2c0.4,0.7,0.4,1.7,0,2.4l-0.4,0.7c20.4,0,160.8,0,177.1,0c-1.9,2.3-2.8,5.5-2.4,8.6
		c0.8,5.4,5.9,9.4,11.1,10.3c6.3,1.1,12.4-1.7,17.1-5.7c2.3-2,4.2-4.3,6.2-6.6c1.8-2,3.9-4.1,6.7-4.1c1.8,0,3.4,1.4,4.1,3
		c0.7,1.7,0.1,3.5-1.2,4.8s-3.2,1.7-4.8,0.8c-0.6-0.3-1.2-1.1-0.9-1.8s1-1.1,1.6-0.7c1.1,0.9,2.3-1.1,1.1-1.9
		c-1.9-1.5-4.6,0.3-5,2.5c-0.5,2.7,2.3,4.3,4.5,4.6c2.6,0.3,5-1.5,6.3-3.6c0.4-0.6,0.6-1.2,0.7-1.9c0-0.1,0.1-0.1,0.1-0.2
		c1.6-4.1-0.1-8.6-3-11.6c-2.6-2.7-6.1-3.9-9.7-4.5c-0.6-0.1-1.1-0.3-1.7-0.4c-0.6-0.2-1.2-0.5-1.8-0.6c-0.3-0.1-1.9,0-1.1,0.4
		c-0.3-0.1-0.5-0.2-0.8-0.4c-1.7-0.7-3.3-2-5.1-2.4c-1-0.2-2,0.2-2.9-0.1c-0.6-0.1-1.6-0.6-1.6-1.3c0-0.3,0.8-1.2-0.2-0.7
		c-0.7,0.4-0.5,2-0.2,2.6c0.6,1.5,1.9,2.4,3.4,2.8c0,0,0,0-0.1,0c-1.9-0.3-3.8-1.4-5.1-2.7c-1.5-1.5-1.9-3.6-3.2-5.3
		c-0.5-0.7-1.3-1.3-2.1-1.7c-0.5-0.3-1.1-0.5-1.3-1.2c-0.3-1.2,0.7-2.7,1.7-3.2c0.5-0.2,1.1-0.2,1.6,0c0.6,0.3,0.5,0.6,0.5,1.2
		c0,0.3,0.2,1,0.7,0.5s-0.2-1.3-0.6-1.6c-2.2-1.6-5.5-0.5-6.7,1.8c-1.2,2.2-1.7,4.3-0.7,6.7c0.5,1.2,1.3,2.3,2.3,3.2l0,0
		c0,0,0.6,0.7,2,1.5c-3.7-1.2-7.2-3.7-8.4-7.5c-0.4-1.4-2.6-0.8-2.1,0.6c1.3,4.2,4.7,7,8.7,8.6c5.1,2.1,10.9,1.5,16.2,1.3
		c5-0.2,10.3-0.1,14.7,2.5c2.1,1.3,3.9,3.5,4.6,5.9c-1.6-1.6-3.8-2.3-6.1-2c-2.6,0.4-4.8,2.5-6.5,4.4c-2,2.2-3.9,4.6-6.2,6.6
		c-2.4,2.1-5.2,3.8-8.3,4.8c-5.6,1.8-12.1,0.4-15.3-4.9c-1.9-3.1-1.5-7.4,0.8-10c0.5,0.1,1.1,0.2,2,0.3c2.8,0.6,3.7,3.5,4.1,4.2
		c0.4,0.7,1.4,1.1,1.4,1.1c0.5-0.7,0.1-1.7,0.1-1.7c0.6,0.5,1,2.1,1.5,3.3c0.6,1.2,1.8,2.1,1.8,2.1c0.6-1,0.1-1.8,0.1-1.8
		c2.1,3.8,4.3,3.7,4.3,3.7c0.3-0.8-0.2-1.4-0.2-1.4c4.6,2.1,7.2-0.8,7.2-0.8c-1.4,1.5-5.2-2.5-5.2-2.5c0.5,0.3,1.4,0.1,1.4,0.1
		c-1-2-2.9-2.8-3.8-3.1c0.7,0.1,1.6-0.1,1.6-0.1c-1.2-1.9-2.8-2.4-3.4-2.6c0.7,0,1.1-0.3,1.1-0.3c-0.8-1.2-2.5-1.8-3.6-2
		c0.1,0,0.2,0,0.3,0c2.1-0.1,4-0.3,5.9-0.4c1.9-0.1,3.6-0.3,5.2-0.4c1.6-0.1,3.1-0.2,4.4-0.4c2.7-0.2,4.7-0.4,6.2-0.5
		c1.4-0.1,2.2-0.2,2.2-0.2s-0.8-0.1-2.2-0.2c-1.4-0.1-3.5-0.3-6.2-0.5c-1.3-0.1-2.8-0.2-4.4-0.4c-1.6-0.1-3.3-0.2-5.2-0.4
		c-1.8-0.1-3.8-0.3-5.9-0.4c-1-0.1-2.1-0.1-3.2,0c-1.1,0-2.2,0-3.3,0c-17.2,0-160.1,0-183.1,0L396.9,48.2z M577.5,51.6
		c6.8-1.1,9.7,3.6,9.7,3.6c4.4,6.4,7.6,6.9,7.6,6.9c-4,0.7-8.6-5.2-10.7-7.4C581.9,52.5,577.5,51.6,577.5,51.6z"/>
</g>
<path class="st1" d="M321.9,81.6c-0.3-0.3-0.9-0.3-1.2,0l-3.6,3.6c-0.3,0.3-0.3,0.9,0,1.2l3.6,3.6c0.3,0.3,0.9,0.3,1.2,0l3.6-3.6
	c0.3-0.3,0.3-0.9,0-1.2L321.9,81.6z"/>
<path class="st2" d="M328.9,33.1c-1,0.2-2.4,0.2-2.7-0.7C326.1,29.7,330.7,30.7,328.9,33.1z M328.7,31.7c-0.3-1.6-2.1,0.4-0.5,0.6
	C328.4,32.2,328.6,32.1,328.7,31.7z"/>
<path class="st2" d="M310.5,31.4c0,0.7-0.2,1.2-0.6,1.5c-0.6,0.2-1.4,0-1.7-0.3C307.7,31,309.9,30.2,310.5,31.4z M309.2,32.6
	c0.5-0.1,0.7-0.3,0.6-0.9C309.1,30.9,308.4,32.3,309.2,32.6z"/>
<path class="st2" d="M303.3,44.1c0.2,0.7-1,0.1-1.1,0.4c-1.3,0.1-2.7,0.1-4,0.2c-0.3-1.1,1.1-0.7,1.8-0.7
	C301.2,43.9,302.7,43.6,303.3,44.1z"/>
<path class="st2" d="M349,45.1c0.1,0.4-0.2,0.4-0.1,0.7c-0.3,0.1-0.5-0.1-0.7-0.1c0-0.2,0-0.3,0-0.5C348.6,45.3,348.6,45,349,45.1z"
	/>
<path class="st2" d="M336,45.7c0.1,2.5-0.2,4.7-0.1,7.3c-0.4,0.1-0.8,0.2-1.3,0.2c0.1-2.5,0.2-5,0.2-7.6
	C335.3,45.5,335.5,45.7,336,45.7z"/>
<path class="st2" d="M344,49.9c-0.2,0-0.4-0.2-0.7-0.1c-0.2-1-0.1-2.2-0.3-3.3c0.3,0,0.5-0.1,0.6-0.2C344,47.2,343.8,48.8,344,49.9z
	"/>
<path class="st2" d="M348.2,46.6c0.2,0.1,0.7-0.1,0.7,0.1c0.1,0.5-0.4,0.3-0.7,0.4C348.2,47,348.2,46.8,348.2,46.6z"/>
<path class="st2" d="M348.8,47.8c0.2,0.2,0.1,0.7,0.1,1.1c-0.3-0.1-0.3,0.2-0.6,0.1c0.1-0.5-0.2-0.7-0.1-1.1
	C348.5,48,348.5,47.8,348.8,47.8z"/>
<path class="st2" d="M337.3,48.2c1.5,0.1,3.3-0.1,4.6,0.1c-1.1,0.6-3.1,0.3-4.6,0.5C337.3,48.7,337.3,48.5,337.3,48.2z"/>
<path class="st2" d="M348.4,49.9c0.2,0,0.3,0,0.5,0c0,0.4,0.1,1.1-0.2,1.2C348.1,51.1,348.5,50.3,348.4,49.9z"/>
<path class="st2" d="M324.2,59.7c-0.5,0.3-1.4,0.2-2,0.4c-1.7,0-3.6,0-5.1,0.2c-0.4,0.1-1.3,0.6-1.3-0.2
	C318.1,59.5,321.5,60,324.2,59.7z"/>
<path class="st2" d="M323.3,64.3c0,0.4,0.1,1-0.1,1.2c-1.7-0.1-3.3,0.1-4.8,0.2c0.1-0.5-0.2-0.7-0.1-1.1
	C319.9,64.4,321.5,64.2,323.3,64.3z"/>
<path class="st2" d="M327.9,74.2c0,0.6-0.2,0.8-0.1,1.4c-4.4-0.1-8.8-0.1-13.1,0.1c-0.1-0.5-0.4-1.3-0.1-1.8
	C319.3,73.8,323.6,74,327.9,74.2z"/>
<path class="st2" d="M327.7,76.5c-3.8,0.1-8.7,0.5-12.9,0.4c0.3-0.5,1.2-0.5,1.8-0.5C320,76.2,324.5,76.1,327.7,76.5z"/>
<g>
	<path class="st3" d="M320,69c0.1,0.1,0.2,0.2,0.3,0.3c0.6,0,1.1-0.2,1.1-0.8C321.2,67.5,319.7,67.8,320,69z"/>
	<path class="st3" d="M306.6,36.5c-0.7-0.4-1.3-0.8-1.9-1.2c-0.8-1-1.2-2.3-1-4.2c0.2-0.7,0.5-1.3,0.7-1.9c0.5-0.5,1-1.1,1.5-1.5
		c0.5-0.3,1.4-0.4,1.4-1.2c-0.1,0-0.3,0-0.4,0c-1.1,0.6-2.1,1.5-3,2.3c-2.6,4,0.5,9.6,4.7,8.9C308.5,36.7,307.1,37,306.6,36.5z"/>
	<path class="st3" d="M307.1,31.4c-0.1,0.5-0.1,1.2,0,1.6c0.6,0.9,1.6,1.3,3.2,1.2c0.6-0.3,1-0.8,1.2-1.4
		C312.1,29.4,308,29.1,307.1,31.4z"/>
	<path class="st3" d="M328.1,25.7c-1.5-0.2-3.9,0.4-4.4,1.9c0.8-0.2,1.3-0.8,2-1.1C326.6,26.2,327.5,26.3,328.1,25.7z"/>
	<path class="st3" d="M314.1,37.7c1.5-1.1,2.6-3.2,2.8-5.6c-0.1-0.9-0.2-1.7-0.5-2.3c-0.1,0-0.1-0.1-0.3-0.1c0,0.1,0,0.3,0.1,0.3
		c0.5,3.4-0.6,5.8-2.6,7.2c-0.5,0.3-1.2,0.5-1.4,1C312.9,38.4,313.7,38.1,314.1,37.7z"/>
	<path class="st3" d="M326.8,38c3.2,1.1,5.4-1.1,6.7-2.9c0.7-1.5,1-4.6-0.1-5.8c0,0.1,0,0.2,0,0.3c0.2,0.9,0.1,2.1,0.1,3.2
		c-0.2,1.1-0.6,1.9-1.1,2.7c-0.8,0.7-1.7,1.4-2.8,1.8C328.9,37.8,327.3,37.4,326.8,38z"/>
	<path class="st3" d="M350,49.1c-0.1-2,0.3-4.1-0.2-5.5c-2.5,0.8-5.7,0.8-7.8,1.9c-0.2,0.3,0,1.1-0.2,1.4c-1.3,0.2-3.1,0-4.4-0.2
		c0-0.9,0-1.8-0.3-2.4c-0.8,0-1.6,0-2.4,0c-0.1-1.4,0-3-0.3-4.2c-0.5-0.4-1.6-0.1-2-0.4c6-2.2,5.9-15.9-1.4-16.6
		c-6.3-0.1-10.6,1.8-11.8,6.9c-0.6-1.6-1.1-3.2-1.8-4.6c-1.2-1.3-3.1-1.9-5.2-2.4c-4.4-0.4-7,1-9,3c-1.6,1.5-2.6,4.1-2.3,7.3
		c0.2,2.1,1.2,3.8,2.1,5c0.8,0.8,1.7,1.5,2.8,1.9c-0.8,0-1.5,0.2-2,0.4c-0.3,0.3-0.2,1.1-0.4,1.5c-1.7,0.1-4.3,0-5.8,0.6
		c-0.1,0.8-0.2,2.1,0.1,2.7c1.4,0.6,4.1-0.2,5.6,0.3c0.2,4.4-0.3,10,1,13.6c2.8,0.7,6.5,0.4,9.9,0.5c-0.1,1.4-0.1,3.3,0.4,4.4
		c0.6,0.4,1.5,0.7,2.4,0.4c0.1,0.8,0.1,1.6,0.4,2.1c0.2,0.2,0.7,0.2,1.1,0.2c-1.7,1.2-0.9,4.7,0.5,5.2c-1.9,0.1-4-0.4-5.4,0.3
		c-0.3,1.7-0.3,4.1,0.2,5.6c4.7,0.3,10.6,0.1,15-0.6c0.7-1.1,0.6-3.5,0.6-4.9c-2-0.4-4.7-0.1-6.8-0.3c0.5-0.6,1.3-1,1.7-1.6
		c0.7-1.3,0.1-3.1-0.5-4c1-0.2,0.9-1.9,0.9-2.8c0.6,0.1,1-0.1,1.3-0.2c0.5-1.1,0.2-3.3,0.4-4.3c2.6-0.1,5.2-0.4,7.5-0.5
		c0.6-1.1,0.5-2.8,0.6-4.4c1.2,0,2.1-0.2,2.8-0.7c0.2-1.1,0.1-2.7,0.1-4c1.7,0,3,0.1,4.7,0c0,0.5,0,0.9,0.2,1.1
		c2.5,0.6,4.9,1.8,7.8,1.6C350.4,51.8,350.1,50.4,350,49.1z M328.8,24.7c0-0.1,0-0.1,0.1-0.1c6.8-0.7,7.4,9.1,4.1,12.7
		c-1.8,1.4-4.7,2.4-7.9,1.7c-1.8-1-3.3-2.4-4.4-4.1C318.8,28.6,322.5,24.9,328.8,24.7z M323.4,40.1c-2.9,0-5.4,0.4-8.5,0.3
		c2.2-1.2,3.2-3.4,4.1-5.9C319.6,37.2,322.1,38.5,323.4,40.1z M302,30.5c1.5-2.5,3.2-4.9,6.9-5.3c2.4-0.3,5.1-0.1,6.6,0.8
		c2.4,3.2,2.6,7.9,0.3,11.2c-0.9,1.3-2.4,1.8-3.8,2.6C305.7,39.7,301.6,37.3,302,30.5z M322.9,69.5c-0.1,0.8-0.7,1.1-1.2,1.4
		c-1.3-0.1-2.3-0.4-2.5-1.6C319.4,67.3,323.2,66.9,322.9,69.5z M324.8,62.4c-3,0.3-6.3,0.3-8.9,0.9c0-0.7,0-1.2-0.1-1.8
		c2.9-0.6,6.2-0.2,9.1-0.7C325,61.4,324.8,61.8,324.8,62.4z M332.8,57.9c-9,0.3-18.4,1.1-27.4,0.5c-0.3-5.2-1.3-10.8-0.2-15.7
		c0.5,3.2,0.3,7.3,0.6,10.8c0.1,1.1-0.1,2.4,0.6,3.2c0.7-0.8,0.2-2.2,0.1-3.3c-0.3-3.4-0.5-7.5-0.4-11.4c9.1-0.3,18.1-0.1,27.2-0.2
		C333.1,47,333.2,52.7,332.8,57.9z M347.1,47.4c0,1.1,0,2.2,0,3.4c-0.6-0.4-1.5-0.5-2.4-0.7c0.2-1.2-0.2-2.6-0.1-4
		c0.8-0.3,1.6-0.5,2.6-0.6C347.5,45.7,347.1,46.9,347.1,47.4z"/>
	<path class="st3" d="M327.2,29.6c-0.8,0.3-1.6,0.7-1.8,1.5c-1.3,3.9,6.1,4.8,5,0.2C329.9,30.3,328.9,29.1,327.2,29.6z"/>
	<path class="st3" d="M318.6,56.9c3.7,0.4,8.2,0,12-0.2c0.6-1.6,0.3-3.9,0.1-5.9c-0.2-2.1-0.2-4.3-0.7-6c-0.9-0.3-1.9-0.2-3-0.1
		c-3,0.1-6.3,0-8.8,0.7C318.5,48.7,318.6,53.4,318.6,56.9z M326.5,46.3c-2.4,0.1-5,0.4-7.1,0.4c0-0.9,1.2-0.5,1.8-0.7
		c2.3-0.3,4.8-0.3,7.2-0.5c0.2,0,0.2-0.1,0.3-0.1c0.1,0,0.1,0,0.2,0c0.2,2.8,0.8,7.2,0.2,10.4c-3-0.1-6-0.1-8.9,0.1
		c-0.3-2.7-0.6-5.4-0.8-8.1c2.5-0.7,6.3-0.1,8.5-1C327.8,46.3,327,46.5,326.5,46.3z"/>
</g>
<g>
	<path class="st0" d="M407.5,53.7c-0.7,0.9-3.7,1-3.7,1c0.2-0.2,0.1-0.8,0.1-0.8c-1.3-0.2-2.7,0.9-2.7,0.9c-0.2-0.3,0-1.1,0-1.1
		c-1.8,0.2-3.4,2.4-3.4,2.4c0.2-1-0.2-1.5-0.2-1.5c0,0.5-1.7,1.5-2.2,2.1c-0.8,0.9-1.2,2.3-1.3,3.5c0,0.6-0.1,1.2-0.2,1.8
		c0,0.1-0.2,0.9-0.1,1c0,0,1.3,1,3.6,1.2c3.8,0.5,5.4-1,5.4-1c-0.3-0.3-1-0.6-1-0.6c3-0.6,3-1.8,3-1.8c-0.2-0.2-0.8-0.5-0.8-0.5
		c1.4-0.4,2-2,2-2c-0.2-0.4-0.8-0.5-0.8-0.5C408.1,55.8,407.6,53.7,407.5,53.7z M402.1,58.7c0,0,0.3,0,0.4,0.2c0,0-0.3,0.7-1,0.9
		c0,0,0.3,0.1,0.4,0.2c0,0,0,0.5-1.4,0.8c0,0,0.4,0.1,0.5,0.3c0,0-0.8,0.8-2.6,0.5c0,0-1.4-0.3-1.9-0.2c0,0,0.5-1.4,0.6-1.9
		s0.2-1.2,0.5-1.4c0.2-0.3,1-0.8,1-1c0,0,0.2,0.2,0.1,0.7c0,0,0.8-1,1.6-1.1c0,0-0.1,0.3,0,0.5c0,0,0.7-0.5,1.3-0.4
		c0,0,0,0.3-0.1,0.4c0,0,1.4,0,1.7-0.4C403.2,56.8,403.4,57.8,402.1,58.7z"/>
	<path class="st0" d="M394.9,45.1c-0.1-1.4-1-3.5-1.5-4.6c-0.8-1.8-1.9-3.6-2.8-4.9c-0.4-0.6-1-1.2-1.5-1.8
		c-1.6-1.8-3.3-3.6-3.7-7.8c0-0.1-0.1-0.3-0.3-0.3c-0.1,0-0.1,0-0.1,0c-0.1,0-0.2,0.1-0.3,0.2c-0.9,1.7-0.9,3.1-0.6,4.1
		c-2.2-2.2-4.6-3.2-7.3-3.2c-1.4,0-2.8,0.3-4.3,0.9c-2.2,0.8-4.3,1.2-6.1,1.2s-4.2-0.4-5.4-2.5c-0.5-0.9-0.6-1.9-0.1-2.7
		c0.6-0.9,1.9-1.7,3.1-1.7c0.4,0,0.7,0.1,0.9,0.2c0.8,0.4,1,1.2,0.9,1.7c-0.1,0.4-0.3,0.8-0.8,0.8c0,0-0.1,0-0.2,0h-0.1
		c-0.1,0-0.1,0.1-0.2,0.1c-0.1,0.1-0.1,0.2-0.1,0.3c0,0.6,0.6,1,1.3,1c0.6,0,1.1-0.3,1.5-0.8s0.7-1.4,0.1-3.1
		c-0.5-1.4-1.6-2.2-3.1-2.2c-1.4,0-3,0.8-3.9,2.1c-1,1.3-1.2,2.9-0.6,4.5c1.4,4.1,6.8,4.2,12.5,4.3c3,0,6.1,0.1,8.8,0.7
		c3.4,0.8,6.4,2.7,8.9,5.7c2.4,2.8,3.8,5.9,4.6,8.1c0.1,0.1,0.2,0.2,0.4,0.2l0,0C395.1,45.6,395.2,45.4,394.9,45.1z"/>
	<path class="st0" d="M407.7,72.7c-0.6-8.6-11.4-9.1-18.6-5.4c3.6-4.9,5.3-10.5,4.8-16.4c-0.4-5.6-2.6-10.3-6.3-13.8
		c-3.4-3.2-7.7-4.9-12.1-4.9c-4.7,0-9,2-12.1,5.7c-3.8,4.7-2.9,8-2.1,10.9c0.7,2.5,1.4,4.8-0.9,7.6c0,0.1,0,0.1,0,0.2
		c0.1,0.1,0.1,0.1,0.2,0.1c1.1-0.2,2.1-1,2.9-2.3c0.4-0.6,0.7-1.3,0.8-1.6c1.9,1.6,4,2.5,6.3,2.5c2.1,0,4.2-0.6,6-1.9
		c1.6-1.2,2.8-2.7,3.1-4.1c0-0.1,0-0.2-0.1-0.2s-0.2,0-0.2,0.1c-1.8,2.5-5.3,4.3-8.5,4.3c-3.1,0-5.4-1.6-6.6-4.5
		c-1.2-3-0.5-5,0.3-6.2c1.1-1.7,3.1-2.5,4.4-2.5h0.1c1.4,0.1,1.8-0.8,2.2-1.8c0.4-1.1,1-2.4,2.9-3.2c-0.8,1.3-0.7,2.3-0.5,3
		c0.2,0.8,0.8,1.3,0.8,1.3c0.1,0,0.1,0,0.2,0c0,0,0.1,0,0.1-0.1c0.4-2.5,2.3-4.1,4.8-4.1c1.8,0,3.8,0.9,5.5,2.5
		c-0.6-0.1-1.3-0.2-1.9-0.2c-2.4,0-4.4,1-5.5,2.8c-1.2,1.9-1.3,4.5-0.2,6.9c0,0.1,0.1,0.1,0.2,0.1s0.1-0.1,0.1-0.2
		c-0.3-1.4-0.3-2.3,0.1-2.7c0.2-0.3,0.6-0.4,1.2-0.4c0.2,0,0.4,0,0.7,0s0.5,0,0.8,0c0.7,0,1.5-0.1,2-0.9c0.8-1.4,2-2.1,3.3-2.1
		c1.4,0,2.9,0.8,4.3,2.4c0.3,0.4,0.4,0.6,0.4,0.8c-0.1,0-0.2-0.2-0.4-0.4c-0.7-1-2.1-2.1-3.6-2.1c-0.9,0-1.7,0.3-2.5,1
		c0,0,0,0.1,0,0.2s0.1,0.1,0.2,0.1c0.3-0.1,0.6-0.1,0.9-0.1c1.6,0,3.4,1.1,4.8,3c2,2.6,3.5,7.5,2,13.2c-0.5-5.1-5.7-7.9-5.8-7.9
		c-0.1-0.1-0.1-0.1-0.2,0c-0.1,0-0.1,0.1,0,0.2c3.1,3.2,4.5,6.1,4.4,9c-0.1,3.4-2.2,6.7-6.3,10.3c-4.2,3.8-10.6,6.4-17.3,7.4
		c0.1-0.1,0.3-0.1,0.4-0.2c3-1,6-2.4,8.6-4.2c3.5-2.5,6.7-5.7,8.9-9.4c1.1-1.7,2.1-4.3,0.4-6c-1.4-1.4-3.6-1-4.5,0.8s-1.1,3.9-2,5.7
		c-0.9,1.9-2,3.7-3.4,5.3c-2.4,2.7-5.3,4.8-8.6,6.2c-0.4,0.1-0.8,0.2-1.2,0.3c0.4-0.2,0.8-0.5,1.1-0.8c1.8-1.4,3-3.4,3.1-5
		c0-0.9-0.2-1.6-0.7-2.1c-0.4-0.5-1.2-0.8-1.9-0.8c-0.9,0-1.7,0.5-1.9,1.3c-0.2,0.7-0.1,1.1,0.1,1.3c0.2,0.2,0.5,0.4,0.9,0.4
		c0.3,0,0.6-0.1,0.8-0.3c0.2-0.1,0.2-0.3,0.2-0.5c0-0.1,0-0.2,0.1-0.3s0.4-0.2,0.6-0.2c0.3,0,0.8,0.2,1,0.6c0.4,0.5,0.2,1.4-0.5,2.5
		c-1.3,2-3.5,3.3-5.7,3.3c-1.5,0-2.7-0.6-3.6-1.6c-1.8-2.1-4.4-3.5-6.5-3.5c-1.4,0-2.4,0.6-2.9,1.8c-0.6,1.8,0,3.5,1.7,4.6
		c-3.5-1-6.6-2.6-9.2-4.8c-2.3-1.9-4.1-3-4.9-3c-0.2,0-0.3,0-0.4,0.1c0,0.1-0.1,0.2-0.1,0.4c0,2.1,9.7,11.1,24.3,11.1
		c4.7,0,9.7-1,14.3-3c4.2-1.7,8-4.2,11-7.2c3.7-2.2,8.5-3.3,8.6,1.4c2.3-0.9,2.1-4,0.5-5.6c2.9-0.4,5,4.3,2.6,6.7
		c3.7-0.5,4.6-4.2,2.9-6.7c7.6,1.7-1.1,5.5,2.1,9.5c-1.4,0.5-2.8-1.2-3.3-2C399.7,79.3,408.3,79.2,407.7,72.7z"/>
</g>
</svg>
