<?xml version="1.0" encoding="utf-8"?>
<!-- Generator: Adobe Illustrator 26.0.1, SVG Export Plug-In . SVG Version: 6.00 Build 0)  -->
<svg version="1.1" id="Layer_1" xmlns="http://www.w3.org/2000/svg" xmlns:xlink="http://www.w3.org/1999/xlink" x="0px" y="0px"
	 viewBox="0 0 1082 111.1" style="enable-background:new 0 0 1082 111.1;" xml:space="preserve">
<style type="text/css">
	.st0{fill:#B8B19F;}
	.st1{fill:#B7B19E;}
	.st2{fill-rule:evenodd;clip-rule:evenodd;fill:#B8B19F;}
</style>
<path class="st0" d="M465.9,47.5c-23,0-385.8,0-403.1,0c-1.1,0-2.3,0-3.3,0c-1.1,0-2.2-0.1-3.2,0c-2.1,0.1-4,0.3-5.9,0.4
	c-1.9,0.1-3.6,0.3-5.2,0.4c-1.6,0.1-3.1,0.2-4.4,0.4c-2.7,0.2-4.7,0.4-6.2,0.5c-1.4,0.1-2.2,0.2-2.2,0.2s0.8,0.1,2.2,0.2
	c1.4,0.1,3.5,0.3,6.2,0.5c1.3,0.1,2.8,0.2,4.4,0.4c1.6,0.1,3.3,0.2,5.2,0.4c1.8,0.1,3.8,0.3,5.9,0.4c0.1,0,0.2,0,0.3,0
	c-1,0.2-2.7,0.8-3.6,2c0,0,0.5,0.3,1.1,0.3c-0.7,0.1-2.2,0.7-3.4,2.6c0,0,0.9,0.1,1.6,0.1c-0.9,0.3-2.8,1.1-3.8,3.1
	c0,0,0.9,0.2,1.4-0.1c0,0-3.8,4-5.2,2.5c0,0,2.6,3,7.2,0.8c0,0-0.5,0.6-0.2,1.4c0,0,2.2,0,4.3-3.7c0,0-0.4,0.9,0.1,1.8
	c0,0,1.3-1,1.8-2.1c0.6-1.2,0.9-2.8,1.5-3.3c0,0-0.4,0.9,0.1,1.7c0,0,1-0.4,1.4-1.1c0.4-0.7,1.3-3.7,4.1-4.2c0.9-0.2,1.5-0.3,2-0.3
	c2.3,2.6,2.7,6.9,0.8,10c-3.2,5.2-9.7,6.6-15.3,4.9c-3.1-1-5.8-2.6-8.3-4.8c-2.3-2-4.1-4.3-6.2-6.6c-1.7-1.9-3.9-4-6.5-4.4
	c-2.3-0.3-4.5,0.3-6.1,2c0.7-2.4,2.4-4.6,4.6-5.9c4.4-2.9,9.7-3,14.7-2.8c5.4,0.2,11.1,0.8,16.2-1.3c3.9-1.6,7.4-4.4,8.7-8.6
	c0.4-1.4-1.7-2-2.1-0.6c-1.2,3.8-4.7,6.4-8.4,7.5c1.4-0.8,2-1.5,2-1.5l0,0c1-0.9,1.9-1.9,2.3-3.2c0.9-2.4,0.5-4.5-0.7-6.7
	c-1.3-2.3-4.5-3.4-6.7-1.8c-0.4,0.3-1.2,1.1-0.6,1.6c0.5,0.5,0.7-0.1,0.7-0.5c0-0.6-0.1-0.9,0.5-1.2c0.5-0.2,1.1-0.2,1.6,0
	c1,0.5,2,2,1.7,3.2c-0.2,0.7-0.7,0.9-1.3,1.2c-0.8,0.4-1.5,1-2.1,1.7c-1.3,1.7-1.7,3.7-3.2,5.3c-1.3,1.4-3.2,2.5-5.1,2.7
	c0,0,0,0-0.1,0c1.5-0.5,2.8-1.3,3.4-2.8c0.2-0.6,0.5-2.1-0.2-2.6c-0.9-0.5-0.2,0.5-0.2,0.7c0.1,0.7-1,1.2-1.6,1.3
	c-0.8,0.4-1.8,0.1-2.8,0.3c-1.8,0.4-3.4,1.7-5.1,2.4c-0.3,0.1-0.6,0.2-0.8,0.4c0.8-0.4-0.8-0.4-1.1-0.4c-0.6,0.1-1.2,0.4-1.8,0.6
	c-0.6,0.2-1.1,0.3-1.7,0.4c-3.6,0.6-7.2,1.8-9.7,4.5c-2.9,3.1-4.6,7.5-3,11.6c0,0.1,0.1,0.1,0.1,0.2c0.1,0.7,0.4,1.3,0.7,1.9
	c1.2,2.1,3.7,3.9,6.3,3.6c2.3-0.3,5-1.9,4.5-4.6c-0.4-2.1-3-3.9-5-2.5c-1.1,0.8,0,2.8,1.1,1.9c0.6-0.5,1.3,0,1.6,0.7
	s-0.3,1.4-0.9,1.8c-1.6,0.9-3.5,0.5-4.8-0.8s-1.9-3.1-1.2-4.8c0.6-1.6,2.3-3,4.1-3c2.8,0,5,2.1,6.7,4.1c2,2.3,3.9,4.6,6.2,6.6
	c4.7,4,10.8,6.8,17.1,5.7c5.1-0.9,10.3-4.8,11.1-10.3c0.5-3.1-0.4-6.3-2.4-8.6c16.3,0,376.7,0,397.1,0l-0.4-0.7
	c-0.4-0.7-0.4-1.7,0-2.4L465.9,47.5z M58.3,54.7c-2.2,2.2-6.8,8.1-10.7,7.4c0,0,3.2-0.6,7.6-6.9c0,0,2.9-4.7,9.7-3.6
	C64.9,51.6,60.5,52.5,58.3,54.7z"/>
<g>
	<path class="st0" d="M616.6,48.2c0.4,0.7,0.4,1.7,0,2.4l-0.4,0.7c20.4,0,380.8,0,397.1,0c-1.9,2.3-2.8,5.5-2.4,8.6
		c0.8,5.4,5.9,9.4,11.1,10.3c6.3,1.1,12.4-1.7,17.1-5.7c2.3-2,4.2-4.3,6.2-6.6c1.8-2,3.9-4.1,6.7-4.1c1.8,0,3.4,1.4,4.1,3
		c0.7,1.7,0.1,3.5-1.2,4.8c-1.3,1.3-3.2,1.7-4.8,0.8c-0.6-0.3-1.2-1.1-0.9-1.8c0.3-0.7,1-1.1,1.6-0.7c1.1,0.9,2.3-1.1,1.1-1.9
		c-1.9-1.5-4.6,0.3-5,2.5c-0.5,2.7,2.3,4.3,4.5,4.6c2.6,0.3,5-1.5,6.3-3.6c0.4-0.6,0.6-1.2,0.7-1.9c0-0.1,0.1-0.1,0.1-0.2
		c1.6-4.1-0.1-8.6-3-11.6c-2.6-2.7-6.1-3.9-9.7-4.5c-0.6-0.1-1.1-0.3-1.7-0.4c-0.6-0.2-1.2-0.5-1.8-0.6c-0.3-0.1-1.9,0-1.1,0.4
		c-0.3-0.1-0.5-0.2-0.8-0.4c-1.7-0.7-3.3-2-5.1-2.4c-1-0.2-2,0.2-2.9-0.1c-0.6-0.1-1.6-0.6-1.6-1.3c0-0.3,0.8-1.2-0.2-0.7
		c-0.7,0.4-0.5,2-0.2,2.6c0.6,1.5,1.9,2.4,3.4,2.8c0,0,0,0-0.1,0c-1.9-0.3-3.8-1.4-5.1-2.7c-1.5-1.5-1.9-3.6-3.2-5.3
		c-0.5-0.7-1.3-1.3-2.1-1.7c-0.5-0.3-1.1-0.5-1.3-1.2c-0.3-1.2,0.7-2.7,1.7-3.2c0.5-0.2,1.1-0.2,1.6,0c0.6,0.3,0.5,0.6,0.5,1.2
		c0,0.3,0.2,1,0.7,0.5s-0.2-1.3-0.6-1.6c-2.2-1.6-5.5-0.5-6.7,1.8c-1.2,2.2-1.7,4.3-0.7,6.7c0.5,1.2,1.3,2.3,2.3,3.2l0,0
		c0,0,0.6,0.7,2,1.5c-3.7-1.2-7.2-3.7-8.4-7.5c-0.4-1.4-2.6-0.8-2.1,0.6c1.3,4.2,4.7,7,8.7,8.6c5.1,2.1,10.9,1.5,16.2,1.3
		c5-0.2,10.3-0.1,14.7,2.5c2.1,1.3,3.9,3.5,4.6,5.9c-1.6-1.6-3.8-2.3-6.1-2c-2.6,0.4-4.8,2.5-6.5,4.4c-2,2.2-3.9,4.6-6.2,6.6
		c-2.4,2.1-5.2,3.8-8.3,4.8c-5.6,1.8-12.1,0.4-15.3-4.9c-1.9-3.1-1.5-7.4,0.8-10c0.5,0.1,1.1,0.2,2,0.3c2.8,0.6,3.7,3.5,4.1,4.2
		c0.4,0.7,1.4,1.1,1.4,1.1c0.5-0.7,0.1-1.7,0.1-1.7c0.6,0.5,1,2.1,1.5,3.3c0.6,1.2,1.8,2.1,1.8,2.1c0.6-1,0.1-1.8,0.1-1.8
		c2.1,3.8,4.3,3.7,4.3,3.7c0.3-0.8-0.2-1.4-0.2-1.4c4.6,2.1,7.2-0.8,7.2-0.8c-1.4,1.5-5.2-2.5-5.2-2.5c0.5,0.3,1.4,0.1,1.4,0.1
		c-1-2-2.9-2.8-3.8-3.1c0.7,0.1,1.6-0.1,1.6-0.1c-1.2-1.9-2.8-2.4-3.4-2.6c0.7,0,1.1-0.3,1.1-0.3c-0.8-1.2-2.5-1.8-3.6-2
		c0.1,0,0.2,0,0.3,0c2.1-0.1,4-0.3,5.9-0.4c1.9-0.1,3.6-0.3,5.2-0.4c1.6-0.1,3.1-0.2,4.4-0.4c2.7-0.2,4.7-0.4,6.2-0.5
		c1.4-0.1,2.2-0.2,2.2-0.2s-0.8-0.1-2.2-0.2c-1.4-0.1-3.5-0.3-6.2-0.5c-1.3-0.1-2.8-0.2-4.4-0.4c-1.6-0.1-3.3-0.2-5.2-0.4
		c-1.8-0.1-3.8-0.3-5.9-0.4c-1-0.1-2.1-0.1-3.2,0c-1.1,0-2.2,0-3.3,0c-17.2,0-380.1,0-403.1,0L616.6,48.2z M1017.2,51.6
		c6.8-1.1,9.7,3.6,9.7,3.6c4.4,6.4,7.6,6.9,7.6,6.9c-4,0.7-8.6-5.2-10.7-7.4C1021.6,52.5,1017.2,51.6,1017.2,51.6z"/>
</g>
<g>
	<path class="st0" d="M457.2,57.8c0,0-0.6,0.1-0.8,0.5c0,0,0.6,1.6,2,2c0,0-0.6,0.3-0.8,0.5c0,0,0,1.2,3,1.8c0,0-0.7,0.3-1,0.6
		c0,0,1.6,1.5,5.4,1c2.3-0.2,3.6-1.2,3.6-1.2c0.1-0.1-0.1-0.9-0.1-1c-0.1-0.6-0.2-1.2-0.2-1.8c-0.1-1.2-0.5-2.6-1.3-3.5
		c-0.5-0.6-2.2-1.6-2.2-2.1c0,0-0.4,0.5-0.2,1.5c0,0-1.6-2.2-3.4-2.4c0,0,0.2,0.8,0,1.1c0,0-1.4-1.1-2.7-0.9c0,0-0.1,0.6,0.1,0.8
		c0,0-3-0.1-3.7-1C454.8,53.7,454.3,55.8,457.2,57.8z M459.2,56.8c0.3,0.4,1.7,0.4,1.7,0.4c-0.1-0.1-0.1-0.4-0.1-0.4
		c0.6-0.1,1.3,0.4,1.3,0.4c0.1-0.2,0-0.5,0-0.5c0.8,0.1,1.6,1.1,1.6,1.1c-0.1-0.5,0.1-0.7,0.1-0.7c0,0.2,0.8,0.7,1,1
		c0.3,0.2,0.4,0.9,0.5,1.4s0.6,1.9,0.6,1.9c-0.5-0.1-1.9,0.2-1.9,0.2c-1.8,0.3-2.6-0.5-2.6-0.5c0.1-0.2,0.5-0.3,0.5-0.3
		c-1.4-0.3-1.4-0.8-1.4-0.8c0.1-0.1,0.4-0.2,0.4-0.2c-0.7-0.2-1-0.9-1-0.9c0.1-0.2,0.4-0.2,0.4-0.2C459,57.8,459.2,56.8,459.2,56.8z
		"/>
	<path class="st0" d="M467.5,45.6L467.5,45.6c0.2,0,0.3-0.1,0.4-0.2c0.8-2.2,2.2-5.3,4.6-8.1c2.5-3,5.5-4.9,8.9-5.7
		c2.7-0.6,5.8-0.7,8.8-0.7c5.7-0.1,11.1-0.2,12.5-4.3c0.6-1.6,0.4-3.2-0.6-4.5c-0.9-1.3-2.5-2.1-3.9-2.1c-1.5,0-2.6,0.8-3.1,2.2
		c-0.6,1.7-0.3,2.6,0.1,3.1s0.9,0.8,1.5,0.8c0.7,0,1.3-0.4,1.3-1c0-0.1,0-0.2-0.1-0.3c-0.1,0-0.1-0.1-0.2-0.1h-0.1
		c-0.1,0-0.2,0-0.2,0c-0.5,0-0.7-0.4-0.8-0.8c-0.1-0.5,0.1-1.3,0.9-1.7c0.2-0.1,0.5-0.2,0.9-0.2c1.2,0,2.5,0.8,3.1,1.7
		c0.5,0.8,0.4,1.8-0.1,2.7c-1.2,2.1-3.6,2.5-5.4,2.5s-3.9-0.4-6.1-1.2c-1.5-0.6-2.9-0.9-4.3-0.9c-2.7,0-5.1,1-7.3,3.2
		c0.3-1,0.3-2.4-0.6-4.1c-0.1-0.1-0.2-0.2-0.3-0.2c0,0,0,0-0.1,0c-0.2,0-0.3,0.2-0.3,0.3c-0.4,4.2-2.1,6-3.7,7.8
		c-0.5,0.6-1.1,1.2-1.5,1.8c-0.9,1.3-2,3.1-2.8,4.9c-0.5,1.1-1.4,3.2-1.5,4.6C467.2,45.4,467.3,45.6,467.5,45.6z"/>
	<path class="st0" d="M462.7,74.4c-0.5,0.8-1.9,2.5-3.3,2c3.2-4-5.5-7.8,2.1-9.5c-1.7,2.5-0.8,6.2,2.9,6.7c-2.4-2.4-0.3-7.1,2.6-6.7
		c-1.6,1.6-1.8,4.7,0.5,5.6c0.1-4.7,4.9-3.6,8.6-1.4c3,3,6.8,5.5,11,7.2c4.6,2,9.6,3,14.3,3c14.6,0,24.3-9,24.3-11.1
		c0-0.2-0.1-0.3-0.1-0.4c-0.1-0.1-0.2-0.1-0.4-0.1c-0.8,0-2.6,1.1-4.9,3c-2.6,2.2-5.7,3.8-9.2,4.8c1.7-1.1,2.3-2.8,1.7-4.6
		c-0.5-1.2-1.5-1.8-2.9-1.8c-2.1,0-4.7,1.4-6.5,3.5c-0.9,1-2.1,1.6-3.6,1.6c-2.2,0-4.4-1.3-5.7-3.3c-0.7-1.1-0.9-2-0.5-2.5
		c0.2-0.4,0.7-0.6,1-0.6c0.2,0,0.5,0.1,0.6,0.2s0.1,0.2,0.1,0.3c0,0.2,0,0.4,0.2,0.5c0.2,0.2,0.5,0.3,0.8,0.3c0.4,0,0.7-0.2,0.9-0.4
		c0.2-0.2,0.3-0.6,0.1-1.3c-0.2-0.8-1-1.3-1.9-1.3c-0.7,0-1.5,0.3-1.9,0.8c-0.5,0.5-0.7,1.2-0.7,2.1c0.1,1.6,1.3,3.6,3.1,5
		c0.3,0.3,0.7,0.6,1.1,0.8c-0.4-0.1-0.8-0.2-1.2-0.3c-3.3-1.4-6.2-3.5-8.6-6.2c-1.4-1.6-2.5-3.4-3.4-5.3c-0.9-1.8-1.1-3.9-2-5.7
		s-3.1-2.2-4.5-0.8c-1.7,1.7-0.7,4.3,0.4,6c2.2,3.7,5.4,6.9,8.9,9.4c2.6,1.8,5.6,3.2,8.6,4.2c0.1,0.1,0.3,0.1,0.4,0.2
		c-6.7-1-13.1-3.6-17.3-7.4c-4.1-3.6-6.2-6.9-6.3-10.3c-0.1-2.9,1.3-5.8,4.4-9c0.1-0.1,0.1-0.2,0-0.2c-0.1-0.1-0.1-0.1-0.2,0
		c-0.1,0-5.3,2.8-5.8,7.9c-1.5-5.7,0-10.6,2-13.2c1.4-1.9,3.2-3,4.8-3c0.3,0,0.6,0,0.9,0.1c0.1,0,0.2,0,0.2-0.1s0-0.2,0-0.2
		c-0.8-0.7-1.6-1-2.5-1c-1.5,0-2.9,1.1-3.6,2.1c-0.2,0.2-0.3,0.4-0.4,0.4c0-0.2,0.1-0.4,0.4-0.8c1.4-1.6,2.9-2.4,4.3-2.4
		c1.3,0,2.5,0.7,3.3,2.1c0.5,0.8,1.3,0.9,2,0.9c0.3,0,0.5,0,0.8,0s0.5,0,0.7,0c0.6,0,1,0.1,1.2,0.4c0.4,0.4,0.4,1.3,0.1,2.7
		c0,0.1,0,0.2,0.1,0.2s0.2,0,0.2-0.1c1.1-2.4,1-5-0.2-6.9c-1.1-1.8-3.1-2.8-5.5-2.8c-0.6,0-1.3,0.1-1.9,0.2c1.7-1.6,3.7-2.5,5.5-2.5
		c2.5,0,4.4,1.6,4.8,4.1c0,0.1,0.1,0.1,0.1,0.1c0.1,0,0.1,0,0.2,0c0,0,0.6-0.5,0.8-1.3c0.2-0.7,0.3-1.7-0.5-3
		c1.9,0.8,2.5,2.1,2.9,3.2c0.4,1,0.8,1.9,2.2,1.8h0.1c1.3,0,3.3,0.8,4.4,2.5c0.8,1.2,1.5,3.2,0.3,6.2c-1.2,2.9-3.5,4.5-6.6,4.5
		c-3.2,0-6.7-1.8-8.5-4.3c0-0.1-0.1-0.1-0.2-0.1s-0.1,0.1-0.1,0.2c0.3,1.4,1.5,2.9,3.1,4.1c1.8,1.3,3.9,1.9,6,1.9
		c2.3,0,4.4-0.9,6.3-2.5c0.1,0.3,0.4,1,0.8,1.6c0.8,1.3,1.8,2.1,2.9,2.3c0.1,0,0.1,0,0.2-0.1c0-0.1,0-0.1,0-0.2
		c-2.3-2.8-1.6-5.1-0.9-7.6c0.8-2.9,1.7-6.2-2.1-10.9c-3.1-3.7-7.4-5.7-12.1-5.7c-4.4,0-8.7,1.7-12.1,4.9c-3.7,3.5-5.9,8.2-6.3,13.8
		c-0.5,5.9,1.2,11.5,4.8,16.4c-7.2-3.7-18-3.2-18.6,5.4C454.1,79.2,462.7,79.3,462.7,74.4z"/>
</g>
<path class="st1" d="M541.6,81.6c-0.3-0.3-0.9-0.3-1.2,0l-3.6,3.6c-0.3,0.3-0.3,0.9,0,1.2l3.6,3.6c0.3,0.3,0.9,0.3,1.2,0l3.6-3.6
	c0.3-0.3,0.3-0.9,0-1.2L541.6,81.6z"/>
<g>
	<path class="st0" d="M627.1,53.7c-0.7,0.9-3.7,1-3.7,1c0.2-0.2,0.1-0.8,0.1-0.8c-1.3-0.2-2.7,0.9-2.7,0.9c-0.2-0.3,0-1.1,0-1.1
		c-1.8,0.2-3.4,2.4-3.4,2.4c0.2-1-0.2-1.5-0.2-1.5c0,0.5-1.7,1.5-2.2,2.1c-0.8,0.9-1.2,2.3-1.3,3.5c0,0.6-0.1,1.2-0.2,1.8
		c0,0.1-0.2,0.9-0.1,1c0,0,1.3,1,3.6,1.2c3.8,0.5,5.4-1,5.4-1c-0.3-0.3-1-0.6-1-0.6c3-0.6,3-1.8,3-1.8c-0.2-0.2-0.8-0.5-0.8-0.5
		c1.4-0.4,2-2,2-2c-0.2-0.4-0.8-0.5-0.8-0.5C627.7,55.8,627.2,53.7,627.1,53.7z M621.7,58.7c0,0,0.3,0,0.4,0.2c0,0-0.3,0.7-1,0.9
		c0,0,0.3,0.1,0.4,0.2c0,0,0,0.5-1.4,0.8c0,0,0.4,0.1,0.5,0.3c0,0-0.8,0.8-2.6,0.5c0,0-1.4-0.3-1.9-0.2c0,0,0.5-1.4,0.6-1.9
		c0.1-0.5,0.2-1.2,0.5-1.4c0.2-0.3,1-0.8,1-1c0,0,0.2,0.2,0.1,0.7c0,0,0.8-1,1.6-1.1c0,0-0.1,0.3,0,0.5c0,0,0.7-0.5,1.3-0.4
		c0,0,0,0.3-0.1,0.4c0,0,1.4,0,1.7-0.4C622.8,56.8,623,57.8,621.7,58.7z"/>
	<path class="st0" d="M614.5,45.1c-0.1-1.4-1-3.5-1.5-4.6c-0.8-1.8-1.9-3.6-2.8-4.9c-0.4-0.6-1-1.2-1.5-1.8
		c-1.6-1.8-3.3-3.6-3.7-7.8c0-0.1-0.1-0.3-0.3-0.3c-0.1,0-0.1,0-0.1,0c-0.1,0-0.2,0.1-0.3,0.2c-0.9,1.7-0.9,3.1-0.6,4.1
		c-2.2-2.2-4.6-3.2-7.3-3.2c-1.4,0-2.8,0.3-4.3,0.9c-2.2,0.8-4.3,1.2-6.1,1.2s-4.2-0.4-5.4-2.5c-0.5-0.9-0.6-1.9-0.1-2.7
		c0.6-0.9,1.9-1.7,3.1-1.7c0.4,0,0.7,0.1,0.9,0.2c0.8,0.4,1,1.2,0.9,1.7c-0.1,0.4-0.3,0.8-0.8,0.8c0,0-0.1,0-0.2,0h-0.1
		c-0.1,0-0.1,0.1-0.2,0.1c-0.1,0.1-0.1,0.2-0.1,0.3c0,0.6,0.6,1,1.3,1c0.6,0,1.1-0.3,1.5-0.8c0.4-0.5,0.7-1.4,0.1-3.1
		c-0.5-1.4-1.6-2.2-3.1-2.2c-1.4,0-3,0.8-3.9,2.1c-1,1.3-1.2,2.9-0.6,4.5c1.4,4.1,6.8,4.2,12.5,4.3c3,0,6.1,0.1,8.8,0.7
		c3.4,0.8,6.4,2.7,8.9,5.7c2.4,2.8,3.8,5.9,4.6,8.1c0.1,0.1,0.2,0.2,0.4,0.2l0,0C614.7,45.6,614.8,45.4,614.5,45.1z"/>
	<path class="st0" d="M627.3,72.7c-0.6-8.6-11.4-9.1-18.6-5.4c3.6-4.9,5.3-10.5,4.8-16.4c-0.4-5.6-2.6-10.3-6.3-13.8
		c-3.4-3.2-7.7-4.9-12.1-4.9c-4.7,0-9,2-12.1,5.7c-3.8,4.7-2.9,8-2.1,10.9c0.7,2.5,1.4,4.8-0.9,7.6c0,0.1,0,0.1,0,0.2
		c0.1,0.1,0.1,0.1,0.2,0.1c1.1-0.2,2.1-1,2.9-2.3c0.4-0.6,0.7-1.3,0.8-1.6c1.9,1.6,4,2.5,6.3,2.5c2.1,0,4.2-0.6,6-1.9
		c1.6-1.2,2.8-2.7,3.1-4.1c0-0.1,0-0.2-0.1-0.2c-0.1,0-0.2,0-0.2,0.1c-1.8,2.5-5.3,4.3-8.5,4.3c-3.1,0-5.4-1.6-6.6-4.5
		c-1.2-3-0.5-5,0.3-6.2c1.1-1.7,3.1-2.5,4.4-2.5h0.1c1.4,0.1,1.8-0.8,2.2-1.8c0.4-1.1,1-2.4,2.9-3.2c-0.8,1.3-0.7,2.3-0.5,3
		c0.2,0.8,0.8,1.3,0.8,1.3c0.1,0,0.1,0,0.2,0c0,0,0.1,0,0.1-0.1c0.4-2.5,2.3-4.1,4.8-4.1c1.8,0,3.8,0.9,5.5,2.5
		c-0.6-0.1-1.3-0.2-1.9-0.2c-2.4,0-4.4,1-5.5,2.8c-1.2,1.9-1.3,4.5-0.2,6.9c0,0.1,0.1,0.1,0.2,0.1c0.1,0,0.1-0.1,0.1-0.2
		c-0.3-1.4-0.3-2.3,0.1-2.7c0.2-0.3,0.6-0.4,1.2-0.4c0.2,0,0.4,0,0.7,0s0.5,0,0.8,0c0.7,0,1.5-0.1,2-0.9c0.8-1.4,2-2.1,3.3-2.1
		c1.4,0,2.9,0.8,4.3,2.4c0.3,0.4,0.4,0.6,0.4,0.8c-0.1,0-0.2-0.2-0.4-0.4c-0.7-1-2.1-2.1-3.6-2.1c-0.9,0-1.7,0.3-2.5,1
		c0,0,0,0.1,0,0.2s0.1,0.1,0.2,0.1c0.3-0.1,0.6-0.1,0.9-0.1c1.6,0,3.4,1.1,4.8,3c2,2.6,3.5,7.5,2,13.2c-0.5-5.1-5.7-7.9-5.8-7.9
		c-0.1-0.1-0.1-0.1-0.2,0c-0.1,0-0.1,0.1,0,0.2c3.1,3.2,4.5,6.1,4.4,9c-0.1,3.4-2.2,6.7-6.3,10.3c-4.2,3.8-10.6,6.4-17.3,7.4
		c0.1-0.1,0.3-0.1,0.4-0.2c3-1,6-2.4,8.6-4.2c3.5-2.5,6.7-5.7,8.9-9.4c1.1-1.7,2.1-4.3,0.4-6c-1.4-1.4-3.6-1-4.5,0.8
		c-0.9,1.8-1.1,3.9-2,5.7c-0.9,1.9-2,3.7-3.4,5.3c-2.4,2.7-5.3,4.8-8.6,6.2c-0.4,0.1-0.8,0.2-1.2,0.3c0.4-0.2,0.8-0.5,1.1-0.8
		c1.8-1.4,3-3.4,3.1-5c0-0.9-0.2-1.6-0.7-2.1c-0.4-0.5-1.2-0.8-1.9-0.8c-0.9,0-1.7,0.5-1.9,1.3c-0.2,0.7-0.1,1.1,0.1,1.3
		c0.2,0.2,0.5,0.4,0.9,0.4c0.3,0,0.6-0.1,0.8-0.3c0.2-0.1,0.2-0.3,0.2-0.5c0-0.1,0-0.2,0.1-0.3c0.1-0.1,0.4-0.2,0.6-0.2
		c0.3,0,0.8,0.2,1,0.6c0.4,0.5,0.2,1.4-0.5,2.5c-1.3,2-3.5,3.3-5.7,3.3c-1.5,0-2.7-0.6-3.6-1.6c-1.8-2.1-4.4-3.5-6.5-3.5
		c-1.4,0-2.4,0.6-2.9,1.8c-0.6,1.8,0,3.5,1.7,4.6c-3.5-1-6.6-2.6-9.2-4.8c-2.3-1.9-4.1-3-4.9-3c-0.2,0-0.3,0-0.4,0.1
		c0,0.1-0.1,0.2-0.1,0.4c0,2.1,9.7,11.1,24.3,11.1c4.7,0,9.7-1,14.3-3c4.2-1.7,8-4.2,11-7.2c3.7-2.2,8.5-3.3,8.6,1.4
		c2.3-0.9,2.1-4,0.5-5.6c2.9-0.4,5,4.3,2.6,6.7c3.7-0.5,4.6-4.2,2.9-6.7c7.6,1.7-1.1,5.5,2.1,9.5c-1.4,0.5-2.8-1.2-3.3-2
		C619.3,79.3,627.9,79.2,627.3,72.7z"/>
</g>
<g>
	<path class="st2" d="M521.1,31.3c0.2-0.2,0.3-0.5,0.1-0.9C520.3,30,520.2,31.6,521.1,31.3z"/>
	<path class="st2" d="M531.9,35.1c-2.3,0.1-5,2.1-7.4,2.7c-0.8-1.7-1.3-4.3-2.6-5.1c0,1.5,1.5,4.5,2.5,5.9
		C526.2,37.6,530.1,36.5,531.9,35.1z"/>
	<path class="st2" d="M534.8,53c-1.1,0.2-1.9,1.1-2.6,1.6C533.1,55.1,534.6,53.7,534.8,53z"/>
	<path class="st2" d="M526,42.6c-0.1,0-0.2-0.1-0.3,0c1.2,3.7,2.8,8.2,4.8,11.5c0.1-1.5-0.9-3.2-1.6-4.9
		C528.1,46.9,527.1,44.5,526,42.6z"/>
	<path class="st2" d="M531.8,39.1c0.1,0,0.2,0.1,0.3,0c0.1,0,0.1,0,0.1,0.1c3.9-1.4,8.3-3,12.1-4.6c0.4-0.2,1.4-0.3,1.3-1
		c-4.5,1.4-9.3,3.7-13.8,5.5C531.8,39,531.7,39,531.8,39.1z"/>
	<path class="st2" d="M532.8,58.9c1-0.2,2.4-0.9,3-1.5C535,57.4,533.1,58,532.8,58.9z"/>
	<path class="st2" d="M548.3,47.7c-0.3-0.2-1.7,0.1-1.3,0.8C547.4,48.3,548.3,48.3,548.3,47.7z"/>
	<path class="st2" d="M561.2,51.1c-3.7-7.9-5.9-16-9.3-23.5c-1.7-3.8-3.4-7.6-5.4-11c-1.7-0.1-3.9,0.2-5.9,1.5
		c-2.5,2.2-3.7,5.2-6.6,7.2c-4.8,3.1-9.2,0.9-13.4,1.3c-0.8,0.1-2,1-2.7,0.9c-0.1,0.1-0.2,0.2-0.2,0.4c-1.9,1.4-3.8,2.9-3.9,5.1
		c2.8,7.7,6.2,15.5,9.4,23.1c3.2,7.5,6.1,15.5,10.2,22.2c2.8,0,5.6-2.3,8-3.5c2.2-1.9,5.1-3.5,7.7-5.2c2.1-2,3.6-4.4,6.4-6.1
		c1.2-0.5,2.3-1,3.3-1.2c2.4,0,4.7,2.3,7.4,0.4C564.7,58.7,563,54.9,561.2,51.1z M559.8,51.8c-0.7,0.7-2.1,1-3.2,1.6
		c-0.3-0.4-0.8-1.4-0.9-1.8c0.9-0.5,2.1-1.2,3.2-1.5C559.2,50.7,559.5,51.1,559.8,51.8z M558.3,48.3c-0.9,0.7-2.6,1-3.5,1.7
		c-0.4-0.4-0.6-1.4-1-1.9c0.8-0.7,2.6-1.4,3.7-1.7C557.9,46.8,557.8,47.6,558.3,48.3z M555.8,42.4c0.3,0.4,0.7,1.2,0.7,1.8
		c-0.9,0.7-2.4,1.2-3.6,1.7c-0.3-0.4-0.6-1.5-0.9-2.2C553.2,43.3,554.7,42.2,555.8,42.4z M554.8,40.3c-0.9,0.6-2.2,1-3.3,1.5
		c-0.3-0.7-0.6-1.5-0.9-2.2c0.9-0.6,2.4-1,3.5-1.4C554.3,39,554.4,39.6,554.8,40.3z M551.8,47c-6.5,3.4-14.4,6.2-21,9.5
		c-2.2-4.9-4.4-9.7-6.5-14.8c-0.1-0.1-0.1-0.2,0-0.3c7.1-2.6,15-5.9,21.8-9.2C548.1,37.1,549.7,42,551.8,47z M552.4,34.4
		c0.2,0.6,0.7,1.4,0.7,2c-1.1,0.4-2.5,1.1-3.2,1.5c-0.4-0.3-0.9-1.4-0.9-2C549.6,35.3,551.3,34.8,552.4,34.4z M551.7,32.5
		c-1.2,0.4-2.3,1.5-3.4,1.5c-0.2-0.6-0.7-1.3-0.7-1.9c0.8-0.6,2.5-1.1,3.5-1.3C551.3,31.2,551.6,32,551.7,32.5z M550,28.7
		c-1.2,0.4-2.1,1.2-3.2,1.4c-0.2-0.7-0.8-1.5-0.8-2.1c1.1-0.4,2.1-0.8,3.3-1.2C549.5,27.3,550,28.1,550,28.7z M548.5,25.2
		c-1,0.2-2.3,1-3.2,1.2c-0.1-0.5-0.3-1.1-0.6-1.7c0.8-0.6,2.1-0.7,2.9-1.4C548,23.6,548.3,24.6,548.5,25.2z M545.9,19.9
		c0.3,0.3,0.5,1.1,0.8,1.5c-0.5,0.6-2,1.1-2.9,1.3c-0.4-0.3-0.5-1.1-0.8-1.6C543.5,20.5,545.1,20,545.9,19.9z M518.8,28.1
		c0.7-0.3,1.3-0.5,2-0.7c4.3,0,8,1.5,13.3-1c3.1-2,4.5-4.6,6.7-7c1.3,3.5,3,7.1,4.4,10.7c-7,3.5-14.6,6.3-21.7,9.6
		c-1.4-3.7-3.1-7.5-4.7-11.3C518.8,28.3,518.7,28.2,518.8,28.1z M515.2,32.4c0.7-0.5,2-1.2,2.9-1.4c0.3,0.3,0.5,1.1,0.6,1.5
		c-0.9,0.5-2,1.2-2.8,1.4C515.7,33.6,515.5,32.9,515.2,32.4z M516.6,35.5c0.8-0.6,1.9-0.7,2.9-1.2c0.2,0.4,0.5,1.4,0.9,2
		c-1.1,0.4-2.1,0.9-3.1,1C517.1,36.7,516.9,36.2,516.6,35.5z M518.1,39.2c1-0.3,2.1-0.8,3.2-1.3c0.4,0.4,0.8,1.5,0.9,2
		c-0.9,0.7-2.1,0.8-3.1,1.2C518.7,40.5,518.3,40,518.1,39.2z M519.8,43.2c1.1-0.5,2-0.7,3.1-1.2c0.3,0.7,0.6,1.3,0.9,2
		c-0.8,0.6-2.2,0.9-3.1,1.2C520.4,44.5,520.1,43.8,519.8,43.2z M521.5,47.8c0.9-0.6,2.3-1,3.4-1.5c0.3,0.7,0.4,1.4,0.7,2.2
		c-1.1,0.5-2.3,0.7-3.2,1.3C522.1,49.1,521.9,48.2,521.5,47.8z M523.1,51.4c1.1-0.4,2.5-1.4,3.4-1.2c0.4,0.7,0.4,1.3,0.8,2.1
		c-1.1,0.5-2.3,1-3.3,1.2C523.7,52.8,523.4,52.1,523.1,51.4z M525,55.8c0.9-0.4,2.5-1,3.4-1.5c0.2,0.7,0.8,1.5,0.8,2.1
		c-0.9,0.6-2.5,0.9-3.4,1.5C525.6,57.2,525,56.4,525,55.8z M526.5,59.9c0.9-0.7,2.3-1.2,3.5-1.7c0.2,0.6,0.5,1.2,0.7,1.8
		c-0.7,0.7-2.4,1.3-3.5,1.6C527,61.2,526.8,60.4,526.5,59.9z M528.2,63.2c0.8-0.7,2.4-0.9,3.1-1.4c0.4,0.8,0.4,1.4,0.8,2.1
		c-1.1,0.4-2.3,1.1-3.2,1C528.6,64.7,528.2,63.7,528.2,63.2z M530.3,68.8c-0.2-0.5-0.6-1.2-0.6-1.6c0.7-0.7,2.3-1.3,3.4-1.7
		c0.3,0.7,0.6,1.4,0.9,2.1C532.9,67.8,531.3,69.1,530.3,68.8z M531.4,71c1-0.5,2.4-1.3,3.5-1.6c0.3,0.8,0.6,1.4,0.9,2
		c-0.9,0.7-2.5,1-3.4,1.7C532.1,72.4,531.5,71.6,531.4,71z M534,76.5c-0.2-0.6-0.5-1.2-0.7-1.8c0.9-0.6,2.1-1,3.2-1.5
		c0.3,0.8,0.6,1.4,0.9,2C536.3,75.7,535,76.4,534,76.5z M538.8,74.2c-0.2-0.7-0.6-1-0.8-1.6c3.7-1.5,7.1-3.1,10.5-4.7
		C545.5,70.1,542.3,72.2,538.8,74.2z M551.8,64.4c-4.5,2.4-9.9,4.5-14.4,6.8c-2-4.2-3.9-8.8-5.9-13.1c7-2.8,13.9-6.4,21-9.4
		c1.6,4.1,3.2,8.7,5.2,12.4C555.1,61.5,553.7,63.4,551.8,64.4z M558.1,56.6c-0.3-0.6-0.5-1.2-0.8-1.6c0.8-0.6,2.2-1.3,3.3-1.5
		c0.2,0.6,0.5,1.1,0.7,1.7C560.5,55.7,559.1,56.1,558.1,56.6z M559.6,60c-0.3-0.6-0.6-1.1-0.6-1.7c0.8-0.5,2.2-1.1,3.2-1.3
		c0.2,0.6,0.6,1.2,0.7,1.7C562.2,59.3,560.6,59.9,559.6,60z"/>
	<path class="st2" d="M538.6,55.9c3.6-0.5,8.8-3.3,12.9-4.7c1.2,1.5,2,4.2,3,6.3c0.2,0.5,0.2,1.9,0.9,1.9c-0.5-2.4-2-6.5-3.4-9
		C547.9,51.7,543,53.9,538.6,55.9z"/>
</g>
</svg>
