<?xml version="1.0" encoding="utf-8"?>
<!-- Generator: Adobe Illustrator 26.0.1, SVG Export Plug-In . SVG Version: 6.00 Build 0)  -->
<svg version="1.1" xmlns="http://www.w3.org/2000/svg" xmlns:xlink="http://www.w3.org/1999/xlink" x="0px" y="0px"
	 viewBox="0 0 468.1 45.6" style="enable-background:new 0 0 468.1 45.6;" xml:space="preserve">
<style type="text/css">
	.st0{fill:#B7B19E;}
	.st1{fill:none;stroke:#B7B19E;stroke-width:0.5;stroke-linecap:round;stroke-miterlimit:10;}
</style>
<g id="Layer_1">
	<circle class="st0" cx="460.7" cy="22.8" r="2.1"/>
	<circle class="st0" cx="7.4" cy="22.7" r="2.1"/>
	<path class="st0" d="M233.5,27l-3.6-3.6c-0.3-0.3-0.3-0.8,0-1.2l3.6-3.6c0.3-0.3,0.8-0.3,1.2,0l3.6,3.6c0.3,0.3,0.3,0.8,0,1.2
		l-3.6,3.6C234.3,27.3,233.8,27.3,233.5,27z"/>
	<g>
		<path class="st0" d="M225.5,25.2l-1.8-1.8c-0.3-0.3-0.3-0.8,0-1.2l1.8-1.8c0.3-0.3,0.8-0.3,1.2,0l1.8,1.8c0.3,0.3,0.3,0.8,0,1.2
			l-1.8,1.8C226.3,25.6,225.8,25.6,225.5,25.2z"/>
		<path class="st0" d="M241.5,25.2l-1.8-1.8c-0.3-0.3-0.3-0.8,0-1.2l1.8-1.8c0.3-0.3,0.8-0.3,1.2,0l1.8,1.8c0.3,0.3,0.3,0.8,0,1.2
			l-1.8,1.8C242.3,25.6,241.8,25.6,241.5,25.2z"/>
	</g>
	<path class="st0" d="M241.5,25.2l-1.8-1.8c-0.3-0.3-0.3-0.8,0-1.2l1.8-1.8c0.3-0.3,0.8-0.3,1.2,0l1.8,1.8c0.3,0.3,0.3,0.8,0,1.2
		l-1.8,1.8C242.3,25.6,241.8,25.6,241.5,25.2z"/>
	<path class="st0" d="M456.8,22.1H245.5l0.2,0.2c0.3,0.3,0.3,0.8,0,1.2l-0.2,0.2h211.3c0-0.2-0.1-0.5-0.1-0.8S456.8,22.3,456.8,22.1
		z"/>
	<g>
		<path class="st0" d="M222.7,23.6l-0.2-0.2c-0.3-0.3-0.3-0.8,0-1.2l0.2-0.2H11.4c0,0.2,0.1,0.4,0.1,0.6c0,0.3,0,0.6-0.1,0.9H222.7z
			"/>
	</g>
</g>
<g id="Layer_2">
	<path class="st1" d="M258.3,21.2h-12.8l-1.8-1.8c-0.4-0.4-1-0.7-1.6-0.7c-0.6,0-1.2,0.2-1.6,0.7l-1.5,1.5l-3.3-3.3
		c-0.4-0.4-1-0.7-1.6-0.7c-0.6,0-1.2,0.2-1.6,0.7l-3.3,3.3l-1.5-1.5c-0.4-0.4-1-0.7-1.6-0.7s-1.2,0.2-1.6,0.7l-1.8,1.8h-12.8"/>
	<path class="st1" d="M199.8,24.5h22.8l1.8,1.8c0.4,0.4,1,0.7,1.6,0.7s1.2-0.2,1.6-0.7l1.5-1.5l3.3,3.3c0.4,0.4,1,0.7,1.6,0.7
		c0.6,0,1.2-0.2,1.6-0.7l3.3-3.3l1.5,1.5c0.4,0.4,1,0.7,1.6,0.7c0.6,0,1.2-0.2,1.6-0.7l1.8-1.8h22.8"/>
</g>
</svg>
