<?xml version="1.0" encoding="utf-8"?>
<!-- Generator: Adobe Illustrator 26.0.1, SVG Export Plug-In . SVG Version: 6.00 Build 0)  -->
<svg version="1.1" id="Layer_1" xmlns="http://www.w3.org/2000/svg" xmlns:xlink="http://www.w3.org/1999/xlink" x="0px" y="0px"
	 viewBox="0 0 642.7 111.1" style="enable-background:new 0 0 642.7 111.1;" xml:space="preserve">
<style type="text/css">
	.st0{fill:#B8B19F;}
	.st1{fill:#B7B19E;}
	.st2{fill-rule:evenodd;clip-rule:evenodd;fill:#B7B19E;}
</style>
<g>
	<path class="st0" d="M237.5,57.8c0,0-0.6,0.1-0.8,0.5c0,0,0.6,1.6,2,2c0,0-0.6,0.3-0.8,0.5c0,0,0,1.2,3,1.8c0,0-0.7,0.3-1,0.6
		c0,0,1.6,1.5,5.4,1c2.3-0.2,3.6-1.2,3.6-1.2c0.1-0.1-0.1-0.9-0.1-1c-0.1-0.6-0.2-1.2-0.2-1.8c-0.1-1.2-0.5-2.6-1.3-3.5
		c-0.5-0.6-2.2-1.6-2.2-2.1c0,0-0.4,0.5-0.2,1.5c0,0-1.6-2.2-3.4-2.4c0,0,0.2,0.8,0,1.1c0,0-1.4-1.1-2.7-0.9c0,0-0.1,0.6,0.1,0.8
		c0,0-3-0.1-3.7-1C235.1,53.7,234.6,55.8,237.5,57.8z M239.5,56.8c0.3,0.4,1.7,0.4,1.7,0.4c-0.1-0.1-0.1-0.4-0.1-0.4
		c0.6-0.1,1.3,0.4,1.3,0.4c0.1-0.2,0-0.5,0-0.5c0.8,0.1,1.6,1.1,1.6,1.1c-0.1-0.5,0.1-0.7,0.1-0.7c0,0.2,0.8,0.7,1,1
		c0.3,0.2,0.4,0.9,0.5,1.4s0.6,1.9,0.6,1.9c-0.5-0.1-1.9,0.2-1.9,0.2c-1.8,0.3-2.6-0.5-2.6-0.5c0.1-0.2,0.5-0.3,0.5-0.3
		c-1.4-0.3-1.4-0.8-1.4-0.8c0.1-0.1,0.4-0.2,0.4-0.2c-0.7-0.2-1-0.9-1-0.9c0.1-0.2,0.4-0.2,0.4-0.2
		C239.3,57.8,239.5,56.8,239.5,56.8z"/>
	<path class="st0" d="M247.8,45.6L247.8,45.6c0.2,0,0.3-0.1,0.4-0.2c0.8-2.2,2.2-5.3,4.6-8.1c2.5-3,5.5-4.9,8.9-5.7
		c2.7-0.6,5.8-0.7,8.8-0.7c5.7-0.1,11.1-0.2,12.5-4.3c0.6-1.6,0.4-3.2-0.6-4.5c-0.9-1.3-2.5-2.1-3.9-2.1c-1.5,0-2.6,0.8-3.1,2.2
		c-0.6,1.7-0.3,2.6,0.1,3.1s0.9,0.8,1.5,0.8c0.7,0,1.3-0.4,1.3-1c0-0.1,0-0.2-0.1-0.3c-0.1,0-0.1-0.1-0.2-0.1h-0.1
		c-0.1,0-0.2,0-0.2,0c-0.5,0-0.7-0.4-0.8-0.8c-0.1-0.5,0.1-1.3,0.9-1.7c0.2-0.1,0.5-0.2,0.9-0.2c1.2,0,2.5,0.8,3.1,1.7
		c0.5,0.8,0.4,1.8-0.1,2.7c-1.2,2.1-3.6,2.5-5.4,2.5s-3.9-0.4-6.1-1.2c-1.5-0.6-2.9-0.9-4.3-0.9c-2.7,0-5.1,1-7.3,3.2
		c0.3-1,0.3-2.4-0.6-4.1c-0.1-0.1-0.2-0.2-0.3-0.2c0,0,0,0-0.1,0c-0.2,0-0.3,0.2-0.3,0.3c-0.4,4.2-2.1,6-3.7,7.8
		c-0.5,0.6-1.1,1.2-1.5,1.8c-0.9,1.3-2,3.1-2.8,4.9c-0.5,1.1-1.4,3.2-1.5,4.6C247.5,45.4,247.6,45.6,247.8,45.6z"/>
	<path class="st0" d="M243,74.4c-0.5,0.8-1.9,2.5-3.3,2c3.2-4-5.5-7.8,2.1-9.5c-1.7,2.5-0.8,6.2,2.9,6.7c-2.4-2.4-0.3-7.1,2.6-6.7
		c-1.6,1.6-1.8,4.7,0.5,5.6c0.1-4.7,4.9-3.6,8.6-1.4c3,3,6.8,5.5,11,7.2c4.6,2,9.6,3,14.3,3c14.6,0,24.3-9,24.3-11.1
		c0-0.2-0.1-0.3-0.1-0.4c-0.1-0.1-0.2-0.1-0.4-0.1c-0.8,0-2.6,1.1-4.9,3c-2.6,2.2-5.7,3.8-9.2,4.8c1.7-1.1,2.3-2.8,1.7-4.6
		c-0.5-1.2-1.5-1.8-2.9-1.8c-2.1,0-4.7,1.4-6.5,3.5c-0.9,1-2.1,1.6-3.6,1.6c-2.2,0-4.4-1.3-5.7-3.3c-0.7-1.1-0.9-2-0.5-2.5
		c0.2-0.4,0.7-0.6,1-0.6c0.2,0,0.5,0.1,0.6,0.2s0.1,0.2,0.1,0.3c0,0.2,0,0.4,0.2,0.5c0.2,0.2,0.5,0.3,0.8,0.3c0.4,0,0.7-0.2,0.9-0.4
		c0.2-0.2,0.3-0.6,0.1-1.3c-0.2-0.8-1-1.3-1.9-1.3c-0.7,0-1.5,0.3-1.9,0.8c-0.5,0.5-0.7,1.2-0.7,2.1c0.1,1.6,1.3,3.6,3.1,5
		c0.3,0.3,0.7,0.6,1.1,0.8c-0.4-0.1-0.8-0.2-1.2-0.3c-3.3-1.4-6.2-3.5-8.6-6.2c-1.4-1.6-2.5-3.4-3.4-5.3c-0.9-1.8-1.1-3.9-2-5.7
		s-3.1-2.2-4.5-0.8c-1.7,1.7-0.7,4.3,0.4,6c2.2,3.7,5.4,6.9,8.9,9.4c2.6,1.8,5.6,3.2,8.6,4.2c0.1,0.1,0.3,0.1,0.4,0.2
		c-6.7-1-13.1-3.6-17.3-7.4c-4.1-3.6-6.2-6.9-6.3-10.3c-0.1-2.9,1.3-5.8,4.4-9c0.1-0.1,0.1-0.2,0-0.2c-0.1-0.1-0.1-0.1-0.2,0
		c-0.1,0-5.3,2.8-5.8,7.9c-1.5-5.7,0-10.6,2-13.2c1.4-1.9,3.2-3,4.8-3c0.3,0,0.6,0,0.9,0.1c0.1,0,0.2,0,0.2-0.1s0-0.2,0-0.2
		c-0.8-0.7-1.6-1-2.5-1c-1.5,0-2.9,1.1-3.6,2.1c-0.2,0.2-0.3,0.4-0.4,0.4c0-0.2,0.1-0.4,0.4-0.8c1.4-1.6,2.9-2.4,4.3-2.4
		c1.3,0,2.5,0.7,3.3,2.1c0.5,0.8,1.3,0.9,2,0.9c0.3,0,0.5,0,0.8,0s0.5,0,0.7,0c0.6,0,1,0.1,1.2,0.4c0.4,0.4,0.4,1.3,0.1,2.7
		c0,0.1,0,0.2,0.1,0.2s0.2,0,0.2-0.1c1.1-2.4,1-5-0.2-6.9c-1.1-1.8-3.1-2.8-5.5-2.8c-0.6,0-1.3,0.1-1.9,0.2c1.7-1.6,3.7-2.5,5.5-2.5
		c2.5,0,4.4,1.6,4.8,4.1c0,0.1,0.1,0.1,0.1,0.1c0.1,0,0.1,0,0.2,0c0,0,0.6-0.5,0.8-1.3c0.2-0.7,0.3-1.7-0.5-3
		c1.9,0.8,2.5,2.1,2.9,3.2c0.4,1,0.8,1.9,2.2,1.8h0.1c1.3,0,3.3,0.8,4.4,2.5c0.8,1.2,1.5,3.2,0.3,6.2c-1.2,2.9-3.5,4.5-6.6,4.5
		c-3.2,0-6.7-1.8-8.5-4.3c0-0.1-0.1-0.1-0.2-0.1s-0.1,0.1-0.1,0.2c0.3,1.4,1.5,2.9,3.1,4.1c1.8,1.3,3.9,1.9,6,1.9
		c2.3,0,4.4-0.9,6.3-2.5c0.1,0.3,0.4,1,0.8,1.6c0.8,1.3,1.8,2.1,2.9,2.3c0.1,0,0.1,0,0.2-0.1c0-0.1,0-0.1,0-0.2
		c-2.3-2.8-1.6-5.1-0.9-7.6c0.8-2.9,1.7-6.2-2.1-10.9c-3.1-3.7-7.4-5.7-12.1-5.7c-4.4,0-8.7,1.7-12.1,4.9c-3.7,3.5-5.9,8.2-6.3,13.8
		c-0.5,5.9,1.2,11.5,4.8,16.4c-7.2-3.7-18-3.2-18.6,5.4C234.4,79.2,243,79.3,243,74.4z"/>
</g>
<path class="st0" d="M246.2,47.5c-23,0-165.8,0-183.1,0c-1.1,0-2.3,0-3.3,0c-1.1,0-2.2-0.1-3.2,0c-2.1,0.1-4,0.3-5.9,0.4
	c-1.9,0.1-3.6,0.3-5.2,0.4c-1.6,0.1-3.1,0.2-4.4,0.4c-2.7,0.2-4.7,0.4-6.2,0.5c-1.4,0.1-2.2,0.2-2.2,0.2s0.8,0.1,2.2,0.2
	c1.4,0.1,3.5,0.3,6.2,0.5c1.3,0.1,2.8,0.2,4.4,0.4c1.6,0.1,3.3,0.2,5.2,0.4c1.8,0.1,3.8,0.3,5.9,0.4c0.1,0,0.2,0,0.3,0
	c-1,0.2-2.7,0.8-3.6,2c0,0,0.5,0.3,1.1,0.3c-0.7,0.1-2.2,0.7-3.4,2.6c0,0,0.9,0.1,1.6,0.1c-0.9,0.3-2.8,1.1-3.8,3.1
	c0,0,0.9,0.2,1.4-0.1c0,0-3.8,4-5.2,2.5c0,0,2.6,3,7.2,0.8c0,0-0.5,0.6-0.2,1.4c0,0,2.2,0,4.3-3.7c0,0-0.4,0.9,0.1,1.8
	c0,0,1.3-1,1.8-2.1c0.6-1.2,0.9-2.8,1.5-3.3c0,0-0.4,0.9,0.1,1.7c0,0,1-0.4,1.4-1.1c0.4-0.7,1.3-3.7,4.1-4.2c0.9-0.2,1.5-0.3,2-0.3
	c2.3,2.6,2.7,6.9,0.8,10c-3.2,5.2-9.7,6.6-15.3,4.9c-3.1-1-5.8-2.6-8.3-4.8c-2.3-2-4.1-4.3-6.2-6.6c-1.7-1.9-3.9-4-6.5-4.4
	c-2.3-0.3-4.5,0.3-6.1,2c0.7-2.4,2.4-4.6,4.6-5.9c4.4-2.9,9.7-3,14.7-2.8c5.4,0.2,11.1,0.8,16.2-1.3c3.9-1.6,7.4-4.4,8.7-8.6
	c0.4-1.4-1.7-2-2.1-0.6c-1.2,3.8-4.7,6.4-8.4,7.5c1.4-0.8,2-1.5,2-1.5l0,0c1-0.9,1.9-1.9,2.3-3.2c0.9-2.4,0.5-4.5-0.7-6.7
	c-1.3-2.3-4.5-3.4-6.7-1.8c-0.4,0.3-1.2,1.1-0.6,1.6c0.5,0.5,0.7-0.1,0.7-0.5c0-0.6-0.1-0.9,0.5-1.2c0.5-0.2,1.1-0.2,1.6,0
	c1,0.5,2,2,1.7,3.2c-0.2,0.7-0.7,0.9-1.3,1.2c-0.8,0.4-1.5,1-2.1,1.7c-1.3,1.7-1.7,3.7-3.2,5.3c-1.3,1.4-3.2,2.5-5.1,2.7
	c0,0,0,0-0.1,0c1.5-0.5,2.8-1.3,3.4-2.8c0.2-0.6,0.5-2.1-0.2-2.6c-0.9-0.5-0.2,0.5-0.2,0.7c0.1,0.7-1,1.2-1.6,1.3
	C49,40,48,39.7,47,39.9c-1.8,0.4-3.4,1.7-5.1,2.4c-0.3,0.1-0.6,0.2-0.8,0.4c0.8-0.4-0.8-0.4-1.1-0.4c-0.6,0.1-1.2,0.4-1.8,0.6
	c-0.6,0.2-1.1,0.3-1.7,0.4c-3.6,0.6-7.2,1.8-9.7,4.5c-2.9,3.1-4.6,7.5-3,11.6c0,0.1,0.1,0.1,0.1,0.2c0.1,0.7,0.4,1.3,0.7,1.9
	c1.2,2.1,3.7,3.9,6.3,3.6c2.3-0.3,5-1.9,4.5-4.6c-0.4-2.1-3-3.9-5-2.5c-1.1,0.8,0,2.8,1.1,1.9c0.6-0.5,1.3,0,1.6,0.7
	s-0.3,1.4-0.9,1.8c-1.6,0.9-3.5,0.5-4.8-0.8s-1.9-3.1-1.2-4.8c0.6-1.6,2.3-3,4.1-3c2.8,0,5,2.1,6.7,4.1c2,2.3,3.9,4.6,6.2,6.6
	c4.7,4,10.8,6.8,17.1,5.7c5.1-0.9,10.3-4.8,11.1-10.3c0.5-3.1-0.4-6.3-2.4-8.6c16.3,0,156.7,0,177.1,0l-0.4-0.7
	c-0.4-0.7-0.4-1.7,0-2.4L246.2,47.5z M58.6,54.7c-2.2,2.2-6.8,8.1-10.7,7.4c0,0,3.2-0.6,7.6-6.9c0,0,2.9-4.7,9.7-3.6
	C65.2,51.6,60.8,52.5,58.6,54.7z"/>
<g>
	<path class="st0" d="M396.9,48.2c0.4,0.7,0.4,1.7,0,2.4l-0.4,0.7c20.4,0,160.8,0,177.1,0c-1.9,2.3-2.8,5.5-2.4,8.6
		c0.8,5.4,5.9,9.4,11.1,10.3c6.3,1.1,12.4-1.7,17.1-5.7c2.3-2,4.2-4.3,6.2-6.6c1.8-2,3.9-4.1,6.7-4.1c1.8,0,3.4,1.4,4.1,3
		c0.7,1.7,0.1,3.5-1.2,4.8s-3.2,1.7-4.8,0.8c-0.6-0.3-1.2-1.1-0.9-1.8s1-1.1,1.6-0.7c1.1,0.9,2.3-1.1,1.1-1.9
		c-1.9-1.5-4.6,0.3-5,2.5c-0.5,2.7,2.3,4.3,4.5,4.6c2.6,0.3,5-1.5,6.3-3.6c0.4-0.6,0.6-1.2,0.7-1.9c0-0.1,0.1-0.1,0.1-0.2
		c1.6-4.1-0.1-8.6-3-11.6c-2.6-2.7-6.1-3.9-9.7-4.5c-0.6-0.1-1.1-0.3-1.7-0.4c-0.6-0.2-1.2-0.5-1.8-0.6c-0.3-0.1-1.9,0-1.1,0.4
		c-0.3-0.1-0.5-0.2-0.8-0.4c-1.7-0.7-3.3-2-5.1-2.4c-1-0.2-2,0.2-2.9-0.1c-0.6-0.1-1.6-0.6-1.6-1.3c0-0.3,0.8-1.2-0.2-0.7
		c-0.7,0.4-0.5,2-0.2,2.6c0.6,1.5,1.9,2.4,3.4,2.8c0,0,0,0-0.1,0c-1.9-0.3-3.8-1.4-5.1-2.7c-1.5-1.5-1.9-3.6-3.2-5.3
		c-0.5-0.7-1.3-1.3-2.1-1.7c-0.5-0.3-1.1-0.5-1.3-1.2c-0.3-1.2,0.7-2.7,1.7-3.2c0.5-0.2,1.1-0.2,1.6,0c0.6,0.3,0.5,0.6,0.5,1.2
		c0,0.3,0.2,1,0.7,0.5s-0.2-1.3-0.6-1.6c-2.2-1.6-5.5-0.5-6.7,1.8c-1.2,2.2-1.7,4.3-0.7,6.7c0.5,1.2,1.3,2.3,2.3,3.2l0,0
		c0,0,0.6,0.7,2,1.5c-3.7-1.2-7.2-3.7-8.4-7.5c-0.4-1.4-2.6-0.8-2.1,0.6c1.3,4.2,4.7,7,8.7,8.6c5.1,2.1,10.9,1.5,16.2,1.3
		c5-0.2,10.3-0.1,14.7,2.5c2.1,1.3,3.9,3.5,4.6,5.9c-1.6-1.6-3.8-2.3-6.1-2c-2.6,0.4-4.8,2.5-6.5,4.4c-2,2.2-3.9,4.6-6.2,6.6
		c-2.4,2.1-5.2,3.8-8.3,4.8c-5.6,1.8-12.1,0.4-15.3-4.9c-1.9-3.1-1.5-7.4,0.8-10c0.5,0.1,1.1,0.2,2,0.3c2.8,0.6,3.7,3.5,4.1,4.2
		c0.4,0.7,1.4,1.1,1.4,1.1c0.5-0.7,0.1-1.7,0.1-1.7c0.6,0.5,1,2.1,1.5,3.3c0.6,1.2,1.8,2.1,1.8,2.1c0.6-1,0.1-1.8,0.1-1.8
		c2.1,3.8,4.3,3.7,4.3,3.7c0.3-0.8-0.2-1.4-0.2-1.4c4.6,2.1,7.2-0.8,7.2-0.8c-1.4,1.5-5.2-2.5-5.2-2.5c0.5,0.3,1.4,0.1,1.4,0.1
		c-1-2-2.9-2.8-3.8-3.1c0.7,0.1,1.6-0.1,1.6-0.1c-1.2-1.9-2.8-2.4-3.4-2.6c0.7,0,1.1-0.3,1.1-0.3c-0.8-1.2-2.5-1.8-3.6-2
		c0.1,0,0.2,0,0.3,0c2.1-0.1,4-0.3,5.9-0.4c1.9-0.1,3.6-0.3,5.2-0.4c1.6-0.1,3.1-0.2,4.4-0.4c2.7-0.2,4.7-0.4,6.2-0.5
		c1.4-0.1,2.2-0.2,2.2-0.2s-0.8-0.1-2.2-0.2c-1.4-0.1-3.5-0.3-6.2-0.5c-1.3-0.1-2.8-0.2-4.4-0.4c-1.6-0.1-3.3-0.2-5.2-0.4
		c-1.8-0.1-3.8-0.3-5.9-0.4c-1-0.1-2.1-0.1-3.2,0c-1.1,0-2.2,0-3.3,0c-17.2,0-160.1,0-183.1,0L396.9,48.2z M577.5,51.6
		c6.8-1.1,9.7,3.6,9.7,3.6c4.4,6.4,7.6,6.9,7.6,6.9c-4,0.7-8.6-5.2-10.7-7.4C581.9,52.5,577.5,51.6,577.5,51.6z"/>
</g>
<path class="st1" d="M321.9,71.6c-0.3-0.3-0.9-0.3-1.2,0l-3.6,3.6c-0.3,0.3-0.3,0.9,0,1.2l3.6,3.6c0.3,0.3,0.9,0.3,1.2,0l3.6-3.6
	c0.3-0.3,0.3-0.9,0-1.2L321.9,71.6z"/>
<path class="st2" d="M342.5,36.9c-1.4-1.8-2.5-3.9-3.8-5.7c-1.2-1.8-2.5-4.2-4.2-5.1c-12.2,6-23.8,13.2-34.6,20.3
	c0,0.1-0.1,0.1-0.1,0.1c0,0,0.1,0,0.1-0.1c0,0,0,0,0,0c0-0.1,0-0.1,0.1-0.1c3.9-8.8,8-17.2,12.1-25.7c1.3-2.9,3.2-5.6,3.7-9
	c-1.3-1-3.4-1.7-5.1-1.9c-3.8,5.5-5.8,12.9-9,19c-3,6.4-6.2,12.6-8.7,19.4c0.7,1.1,2.1,1.5,3.4,2c2.1,4.1,4.5,7.9,6.9,11.7
	c1.8,2.8,3.7,5.6,5.5,8.4c0.6,0.9,1.3,2,2.4,2.3c1.8-0.3,3.2-2,4.9-2.7c5-2.8,9.9-5.8,14.8-8.8c3.2-2,6.7-3.7,9.7-5.9
	c1.6-0.9,3.2-2,4.8-3c1.6-1,3.5-1.8,4.6-3.3C347.7,44.3,344.7,41,342.5,36.9z M334.3,27.6c0.7,1,1.3,2,1.9,3.1
	c-1,0.3-1.6,0.9-2.5,1.2C333.9,30.5,334.1,29,334.3,27.6z M330.5,29.7c1-0.5,2-1,2.9-1.7c0.1,1.3-0.6,2.8-0.7,4.3
	c-0.9,0.4-1.7,1-2.7,1.4C330.3,32.5,330.3,31.1,330.5,29.7z M326.9,31.9c0.9-0.6,1.9-1.1,2.8-1.7c0,1.1-0.3,2.7-0.5,4
	c-0.8,0.5-1.7,0.9-2.4,1.4C326.4,34.5,326.9,33.2,326.9,31.9z M323.2,34c0.9-0.5,1.8-1,2.7-1.6c0.3,0.8-0.2,2.5-0.2,3.7
	c-0.8,0.6-1.8,0.9-2.5,1.6C323,36.7,323.2,35.1,323.2,34z M319.6,36.1c1-0.5,1.9-1.1,2.9-1.7c0,1-0.3,2.7-0.5,3.9
	c-1.1,0.4-1.8,1.2-2.9,1.6C319.5,38.8,319.5,37.4,319.6,36.1z M315.8,38.4c1-0.5,2-1.2,3-1.8c0.4,0.9-0.3,2.6-0.5,3.7
	c-0.7,0.7-1.8,1.1-2.8,1.7C315.5,40.7,315.7,39.5,315.8,38.4z M312,40.7c1-0.6,2-1.1,2.9-1.8c0.3,0.7-0.1,2.4-0.1,3.5
	c-0.8,0.8-1.9,1.3-3,1.9C311.8,43.1,311.9,41.8,312,40.7z M307.9,43.4c0.9-0.9,2.2-1.4,3.2-2.2c0.3,0.7-0.1,2.5-0.2,3.5
	c-0.9,0.8-2.1,1.4-3.2,2.1C307.8,45.7,308,44.6,307.9,43.4z M310.6,12.2c0.8-0.1,1.4-0.4,1.9-0.7c0.7,0.3,1.4,0.5,2.1,0.8
	c-0.1,0.3-0.3,0.7-0.4,0.9c-1.6,0.3-2.9,1-4.5,1.4C310,13.8,310.4,13.1,310.6,12.2z M309.2,15.9c1.4-0.7,3-1.2,4.5-1.9
	c0,1-1,1.9-1.3,2.8c-1.5,0.5-2.9,1-4.3,1.5C308.5,17.7,308.8,16.7,309.2,15.9z M307.6,19.3c1.3-0.5,2.7-0.9,4-1.3
	c0.1,0.9-1.2,2.4-1.6,3.5c-1.4,0.4-2.6,1-3.9,1.4C306.6,21.7,307.2,20.5,307.6,19.3z M305.7,23.7c1.3-0.3,2.5-0.7,3.6-1.2
	c0.2,0.8-0.9,2-1.2,3c-1.3,0.3-2.4,0.9-3.7,1.2C304.8,25.7,305.3,24.8,305.7,23.7z M304.1,27.4c1.2-0.4,2.4-0.6,3.4-1.1
	c0.2,0,0.2,0.1,0.2,0.2c-0.8,1.1-1.2,2.5-1.9,3.6c-1.2,0.3-2.2,0.7-3.4,1C302.9,29.8,303.5,28.7,304.1,27.4z M301.9,31.9
	c1.1-0.4,2.3-0.8,3.5-1c-0.5,0.9-0.9,1.8-1.3,2.7c-1.1,0.4-2.3,0.7-3.4,1.1C300.7,33.9,301.6,32.9,301.9,31.9z M300.2,35.5
	c1.1-0.3,2.2-0.5,3.2-0.9c0.2,0,0.2,0.1,0.2,0.2c-0.7,1-1.1,2.3-1.7,3.4c-1.2,0.3-2.2,0.7-3.4,1C299,37.9,299.7,36.8,300.2,35.5z
	 M298,39.9c1.2-0.2,2.2-0.6,3.4-0.8c-0.6,1.2-1.2,2.4-1.7,3.7c-1.1,0.3-2.2,0.7-3.3,0.9C297,42.5,297.6,41.3,298,39.9z M295.1,47.1
	c0.2-1,0.7-1.7,1-2.6c1.1-0.2,2.1-0.5,3.1-0.8c-0.3,1.4-1.4,3-1.9,4.5C296.3,48,296,47.3,295.1,47.1z M299.3,52.1
	c-0.7-0.3-0.8-1.2-1.3-1.7c0.4-0.8,1.4-1.1,2-1.8C300.3,49.4,299.9,51.4,299.3,52.1z M303.3,49.6c-1,0.5-1.8,1.2-2.9,1.7
	c0.2-1.1,0.4-2.3,0.8-3.3c0.7-0.8,1.7-1.2,2.6-1.9C303.9,47.1,303.6,48.6,303.3,49.6z M304.5,45.6c1-0.6,1.9-1.3,2.9-2
	c0.1,0.9-0.3,2.4-0.3,3.6c-0.8,0.6-1.9,1.1-2.7,1.8C304.2,48,304.7,46.8,304.5,45.6z M306.8,55.3c0-0.4-0.2-0.5-0.3-0.8
	c9-5.8,18.5-11.2,27.8-16.8c-0.7,1.2-2.2,1.6-3.3,2.4c-1.1,0.8-2.4,1.4-3.5,2.2C320.3,46.3,313.6,51.4,306.8,55.3z M309.6,59.7
	c-0.5-1.8,1.8-1.7,2.6-2.7c1.3-0.6,2.4-1.3,3.5-2c6.6-4.3,13.8-8,20.5-12.2c0-0.1,0.2-0.1,0.2-0.2c0.1,0,0.2,0.1,0.2,0.2
	C327.8,48.6,318.2,54,309.6,59.7z M338.6,49.2c-0.6,0.3-1,0.8-1.7,1c-1.1,0.8-2.3,1.4-3.5,2.1c-2.2,1.6-4.6,2.8-6.9,4.3
	c-4.9,2.5-9.2,5.6-14.1,8.1c-0.4-1,0.1-1.3,0.9-1.6c1.7-1.1,3.5-2,5.1-3.1c2.3-1.3,4.5-2.8,6.9-4.1c4.7-2.6,9.6-5.1,14-8
	c0.1,0,0.2-0.2,0.3-0.2c0.1,0,0.1,0,0.1,0.1C340.2,48.5,338.9,48.7,338.6,49.2z"/>
<g>
	<path class="st1" d="M407.6,53.7c-0.7,0.9-3.7,1-3.7,1c0.2-0.2,0.1-0.8,0.1-0.8c-1.2-0.2-2.7,0.9-2.7,0.9c-0.2-0.3,0-1.1,0-1.1
		c-1.8,0.2-3.4,2.4-3.4,2.4c0.3-1.1-0.2-1.5-0.2-1.5c0,0.5-1.7,1.5-2.2,2.1c-0.9,0.9-1.2,2.3-1.3,3.5c-0.1,0.6-0.1,1.2-0.2,1.8
		c0,0.1-0.2,0.9-0.1,1c0,0,1.3,1,3.6,1.2c3.8,0.5,5.4-1,5.4-1c-0.2-0.3-1-0.6-1-0.6c3-0.5,3-1.8,3-1.8c-0.2-0.2-0.8-0.5-0.8-0.5
		c1.4-0.3,2-2,2-2c-0.3-0.4-0.8-0.5-0.8-0.5C408,55.8,407.6,53.7,407.6,53.7z M402,58.7c0,0,0.3,0.1,0.4,0.2c0,0-0.3,0.8-1,0.9
		c0,0,0.3,0.1,0.4,0.2c0,0,0,0.6-1.4,0.8c0,0,0.3,0.1,0.5,0.3c0,0-0.8,0.7-2.6,0.5c0,0-1.4-0.3-1.9-0.2c0,0,0.5-1.4,0.6-1.9
		c0.1-0.5,0.3-1.1,0.5-1.4c0.3-0.2,1-0.7,1-1c0,0,0.2,0.2,0.1,0.7c0,0,0.8-1,1.6-1.1c0,0-0.1,0.4,0,0.5c0,0,0.7-0.5,1.3-0.4
		c0,0,0,0.3-0.1,0.4c0,0,1.4,0,1.7-0.4C403.1,56.8,403.4,57.8,402,58.7z"/>
	<path class="st1" d="M394.9,45.6C394.9,45.6,394.9,45.6,394.9,45.6c-0.2,0-0.3-0.1-0.4-0.2c-0.8-2.2-2.2-5.3-4.6-8.1
		c-2.5-3-5.5-4.9-8.9-5.7c-2.7-0.6-5.8-0.7-8.8-0.7c-5.7-0.1-11.1-0.2-12.5-4.3c-0.6-1.6-0.4-3.2,0.6-4.5c0.9-1.3,2.5-2.1,3.9-2.1
		c1.5,0,2.6,0.8,3.1,2.2c0.6,1.7,0.3,2.6-0.1,3.1c-0.4,0.5-0.9,0.8-1.5,0.8c-0.7,0-1.3-0.4-1.3-1c0-0.1,0-0.2,0.1-0.3
		c0.1,0,0.1-0.1,0.2-0.1c0,0,0.1,0,0.1,0c0.1,0,0.2,0,0.2,0c0.5,0,0.7-0.4,0.8-0.8c0.1-0.5-0.1-1.3-0.9-1.7
		c-0.2-0.1-0.5-0.2-0.9-0.2c-1.2,0-2.5,0.8-3.1,1.7c-0.5,0.8-0.4,1.8,0.1,2.7c1.2,2.1,3.6,2.5,5.4,2.5c1.8,0,3.9-0.4,6.1-1.2
		c1.5-0.6,2.9-0.9,4.3-0.9c2.7,0,5.1,1,7.3,3.2c-0.3-1-0.3-2.4,0.6-4.1c0.1-0.1,0.2-0.2,0.3-0.2c0,0,0,0,0.1,0
		c0.2,0,0.3,0.2,0.3,0.3c0.4,4.2,2.1,6,3.7,7.8c0.5,0.6,1.1,1.2,1.5,1.8c0.9,1.3,2,3.1,2.8,4.9c0.5,1.1,1.4,3.2,1.5,4.6
		C395.2,45.4,395.1,45.6,394.9,45.6z"/>
	<path class="st1" d="M399.7,74.4c0.5,0.8,1.9,2.5,3.3,2c-3.2-4,5.5-7.8-2.1-9.5c1.7,2.5,0.8,6.2-2.9,6.7c2.4-2.4,0.3-7.1-2.6-6.7
		c1.6,1.6,1.8,4.7-0.5,5.6c-0.1-4.7-4.9-3.6-8.6-1.4c-3,3-6.8,5.5-11,7.2c-4.6,2-9.6,3-14.3,3c-14.6,0-30.1-14.5-30.1-16.6
		c0-0.2,0.1-0.3,0.1-0.4c0.1-0.1,1.6-1.6,5.2,3c0.5,0.6,3.5,3.5,5.9,5.4c2.6,2.2,5.7,3.8,9.2,4.8c-1.7-1.1-2.3-2.8-1.7-4.6
		c0.5-1.2,1.5-1.8,2.9-1.8c2.1,0,4.7,1.4,6.5,3.5c0.9,1,2.1,1.6,3.6,1.6c2.2,0,4.4-1.3,5.7-3.3c0.7-1.1,0.9-2,0.5-2.5
		c-0.2-0.4-0.7-0.6-1-0.6c-0.2,0-0.5,0.1-0.6,0.2c-0.1,0.1-0.1,0.2-0.1,0.3c0,0.2,0,0.4-0.2,0.5c-0.2,0.2-0.5,0.3-0.8,0.3
		c-0.4,0-0.7-0.2-0.9-0.4c-0.2-0.2-0.3-0.6-0.1-1.3c0.2-0.8,1-1.3,1.9-1.3c0.7,0,1.5,0.3,1.9,0.8c0.5,0.5,0.7,1.2,0.7,2.1
		c-0.1,1.6-1.3,3.6-3.1,5c-0.3,0.3-0.7,0.6-1.1,0.8c0.4-0.1,0.8-0.2,1.2-0.3c3.3-1.4,6.2-3.5,8.6-6.2c1.4-1.6,2.5-3.4,3.4-5.3
		c0.9-1.8,1.1-3.9,2-5.7c0.9-1.8,3.1-2.2,4.5-0.8c1.7,1.7,0.7,4.3-0.4,6c-2.2,3.7-5.4,6.9-8.9,9.4c-2.6,1.8-5.6,3.2-8.6,4.2
		c-0.1,0.1-0.3,0.1-0.4,0.2c6.7-1,13.1-3.6,17.3-7.4c4.1-3.6,6.2-6.9,6.3-10.3c0.1-2.9-1.3-5.8-4.4-9c-0.1-0.1-0.1-0.2,0-0.2
		c0.1-0.1,0.1-0.1,0.2,0c0.1,0,5.3,2.8,5.8,7.9c1.5-5.7,0-10.6-2-13.2c-1.4-1.9-3.2-3-4.8-3c-0.3,0-0.6,0-0.9,0.1
		c-0.1,0-0.2,0-0.2-0.1c0-0.1,0-0.2,0-0.2c0.8-0.7,1.6-1,2.5-1c1.5,0,2.9,1.1,3.6,2.1c0.2,0.2,0.3,0.4,0.4,0.4
		c0-0.2-0.1-0.4-0.4-0.8c-1.4-1.6-2.9-2.4-4.3-2.4c-1.3,0-2.5,0.7-3.3,2.1c-0.5,0.8-1.3,0.9-2,0.9c-0.3,0-0.5,0-0.8,0
		c-0.3,0-0.5,0-0.7,0c-0.6,0-1,0.1-1.2,0.4c-0.4,0.4-0.4,1.3-0.1,2.7c0,0.1,0,0.2-0.1,0.2c-0.1,0-0.2,0-0.2-0.1
		c-1.1-2.4-1-5,0.2-6.9c1.1-1.8,3.1-2.8,5.5-2.8c0.6,0,1.3,0.1,1.9,0.2c-1.7-1.6-3.7-2.5-5.5-2.5c-2.5,0-4.4,1.6-4.8,4.1
		c0,0.1-0.1,0.1-0.1,0.1c-0.1,0-0.1,0-0.2,0c0,0-0.6-0.5-0.8-1.3c-0.2-0.7-0.3-1.7,0.5-3c-1.9,0.8-2.5,2.1-2.9,3.2
		c-0.4,1-0.8,1.9-2.2,1.8c0,0-0.1,0-0.1,0c-1.3,0-3.3,0.8-4.4,2.5c-0.8,1.2-1.5,3.2-0.3,6.2c1.2,2.9,3.5,4.5,6.6,4.5
		c3.2,0,6.7-1.8,8.5-4.3c0-0.1,0.1-0.1,0.2-0.1c0.1,0,0.1,0.1,0.1,0.2c-0.3,1.4-1.5,2.9-3.1,4.1c-1.8,1.3-3.9,1.9-6,1.9
		c-2.3,0-4.4-0.9-6.3-2.5c-0.1,0.3-0.4,1-0.8,1.6c-0.8,1.3-1.8,2.1-2.9,2.3c-0.1,0-0.1,0-0.2-0.1c0-0.1,0-0.1,0-0.2
		c2.3-2.8,1.6-5.1,0.9-7.6c-0.8-2.9-1.7-6.2,2.1-10.9c3.1-3.7,7.4-5.7,12.1-5.7c4.4,0,8.7,1.7,12.1,4.9c3.7,3.5,5.9,8.2,6.3,13.8
		c0.5,5.9-1.2,11.5-4.8,16.4c7.2-3.7,18-3.2,18.6,5.4C408.3,79.2,399.6,79.3,399.7,74.4z"/>
</g>
</svg>
